<svg id="Слой_1" data-name="Слой 1" xmlns="http://www.w3.org/2000/svg" viewBox="0 0 211.3 204.18"><defs><style>.cls-1{fill:#ffdf00;}.cls-2{fill:#fff;}</style></defs><polygon class="cls-1" points="26.29 89.47 62.01 69.44 69.94 109.82 26.29 89.47"/><path class="cls-2" d="M53.46,40.3a4.32,4.32,0,0,1,.34-1.69,4.42,4.42,0,0,1,1-1.4l.09-.09A4.3,4.3,0,0,1,57.77,36a5.49,5.49,0,0,1,.58,0h.09a4.92,4.92,0,0,1,1.42.34l.11,0a3.43,3.43,0,0,1,1.58,1.46,5.05,5.05,0,0,1,.54,2.43,4.32,4.32,0,0,1-4.32,4.32A4.1,4.1,0,0,1,53.46,40.3Z"/><path d="M57.77,45.37a4.84,4.84,0,0,1-5.06-5.07,5,5,0,0,1,1.53-3.63l.1-.1a5.08,5.08,0,0,1,3.43-1.34c.22,0,.44,0,.65,0h.11a5.43,5.43,0,0,1,1.62.41l.13,0a4.1,4.1,0,0,1,1.92,1.78,5.78,5.78,0,0,1,.64,2.79A5.08,5.08,0,0,1,57.77,45.37Zm0-8.64a3.59,3.59,0,0,0-2.41.94l-.08.08a3.51,3.51,0,0,0-1.07,2.55,3.34,3.34,0,0,0,3.56,3.57,3.57,3.57,0,0,0,3.57-3.57,4.29,4.29,0,0,0-.45-2.07,2.69,2.69,0,0,0-1.24-1.14,4.47,4.47,0,0,0-1.28-.33Z"/><path class="cls-1" d="M53.46,56.14a4.37,4.37,0,0,1,.34-1.7,4.49,4.49,0,0,1,1-1.39l.09-.09a4.3,4.3,0,0,1,2.92-1.14l.58,0h.09a4.93,4.93,0,0,1,1.42.35l.11,0a3.38,3.38,0,0,1,1.58,1.46,5.05,5.05,0,0,1,.54,2.43,4.32,4.32,0,0,1-4.32,4.32A4.1,4.1,0,0,1,53.46,56.14Z"/><rect class="cls-2" x="129.21" y="153.36" width="42.74" height="9.54" transform="translate(53.83 -37.62) rotate(17.3)"/><path d="M170.06,170l-42.24-13.15,3.29-10.54,42.23,13.16ZM129.7,155.83l39.37,12.27,2.39-7.68-39.37-12.26Z"/><line class="cls-2" x1="45.01" y1="85.9" x2="48.83" y2="93.68"/><rect x="46.17" y="85.45" width="1.5" height="8.67" rx="0.75" transform="translate(-34.77 29.88) rotate(-26.16)"/><line class="cls-2" x1="43.7" y1="91.92" x2="51.48" y2="88.1"/><rect x="43.26" y="89.26" width="8.67" height="1.5" rx="0.75" transform="translate(-34.8 30.18) rotate(-26.15)"/><path d="M170.35,106.16a.74.74,0,0,1-.53-.22l-5.32-5.35a.75.75,0,0,1,1.07-1l5.31,5.34a.76.76,0,0,1,0,1.07A.77.77,0,0,1,170.35,106.16Z"/><path d="M171.45,82.38A.75.75,0,0,1,171,81l4-2.67a.75.75,0,0,1,1,.21.74.74,0,0,1-.21,1l-4,2.67A.75.75,0,0,1,171.45,82.38Z"/><path d="M95.18,160.59a44.76,44.76,0,0,1-39.59-23.92.75.75,0,0,1,1.33-.69,43.22,43.22,0,0,0,46.4,22.32.75.75,0,1,1,.29,1.47A43.86,43.86,0,0,1,95.18,160.59Z"/><path class="cls-2" d="M154.7,96.74a47.44,47.44,0,0,1-14.33,34c-.33.33-.67.65-1,1a47.26,47.26,0,0,1-32.09,12.52q-3.27,0-6.41-.27l-1-.1A53.18,53.18,0,0,1,84.32,140c-.4-.16-.79-.34-1.18-.52a36.91,36.91,0,0,1-17.37-16.07c-3.78-6.9-5.93-15.71-5.93-26.7a47.47,47.47,0,0,1,47.43-47.51C133.46,49.23,154.7,66.5,154.7,96.74Z"/><path d="M107.27,145c-2.19,0-4.37-.09-6.47-.27h-.11l-.91-.09A54.14,54.14,0,0,1,84,140.72c-.39-.15-.79-.34-1.18-.52a37.62,37.62,0,0,1-17.74-16.4c-4-7.29-6-16.4-6-27.06a48.27,48.27,0,0,1,48.18-48.26c13.33,0,25.43,4.48,34.05,12.62,9.25,8.72,14.13,21.05,14.13,35.64a48.16,48.16,0,0,1-14.56,34.56c-.33.33-.68.66-1,1A48.05,48.05,0,0,1,107.27,145Zm0-95A46.77,46.77,0,0,0,60.59,96.74c0,10.41,2,19.27,5.84,26.34a36.19,36.19,0,0,0,17,15.75l1.15.51A52.83,52.83,0,0,0,100,143.13l.88.09h.1c2.06.18,4.19.27,6.34.27a46.51,46.51,0,0,0,31.58-12.32c.34-.3.67-.62,1-.94A46.67,46.67,0,0,0,154,96.74C154,68.77,135.19,50,107.27,50Z"/><path d="M150.9,115.39a47.57,47.57,0,0,1-10.53,15.37c-.33.33-.67.65-1,1a47.26,47.26,0,0,1-32.09,12.52q-3.27,0-6.41-.27l-1-.1A53.18,53.18,0,0,1,84.32,140c5.76-14.45,13.82-29.32,26.25-35.83a29.64,29.64,0,0,1,15.88-3.35,30.62,30.62,0,0,1,7.52,1.38C141.85,104.75,147.29,110.18,150.9,115.39Z"/><path class="cls-2" d="M91.85,110.92c-2,3.28-6.08,18.45-8.71,28.59a36.91,36.91,0,0,1-17.37-16.07c2-6.48,3.9-10.79,3.47-15.32-.66-7.05,1-15.43,2.63-21.61,0,0,2.06-3.1,4.93-.67,0,0,3.09-3.11,4.88.34,0,0,3.4-3,4.39,1A52.39,52.39,0,0,1,88.51,101c.42-.12.69-.17.69-.17s1.25-9.55,4.16-8S94.23,106.93,91.85,110.92Z"/><path d="M83.64,140.57l-.81-.38A37.59,37.59,0,0,1,65.11,123.8l-.15-.28.09-.3q.61-1.93,1.17-3.63c1.51-4.6,2.6-7.92,2.27-11.4-.73-7.84,1.35-17.07,2.66-21.88l.1-.21a4.61,4.61,0,0,1,2.88-1.91,3.75,3.75,0,0,1,2.64.69,4.28,4.28,0,0,1,3.13-1,3,3,0,0,1,2,1.26,3.73,3.73,0,0,1,3-.63,3.14,3.14,0,0,1,2,2.51c.11.45.25,1,.41,1.51A49.45,49.45,0,0,1,89,97.55c.52-2.18,1.41-4.74,2.81-5.47a1.92,1.92,0,0,1,1.86,0,3.2,3.2,0,0,1,1.45,2.11c1.17,4.13-.56,13.57-2.66,17.1h0c-1.45,2.41-4.51,12.49-8.63,28.39ZM66.58,123.36a36.1,36.1,0,0,0,16.06,15.09c2.92-11.19,6.68-24.75,8.57-27.91s3.55-12.24,2.51-15.92a2,2,0,0,0-.7-1.19.44.44,0,0,0-.47,0c-1.2.63-2.25,4.76-2.61,7.5l-.07.54-.53.1s-.26,0-.62.15l-.93.27,0-1a46.43,46.43,0,0,0-2-12.1c-.16-.58-.31-1.09-.43-1.56s-.42-1.27-.94-1.44c-.75-.23-1.89.55-2.23.85l-.72.62L81,86.53a2,2,0,0,0-1.34-1.21,3.41,3.41,0,0,0-2.35,1.05l-.48.49-.53-.45a2.56,2.56,0,0,0-2-.73,3,3,0,0,0-1.78,1.16c-1.28,4.74-3.28,13.68-2.57,21.21.36,3.79-.83,7.41-2.34,12C67.31,121.09,67,122.19,66.58,123.36Z"/><path d="M86.57,102a7.24,7.24,0,0,0-5.29,8.59c.12.63,1.07.32,1-.3a6.22,6.22,0,0,1,4.65-7.33C87.5,102.75,87.2,101.8,86.57,102Z"/><path d="M83.18,99.58a19.6,19.6,0,0,1-.92-14c.18-.61-.79-.83-1-.22a20.43,20.43,0,0,0,1,14.53C82.49,100.46,83.44,100.17,83.18,99.58Z"/><path d="M77.61,99.94a26.55,26.55,0,0,1-.44-14.12.5.5,0,0,0-1-.22,27.71,27.71,0,0,0,.47,14.65A.5.5,0,0,0,77.61,99.94Z"/><path class="cls-2" d="M99.87,143h0a.71.71,0,0,1-.72-.71c.24-4.91.39-10,.46-15.11a.69.69,0,0,1,.76-.68.72.72,0,0,1,.74.69c-.07,5.14-.22,10.24-.46,15.16A.73.73,0,0,1,99.87,143Z"/><path class="cls-2" d="M140.37,130h0a.69.69,0,0,1-.74-.61c0-1.68,0-3.25,0-4.78a.68.68,0,0,1,.74-.61c.43,0,.75.26.76.59,0,1.55,0,3.12,0,4.82A.69.69,0,0,1,140.37,130Z"/><polygon points="128.66 97.5 132.12 102.05 114.61 111.32 109.93 101.18 128.66 97.5"/><g id="Head"><path class="cls-2" d="M113.74,62.73s0,0-.07,0c-.39,0-.77.08-1.17.14s-.82.14-1.22.23a16.17,16.17,0,0,0-10.36,8.28,15.61,15.61,0,0,0-1,2.07c-1.57,4-1.71,8.55-1.53,12.8.48,11.26,8.44,19.48,21.62,15.28a19,19,0,0,0,7.61-4.68,8.37,8.37,0,0,0,9.26-4.38c2-3.71.92-9.31-3.53-10.68a21.45,21.45,0,0,0-.46-3.3.54.54,0,0,1,0-.1C130.68,68.69,122.4,62.12,113.74,62.73Z"/><path d="M135.24,96.05A9.25,9.25,0,0,1,128,97.94a20.2,20.2,0,0,1-7.64,4.57c-6.15,1.95-11.61,1.43-15.81-1.5s-6.86-8.34-7.13-14.72c-.17-3.84-.14-8.81,1.59-13.22a16.84,16.84,0,0,1,1-2.19,17.06,17.06,0,0,1,11-8.77c.4-.09.81-.17,1.22-.24s.9-.11,1.31-.15h.15c9.22-.61,17.88,6.45,20.15,16.45a19.43,19.43,0,0,1,.46,2.9,7.23,7.23,0,0,1,3.92,4A9.38,9.38,0,0,1,137.8,93,10.42,10.42,0,0,1,135.24,96.05Zm-7.93-.3.53.1A7.33,7.33,0,0,0,136,92a7.42,7.42,0,0,0,.35-6.1,5.22,5.22,0,0,0-3.29-3.11l-.68-.21,0-.7a19.27,19.27,0,0,0-.42-3.07l0-.15c-2.06-9.07-9.84-15.46-18.09-14.88h-.15l-1,.12c-.39.07-.77.13-1.13.21a15.12,15.12,0,0,0-9.69,7.78,14.91,14.91,0,0,0-.92,1.94c-1.59,4.06-1.61,8.76-1.46,12.39.25,5.74,2.53,10.53,6.27,13.14s8.5,3,14,1.22a18,18,0,0,0,7.2-4.43Z"/><circle cx="112.1" cy="83.18" r="1.36"/><path d="M103.78,91a31.24,31.24,0,0,1,.48-9.05c.17-.86,1.51-.64,1.34.22a30.66,30.66,0,0,0-.47,8.71A.68.68,0,0,1,103.78,91Z"/><path d="M125.92,89.4a6.93,6.93,0,0,1,7.85-3.52c.85.22.63,1.56-.22,1.34A5.57,5.57,0,0,0,127.16,90C126.75,90.72,125.51,90.17,125.92,89.4Z"/><path d="M133.65,81.79a7.35,7.35,0,0,1-1.25.76s-5-.72-6.22-.17c-6.14-2.44-7-3.16-10.77-7-2.48-1.3-9.91.51-15.46-2A2.52,2.52,0,0,1,100,70.3c2.26-4.07,6.72-6.17,11.26-7.2.4-.09.81-.16,1.22-.23s.78-.1,1.17-.14c0,0,0,0,.07,0C122.92,62,134.11,68.17,133.65,81.79Z"/><path d="M122.86,54.29c-7.39,5.46-8,15.35-3,22.54a5.28,5.28,0,0,0,3.7,2.37c3.18,1.64,7.28,1.49,11,0l.09.08a7.56,7.56,0,0,0,5.46,1.32,7.93,7.93,0,0,0,6.54-7.22A7.57,7.57,0,0,0,145.05,68,12.5,12.5,0,0,0,144,58.17C139.74,50.59,129.61,49.31,122.86,54.29Z"/></g><path d="M67.61,118.51s6.22,7.32,19.4,7.87l-4.18,13.81S73.2,134.74,68.73,129c-1-1.22-3.62-5.21-3.62-5.21Z"/></svg>