<svg width="35" height="38" viewBox="0 0 35 38" fill="none" xmlns="http://www.w3.org/2000/svg">
<path d="M8.83294 2.45212V3.69401V4.19401H9.33294H22.2H22.7V3.69401V2.45212C22.7 1.95859 22.8664 1.54518 23.1992 1.2119C23.5321 0.878624 23.9434 0.711403 24.4334 0.710242C24.9234 0.70908 25.3353 0.876301 25.6693 1.2119C26.0033 1.54751 26.1691 1.96091 26.1668 2.45212V3.69401V4.19401H26.6668H27.9002C28.8535 4.19401 29.67 4.53541 30.3495 5.21823C31.0289 5.90105 31.3681 6.7209 31.367 7.67777L8.83294 2.45212ZM26.1673 36.7898H26.1668C23.9019 36.7898 21.9859 35.9933 20.3903 34.3888C18.7945 32.7841 18.001 30.8573 17.9999 28.5801C17.9988 26.3033 18.7922 24.3768 20.3901 22.7721C21.9882 21.1674 23.9044 20.3709 26.1668 20.3709C28.4292 20.3709 30.3461 21.1674 31.9453 22.7723C33.5443 24.3768 34.337 26.3031 34.3337 28.5796C34.3304 30.8572 33.5367 32.7849 31.9429 34.3909C30.3499 35.9961 28.4343 36.792 26.1673 36.7898ZM27.5335 28.0256V24.2257C27.5335 23.8529 27.3885 23.5252 27.1279 23.2633C26.8673 23.0014 26.54 22.8547 26.1668 22.8547C25.7936 22.8547 25.4663 23.0014 25.2057 23.2633C24.9451 23.5252 24.8001 23.8529 24.8001 24.2257V28.1884C24.8001 28.4846 24.8557 28.7724 24.9654 29.0488C25.0782 29.333 25.247 29.5855 25.4663 29.8046C25.4665 29.8048 25.4667 29.805 25.4669 29.8052L28.1091 32.4604C28.3697 32.7222 28.697 32.869 29.0702 32.869C29.4434 32.869 29.7707 32.7222 30.0313 32.4604C30.2919 32.1985 30.4369 31.8707 30.4369 31.498C30.4369 31.1253 30.2919 30.7975 30.0313 30.5357L27.5335 28.0256Z" stroke="black"/>
</svg>
