<svg width="34" height="19" viewBox="0 0 34 19" fill="none" xmlns="http://www.w3.org/2000/svg">
<mask id="path-1-inside-1_321_43" fill="white">
<path d="M15.1329 8.46351C14.704 8.46351 14.3513 8.2357 14.0749 7.78008C13.7984 7.32447 13.6947 6.79267 13.7639 6.18471L14.0749 3.43407C14.1999 2.43255 14.5434 1.61018 15.1055 0.966956C15.6675 0.322318 16.3012 0 17.0066 0C17.7292 0 18.3715 0.322318 18.9336 0.966956C19.4956 1.61018 19.8392 2.43255 19.9642 3.43407L20.2752 6.18471C20.3433 6.79126 20.2396 7.32305 19.9642 7.78008C19.6877 8.2357 19.3351 8.46351 18.9062 8.46351H15.1329ZM15.2854 6.34763H18.7537L18.4488 3.75568C18.398 3.26198 18.2328 2.8656 17.9533 2.56656C17.6738 2.26752 17.3562 2.11729 17.0005 2.11588C16.6447 2.11588 16.3337 2.26611 16.0674 2.56656C15.8012 2.86702 15.6421 3.26339 15.5903 3.75568L15.2854 6.34763ZM4.43212 9.91712C4.02151 9.95239 3.66171 9.84306 3.35274 9.58916C3.04376 9.33525 2.84252 8.94241 2.74902 8.41062C2.6982 8.17505 2.69058 7.94583 2.72615 7.72295C2.76071 7.50008 2.80949 7.28426 2.87251 7.0755C2.87251 7.10089 2.8598 7.04799 2.83439 6.91681C2.80288 6.84628 2.71497 6.54512 2.57065 6.01333C2.53914 5.69876 2.5676 5.40748 2.65602 5.13947C2.74546 4.87146 2.86133 4.63942 3.00362 4.44334C3.02394 4.44334 3.0397 4.42218 3.05088 4.37987C3.08848 3.90309 3.23331 3.50248 3.48537 3.17805C3.73743 2.85361 4.03929 2.6914 4.39095 2.6914C4.40823 2.6914 4.58101 2.73371 4.9093 2.81835L4.99467 2.80777C5.0831 2.67235 5.19744 2.57079 5.3377 2.50308C5.47795 2.43537 5.62736 2.40152 5.78591 2.40152C5.98918 2.40152 6.16908 2.44243 6.3256 2.52424C6.48212 2.60747 6.60561 2.74852 6.69607 2.94742C6.71436 2.94742 6.72808 2.95447 6.73723 2.96858C6.74638 2.98268 6.75959 2.98974 6.77687 2.98974C7.01571 3.025 7.23271 3.13503 7.42785 3.31981C7.62401 3.5046 7.76884 3.75709 7.86234 4.0773C7.89283 4.26914 7.90706 4.43911 7.90503 4.58722C7.90198 4.73534 7.87505 4.88838 7.82423 5.04637C7.82423 5.05342 7.83693 5.10985 7.86234 5.21564C8.00057 5.40889 8.10119 5.60073 8.1642 5.79116C8.2262 5.983 8.2572 6.1967 8.2572 6.43227C8.2572 6.49292 8.21045 6.75529 8.11694 7.21938C8.11084 7.23489 8.11084 7.29132 8.11694 7.38865C8.13727 7.47046 8.15251 7.67147 8.16268 7.99167C8.16268 8.51923 8.00362 8.97203 7.6855 9.35006C7.36737 9.7281 6.97963 9.91712 6.52227 9.91712H4.43212ZM28.4772 10.0906C27.8837 10.0906 27.3714 9.7944 26.9405 9.20195C26.5096 8.60951 26.2941 7.89646 26.2941 7.0628C26.2941 6.75953 26.3256 6.47741 26.3886 6.21645C26.4506 5.9569 26.5355 5.703 26.6432 5.45473L25.8779 4.53433C25.696 4.33684 25.6645 4.08788 25.7834 3.78742C25.9013 3.48697 26.069 3.33674 26.2865 3.33674H28.4696C29.0693 3.33674 29.58 3.63014 30.0018 4.21695C30.4226 4.80234 30.633 5.50763 30.633 6.33282V7.07973C30.633 7.89081 30.4221 8.59611 30.0003 9.19561C29.5775 9.79228 29.0708 10.0906 28.4772 10.0906ZM0.230469 16.6012V16.3198C0.230469 15.0136 0.727979 13.9338 1.723 13.0804C2.71802 12.227 4.0088 11.8003 5.59534 11.8003C5.88704 11.8003 6.16552 11.8158 6.43079 11.8468C6.69708 11.8778 6.95016 11.9286 7.19002 11.9991C6.9715 12.5422 6.80278 13.1121 6.68387 13.7088C6.56394 14.3055 6.50397 14.9416 6.50397 15.6173V18.1479H1.34491C1.02984 18.1479 0.765584 17.9998 0.552148 17.7036C0.337695 17.4073 0.230469 17.0385 0.230469 16.6012ZM9.37774 16.4383V15.7675C9.37774 14.0184 10.0826 12.6283 11.4923 11.5971C12.902 10.566 14.7406 10.0504 17.0081 10.0504C19.298 10.0504 21.1396 10.5653 22.533 11.595C23.9265 12.629 24.6232 14.0205 24.6232 15.7696V16.4404C24.6232 16.9256 24.5053 17.3319 24.2695 17.6591C24.0337 17.9864 23.741 18.15 23.3914 18.15H10.6218C10.2599 18.15 9.96215 17.9864 9.72839 17.6591C9.49462 17.3319 9.37774 16.9256 9.37774 16.4404M28.4346 11.8024C30.0353 11.8024 31.3251 12.2291 32.3039 13.0825C33.2826 13.9359 33.7715 15.015 33.7705 16.3198V16.6012C33.7705 17.0385 33.6637 17.4052 33.4503 17.7014C33.2369 17.9977 32.9726 18.1458 32.6575 18.1458H27.497V15.6109C27.497 14.9339 27.4436 14.2984 27.3369 13.7045C27.2302 13.1107 27.0701 12.5422 26.8567 11.9991C27.0975 11.9286 27.3516 11.8778 27.6189 11.8468C27.8842 11.8158 28.1561 11.8003 28.4346 11.8003M15.2854 6.34763L15.5903 3.75568C15.6421 3.26339 15.8012 2.86702 16.0674 2.56656C16.3337 2.26611 16.6447 2.11588 17.0005 2.11588C17.3562 2.11729 17.6738 2.26752 17.9533 2.56656C18.2328 2.8656 18.398 3.26198 18.4488 3.75568L18.7537 6.34763H15.2854Z"/>
</mask>
<path d="M15.2854 6.34763L14.7888 6.28922L14.7231 6.84763H15.2854V6.34763ZM18.7537 6.34763V6.84763H19.316L19.2503 6.28922L18.7537 6.34763ZM18.4488 3.75568L17.9514 3.80688L17.9522 3.8141L18.4488 3.75568ZM17.0005 2.11588L17.0025 1.61588H17.0005V2.11588ZM15.5903 3.75568L16.0869 3.8141L16.0875 3.80804L15.5903 3.75568ZM15.2854 6.84763H18.7537V5.84763H15.2854V6.84763ZM19.2503 6.28922L18.9454 3.69727L17.9522 3.8141L18.2571 6.40605L19.2503 6.28922ZM18.9462 3.70449C18.8866 3.1259 18.6874 2.61972 18.3186 2.22515L17.588 2.90798C17.7782 3.11149 17.9093 3.39805 17.9514 3.80688L18.9462 3.70449ZM18.3186 2.22515C17.9605 1.84204 17.5171 1.61792 17.0025 1.61588L16.9985 2.61587C17.1952 2.61665 17.3871 2.69299 17.588 2.90798L18.3186 2.22515ZM17.0005 1.61588C16.4824 1.61588 16.0409 1.84271 15.6933 2.23492L16.4416 2.8982C16.6266 2.6895 16.8071 2.61588 17.0005 2.61588V1.61588ZM15.6933 2.23492C15.3431 2.62997 15.1532 3.13187 15.093 3.70333L16.0875 3.80804C16.131 3.39491 16.2592 3.10406 16.4416 2.8982L15.6933 2.23492ZM15.0937 3.69727L14.7888 6.28922L15.7819 6.40605L16.0868 3.8141L15.0937 3.69727ZM13.7639 6.18471L14.7575 6.29766L14.7575 6.29706L13.7639 6.18471ZM14.0749 3.43407L13.0825 3.3102L13.0812 3.32172L14.0749 3.43407ZM15.1055 0.966956L15.8585 1.62495L15.8592 1.62413L15.1055 0.966956ZM18.9336 0.966956L18.1799 1.62413L18.1806 1.62495L18.9336 0.966956ZM19.9642 3.43407L20.9579 3.32171L20.9565 3.31021L19.9642 3.43407ZM20.2752 6.18471L21.2689 6.07314L21.2689 6.07236L20.2752 6.18471ZM19.9642 7.78008L20.8191 8.29883L20.8207 8.29626L19.9642 7.78008ZM4.43212 9.91712V8.91712H4.38925L4.34655 8.92079L4.43212 9.91712ZM2.74902 8.41062L3.73391 8.23744L3.73058 8.21852L3.72653 8.19974L2.74902 8.41062ZM2.72615 7.72295L3.71366 7.88057L3.71434 7.87617L2.72615 7.72295ZM2.87251 7.0755H3.87251L1.91517 6.78653L2.87251 7.0755ZM2.83439 6.91681L3.81615 6.72665L3.7943 6.61384L3.74743 6.50893L2.83439 6.91681ZM2.57065 6.01333L1.57562 6.11299L1.58387 6.19535L1.60556 6.27524L2.57065 6.01333ZM2.65602 5.13947L1.70744 4.82291L1.70637 4.82615L2.65602 5.13947ZM3.00362 4.44334V3.44334H2.49375L2.19428 3.856L3.00362 4.44334ZM3.05088 4.37987L4.01771 4.6353L4.0407 4.54825L4.04778 4.4585L3.05088 4.37987ZM4.9093 2.81835L4.65965 3.78669L4.84368 3.83413L5.03228 3.81076L4.9093 2.81835ZM4.99467 2.80777L5.11765 3.80018L5.57823 3.7431L5.83198 3.35451L4.99467 2.80777ZM6.3256 2.52424L6.79509 1.64128L6.78884 1.63801L6.3256 2.52424ZM6.69607 2.94742L5.78579 3.36141L6.0523 3.94742H6.69607V2.94742ZM6.77687 2.98974L6.92293 2.00046L6.85029 1.98974H6.77687V2.98974ZM7.42785 3.31981L6.74027 4.04593L6.74215 4.0477L7.42785 3.31981ZM7.86234 4.0773L8.84995 3.92033L8.84 3.85778L8.82225 3.79699L7.86234 4.0773ZM7.90503 4.58722L8.90484 4.60781L8.90494 4.60095L7.90503 4.58722ZM7.82423 5.04637L6.87227 4.74016L6.82423 4.8895V5.04637H7.82423ZM7.86234 5.21564L6.88999 5.44917L6.93554 5.63879L7.04899 5.79741L7.86234 5.21564ZM8.1642 5.79116L9.11577 5.48363L9.11357 5.477L8.1642 5.79116ZM8.11694 7.21938L9.04764 7.58515L9.07985 7.50321L9.09724 7.41689L8.11694 7.21938ZM8.11694 7.38865L7.1189 7.45118L7.12457 7.54172L7.14645 7.62977L8.11694 7.38865ZM8.16268 7.99167H9.16268V7.97581L9.16218 7.95995L8.16268 7.99167ZM6.52227 9.91712V10.9171V9.91712ZM26.3886 6.21645L27.3607 6.45118L27.3613 6.44878L26.3886 6.21645ZM26.6432 5.45473L27.5606 5.85282L27.8055 5.28844L27.4121 4.81538L26.6432 5.45473ZM25.8779 4.53433L26.6468 3.89497L26.6306 3.87545L26.6134 3.85677L25.8779 4.53433ZM25.7834 3.78742L26.7132 4.15543L26.7143 4.1527L25.7834 3.78742ZM30.0018 4.21695L30.8138 3.63329L30.8138 3.63329L30.0018 4.21695ZM30.0003 9.19561L30.8162 9.77377L30.8181 9.77103L30.0003 9.19561ZM6.43079 11.8468L6.3146 12.84L6.31504 12.8401L6.43079 11.8468ZM7.19002 11.9991L8.11773 12.3724L8.52893 11.3505L7.47212 11.0398L7.19002 11.9991ZM6.68387 13.7088L7.66426 13.9058L7.66458 13.9042L6.68387 13.7088ZM6.50397 18.1479V19.1479H7.50397V18.1479H6.50397ZM0.552148 17.7036L1.36348 17.119L1.36216 17.1171L0.552148 17.7036ZM22.533 11.595L23.1289 10.7919L23.1274 10.7908L22.533 11.595ZM33.7705 16.3198L32.7705 16.319V16.3198H33.7705ZM27.497 18.1458H26.497V19.1458H27.497V18.1458ZM26.8567 11.9991L26.5757 11.0394L25.5258 11.3468L25.926 12.3649L26.8567 11.9991ZM27.6189 11.8468L27.7342 12.8401L27.7351 12.84L27.6189 11.8468ZM15.1329 7.46351C15.1153 7.46351 15.1074 7.46134 15.1053 7.46075C15.1035 7.46021 15.0987 7.45875 15.0893 7.45266C15.0695 7.43988 15.0101 7.39361 14.9298 7.26135L13.2199 8.29882C13.6268 8.96945 14.2665 9.46351 15.1329 9.46351V7.46351ZM14.9298 7.26135C14.7849 7.02252 14.7095 6.71964 14.7575 6.29766L12.7703 6.07176C12.68 6.86571 12.8119 7.62641 13.2199 8.29882L14.9298 7.26135ZM14.7575 6.29706L15.0685 3.54642L13.0812 3.32172L12.7702 6.07236L14.7575 6.29706ZM15.0672 3.55793C15.1721 2.71764 15.4501 2.09235 15.8585 1.62495L14.3524 0.308965C13.6368 1.12801 13.2277 2.14747 13.0826 3.31021L15.0672 3.55793ZM15.8592 1.62413C16.2754 1.14681 16.6511 1 17.0066 1V-1C15.9514 -1 15.0596 -0.502171 14.3517 0.309782L15.8592 1.62413ZM17.0066 1C17.3866 1 17.7694 1.15336 18.1799 1.62413L19.6873 0.309782C18.9737 -0.508724 18.0718 -1 17.0066 -1V1ZM18.1806 1.62495C18.589 2.09235 18.867 2.71764 18.9719 3.55793L20.9565 3.31021C20.8113 2.14747 20.4023 1.12801 19.6866 0.308965L18.1806 1.62495ZM18.9705 3.54642L19.2815 6.29706L21.2689 6.07236L20.9579 3.32172L18.9705 3.54642ZM19.2814 6.29628C19.3287 6.71709 19.2536 7.02185 19.1077 7.26391L20.8207 8.29626C21.2257 7.62426 21.3579 6.86544 21.2689 6.07314L19.2814 6.29628ZM19.1092 7.26135C19.029 7.39361 18.9695 7.43988 18.9497 7.45266C18.9403 7.45875 18.9356 7.46021 18.9337 7.46075C18.9317 7.46134 18.9238 7.46351 18.9062 7.46351V9.46351C19.7725 9.46351 20.4122 8.96945 20.8191 8.29882L19.1092 7.26135ZM18.9062 7.46351H15.1329V9.46351H18.9062V7.46351ZM4.34655 8.92079C4.18725 8.93447 4.08812 8.89914 3.98763 8.81656L2.71784 10.3618C3.23531 10.787 3.85576 10.9703 4.51768 10.9135L4.34655 8.92079ZM3.98763 8.81656C3.91912 8.76026 3.80062 8.61687 3.73391 8.23744L1.76413 8.58379C1.88442 9.26795 2.16841 9.91025 2.71784 10.3618L3.98763 8.81656ZM3.72653 8.19974C3.70006 8.07704 3.6989 7.97296 3.71365 7.88057L1.73865 7.56534C1.68225 7.91869 1.69634 8.27305 1.7715 8.62149L3.72653 8.19974ZM3.71434 7.87617C3.74202 7.69765 3.78071 7.52726 3.82985 7.36446L1.91517 6.78653C1.83828 7.04126 1.77939 7.30252 1.73796 7.56974L3.71434 7.87617ZM1.87251 7.0755C1.87251 7.06117 1.87274 7.0248 1.8775 6.97809C1.87988 6.95466 1.88485 6.91371 1.89602 6.86349C1.90485 6.82377 1.92962 6.72046 1.99417 6.60222C2.04743 6.50464 2.23407 6.20348 2.6445 6.10779C3.08262 6.00563 3.39946 6.22013 3.51106 6.31306C3.62892 6.4112 3.6948 6.51285 3.71779 6.5495C3.74777 6.59729 3.76748 6.63784 3.77796 6.66054C3.79898 6.70605 3.81161 6.74276 3.81632 6.75673C3.82233 6.77454 3.82645 6.78856 3.82862 6.79612C3.83289 6.81108 3.83522 6.8209 3.83533 6.82133C3.83574 6.82306 3.83422 6.81671 3.8303 6.79777C3.82668 6.78028 3.82199 6.75683 3.81615 6.72665L1.85264 7.10696C1.86529 7.17226 1.87852 7.23799 1.89063 7.2884C1.89391 7.30205 1.89902 7.32266 1.90568 7.34594C1.90771 7.35305 1.92629 7.42124 1.96228 7.49918C1.97317 7.52274 1.99325 7.564 2.02358 7.61234C2.04692 7.64955 2.11311 7.75159 2.23127 7.84998C2.34317 7.94316 2.66028 8.15775 3.09865 8.05554C3.50933 7.95979 3.69619 7.65842 3.74966 7.56048C3.85609 7.3655 3.86715 7.18124 3.86722 7.18059C3.87217 7.13193 3.87251 7.093 3.87251 7.0755H1.87251ZM3.74743 6.50893C3.76451 6.54716 3.7678 6.56315 3.75225 6.51477C3.74119 6.48034 3.72553 6.42898 3.70476 6.35781C3.66342 6.2162 3.60727 6.015 3.53574 5.75141L1.60556 6.27524C1.67834 6.54344 1.73832 6.75872 1.78489 6.91826C1.82148 7.0436 1.87143 7.21292 1.92136 7.32468L3.74743 6.50893ZM3.56567 5.91366C3.54643 5.72163 3.56611 5.57269 3.60567 5.45278L1.70637 4.82615C1.56908 5.24227 1.53184 5.6759 1.57562 6.11299L3.56567 5.91366ZM3.60459 5.45602C3.66696 5.26915 3.73963 5.13172 3.81295 5.03069L2.19428 3.856C1.98302 4.14711 1.82396 4.47377 1.70745 4.82291L3.60459 5.45602ZM3.00362 5.44334C3.42041 5.44334 3.69782 5.20594 3.83278 5.02465C3.95086 4.86606 3.99817 4.70925 4.01771 4.6353L2.08405 4.12444C2.09241 4.0928 2.12625 3.96773 2.22857 3.8303C2.34778 3.67017 2.60715 3.44334 3.00362 3.44334V5.44334ZM4.04778 4.4585C4.07261 4.14374 4.16147 3.93777 4.27506 3.79156L2.69569 2.56453C2.30516 3.0672 2.10436 3.66244 2.05397 4.30124L4.04778 4.4585ZM4.27506 3.79156C4.33219 3.71803 4.36813 3.69718 4.37418 3.69392C4.37616 3.69286 4.37717 3.69247 4.37732 3.69241C4.37747 3.69235 4.37743 3.69237 4.37745 3.69236C4.37748 3.69235 4.37827 3.69215 4.38012 3.69193C4.382 3.69171 4.38551 3.6914 4.39095 3.6914V1.6914C3.67635 1.6914 3.10128 2.04248 2.69569 2.56453L4.27506 3.79156ZM4.39095 3.6914C4.34607 3.6914 4.31109 3.68828 4.29553 3.68676C4.27699 3.68494 4.26225 3.68295 4.25342 3.68167C4.23607 3.67918 4.22355 3.67684 4.21958 3.67609C4.21096 3.67447 4.20826 3.67377 4.21574 3.67543C4.2292 3.67843 4.25467 3.6844 4.29561 3.69443C4.37601 3.71412 4.4966 3.74465 4.65965 3.78669L5.15895 1.85001C4.99371 1.80741 4.86377 1.77447 4.77138 1.75184C4.72594 1.74071 4.68446 1.73082 4.6504 1.72323C4.63412 1.71961 4.61252 1.71494 4.58986 1.71067C4.57887 1.7086 4.56055 1.70527 4.53861 1.70211C4.52993 1.70086 4.46829 1.6914 4.39095 1.6914V3.6914ZM5.03228 3.81076L5.11765 3.80018L4.87169 1.81536L4.78632 1.82594L5.03228 3.81076ZM5.83198 3.35451C5.83042 3.35689 5.82378 3.36619 5.81084 3.37769C5.79771 3.38935 5.7839 3.3981 5.77243 3.40364L4.90296 1.60252C4.59235 1.75247 4.34129 1.97937 4.15737 2.26103L5.83198 3.35451ZM5.77243 3.40364C5.77421 3.40278 5.77519 3.40243 5.77547 3.40233C5.77575 3.40223 5.77585 3.40221 5.77593 3.40219C5.77602 3.40217 5.77663 3.40203 5.77798 3.40188C5.77935 3.40173 5.78192 3.40152 5.78591 3.40152V1.40152C5.47962 1.40152 5.18131 1.46816 4.90296 1.60252L5.77243 3.40364ZM5.78591 3.40152C5.82042 3.40152 5.8413 3.40498 5.85156 3.40731C5.86126 3.40952 5.86378 3.41122 5.86236 3.41048L6.78884 1.63801C6.46911 1.47088 6.12602 1.40152 5.78591 1.40152V3.40152ZM5.85612 3.40719C5.82119 3.38861 5.79673 3.3666 5.78319 3.35115C5.77106 3.33728 5.77445 3.33648 5.78579 3.36141L7.60635 2.53342C7.44635 2.18163 7.1879 1.85017 6.79508 1.6413L5.85612 3.40719ZM6.69607 3.94742C6.57561 3.94742 6.4215 3.92361 6.26291 3.84209C6.10079 3.75875 5.97982 3.63853 5.8982 3.51266L7.57626 2.42449C7.3642 2.09749 7.01768 1.94742 6.69607 1.94742V3.94742ZM5.8982 3.51266C6.09779 3.82045 6.43205 3.98974 6.77687 3.98974V1.98974C6.90711 1.98974 7.06576 2.01731 7.22492 2.10227C7.38523 2.18785 7.50021 2.30721 7.57626 2.42449L5.8982 3.51266ZM6.6308 3.97901C6.64365 3.98091 6.6767 3.98572 6.74027 4.04592L8.11543 2.5937C7.78872 2.28433 7.38778 2.06909 6.92293 2.00046L6.6308 3.97901ZM6.74215 4.0477C6.78117 4.08446 6.84706 4.168 6.90243 4.35761L8.82225 3.79699C8.69061 3.34619 8.46684 2.92474 8.11354 2.59192L6.74215 4.0477ZM6.87474 4.23427C6.89885 4.38599 6.90617 4.49697 6.90512 4.5735L8.90494 4.60095C8.90795 4.38125 8.88681 4.15229 8.84995 3.92033L6.87474 4.23427ZM6.90524 4.56664C6.90441 4.60686 6.89689 4.66361 6.87227 4.74016L8.77619 5.35258C8.85321 5.11316 8.89955 4.86381 8.90482 4.60781L6.90524 4.56664ZM6.82423 5.04637C6.82423 5.10745 6.83004 5.15526 6.83151 5.16749C6.8339 5.18741 6.83644 5.20356 6.83797 5.21292C6.84108 5.2319 6.84422 5.248 6.84606 5.25716C6.84997 5.27671 6.85438 5.29676 6.85818 5.31363C6.86612 5.34888 6.87696 5.39491 6.88999 5.44917L8.83469 4.98211C8.82231 4.93057 8.8141 4.8955 8.80933 4.87432C8.80678 4.86298 8.80643 4.86099 8.80717 4.86467C8.80741 4.8659 8.80937 4.8756 8.81168 4.88973C8.81282 4.89667 8.81505 4.91079 8.81725 4.92905C8.81837 4.9384 8.81989 4.95223 8.82121 4.9691C8.82242 4.9845 8.82423 5.01195 8.82423 5.04637H6.82423ZM7.04899 5.79741C7.13915 5.92347 7.18864 6.02615 7.21483 6.10531L9.11357 5.477C9.01374 5.17531 8.86198 4.89431 8.6757 4.63387L7.04899 5.79741ZM7.21266 6.09868C7.23767 6.17606 7.2572 6.28395 7.2572 6.43227H9.2572C9.2572 6.10946 9.21473 5.78994 9.11575 5.48364L7.21266 6.09868ZM7.2572 6.43227C7.2572 6.40623 7.25837 6.38682 7.25896 6.3781C7.25963 6.36823 7.2603 6.36174 7.2605 6.35983C7.26086 6.35643 7.26057 6.35972 7.25875 6.37234C7.25512 6.39741 7.24845 6.43845 7.23764 6.4991C7.21621 6.61936 7.18286 6.79248 7.13664 7.02186L9.09724 7.41689C9.14453 7.18219 9.1813 6.99208 9.20663 6.84997C9.22318 6.75707 9.2572 6.57239 9.2572 6.43227H7.2572ZM7.18624 6.8536C7.12772 7.00249 7.11879 7.13407 7.11708 7.15422C7.11301 7.2023 7.11237 7.2448 7.11237 7.27333C7.11237 7.33206 7.11533 7.3943 7.1189 7.45118L9.11498 7.32611C9.11245 7.28566 9.11237 7.27103 9.11237 7.27333C9.11237 7.27365 9.11249 7.29305 9.10994 7.32315C9.10864 7.33848 9.10584 7.36647 9.09952 7.40204C9.09424 7.43176 9.08073 7.50097 9.04764 7.58515L7.18624 6.8536ZM7.14645 7.62977C7.13774 7.59472 7.13667 7.57822 7.13905 7.59715C7.1408 7.61103 7.14346 7.63644 7.14649 7.67639C7.15255 7.75638 7.15833 7.87052 7.16318 8.0234L9.16218 7.95995C9.15317 7.67622 9.13898 7.35498 9.08744 7.14752L7.14645 7.62977ZM7.16268 7.99167C7.16268 8.30088 7.07605 8.52118 6.92036 8.70619L8.45063 9.99393C8.93118 9.42287 9.16268 8.73758 9.16268 7.99167H7.16268ZM6.92036 8.70619C6.77491 8.87904 6.65863 8.91712 6.52227 8.91712V10.9171C7.30063 10.9171 7.95984 10.5772 8.45063 9.99393L6.92036 8.70619ZM6.52227 8.91712H4.43212V10.9171H6.52227V8.91712ZM28.4772 9.09062C28.2792 9.09062 28.0413 9.01534 27.7492 8.61372L26.1318 9.79019C26.7016 10.5735 27.4882 11.0906 28.4772 11.0906V9.09062ZM27.7492 8.61372C27.4593 8.21523 27.2941 7.71546 27.2941 7.0628H25.2941C25.2941 8.07746 25.5598 9.00379 26.1318 9.79019L27.7492 8.61372ZM27.2941 7.0628C27.2941 6.82856 27.3184 6.62609 27.3607 6.45118L25.4166 5.98172C25.3328 6.32872 25.2941 6.69049 25.2941 7.0628H27.2941ZM27.3613 6.44878C27.4095 6.2468 27.4757 6.04832 27.5606 5.85282L25.7259 5.05665C25.5952 5.35768 25.4917 5.667 25.416 5.98412L27.3613 6.44878ZM27.4121 4.81538L26.6468 3.89497L25.109 5.17368L25.8743 6.09409L27.4121 4.81538ZM26.6134 3.85677C26.6297 3.87449 26.652 3.9038 26.6719 3.94524C26.692 3.98728 26.7046 4.03164 26.7099 4.07394C26.7205 4.15789 26.6984 4.19291 26.7132 4.15543L24.8535 3.41941C24.7495 3.68239 24.6836 3.99212 24.7257 4.32504C24.7694 4.67046 24.921 4.97158 25.1424 5.21188L26.6134 3.85677ZM26.7143 4.1527C26.7392 4.08912 26.7366 4.12996 26.6648 4.19425C26.6254 4.22954 26.5691 4.26806 26.496 4.29656C26.4224 4.32528 26.3498 4.33674 26.2865 4.33674V2.33674C25.4658 2.33674 25.0355 2.95581 24.8525 3.42214L26.7143 4.1527ZM26.2865 4.33674H28.4696V2.33674H26.2865V4.33674ZM28.4696 4.33674C28.6793 4.33674 28.9123 4.41452 29.1898 4.8006L30.8138 3.63329C30.2477 2.84576 29.4592 2.33674 28.4696 2.33674V4.33674ZM29.1898 4.8006C29.4712 5.19206 29.633 5.68562 29.633 6.33282H31.633C31.633 5.32964 31.374 4.41261 30.8138 3.63329L29.1898 4.8006ZM29.633 6.33282V7.07973H31.633V6.33282H29.633ZM29.633 7.07973C29.633 7.70777 29.4731 8.207 29.1824 8.62018L30.8181 9.77103C31.371 8.98522 31.633 8.07386 31.633 7.07973H29.633ZM29.1843 8.61744C28.8994 9.01956 28.6693 9.09062 28.4772 9.09062V11.0906C29.4723 11.0906 30.2555 10.565 30.8162 9.77377L29.1843 8.61744ZM1.23047 16.6012V16.3198H-0.769531V16.6012H1.23047ZM1.23047 16.3198C1.23047 15.3066 1.5996 14.5036 2.37402 13.8394L1.07197 12.3213C-0.143639 13.3639 -0.769531 14.7205 -0.769531 16.3198H1.23047ZM2.37402 13.8394C3.1516 13.1725 4.19521 12.8003 5.59534 12.8003V10.8003C3.8224 10.8003 2.28444 11.2814 1.07197 12.3213L2.37402 13.8394ZM5.59534 12.8003C5.85171 12.8003 6.09123 12.8139 6.3146 12.84L6.54699 10.8536C6.23982 10.8176 5.92237 10.8003 5.59534 10.8003V12.8003ZM6.31504 12.8401C6.52904 12.865 6.7262 12.9051 6.90792 12.9585L7.47212 11.0398C7.17412 10.9521 6.86512 10.8906 6.54655 10.8535L6.31504 12.8401ZM6.2623 11.6259C6.01975 12.2287 5.83371 12.8582 5.70316 13.5133L7.66458 13.9042C7.77186 13.366 7.92325 12.8558 8.11773 12.3724L6.2623 11.6259ZM5.70348 13.5117C5.56917 14.1799 5.50397 14.8826 5.50397 15.6173H7.50397C7.50397 15.0007 7.55871 14.431 7.66426 13.9058L5.70348 13.5117ZM5.50397 15.6173V18.1479H7.50397V15.6173H5.50397ZM6.50397 17.1479H1.34491V19.1479H6.50397V17.1479ZM1.34491 17.1479C1.34477 17.1479 1.34681 17.1479 1.35069 17.1484C1.3546 17.1488 1.35976 17.1497 1.36583 17.1513C1.37879 17.1546 1.39054 17.1595 1.39934 17.1645C1.40776 17.1692 1.40873 17.1712 1.40283 17.1657C1.3966 17.1599 1.38287 17.1459 1.36348 17.119L-0.259184 18.2881C0.10803 18.7978 0.654042 19.1479 1.34491 19.1479V17.1479ZM1.36216 17.1171C1.29445 17.0236 1.23047 16.8713 1.23047 16.6012H-0.769531C-0.769531 17.2056 -0.619065 17.791 -0.257864 18.29L1.36216 17.1171ZM10.3777 16.4383V15.7675H8.37774V16.4383H10.3777ZM10.3777 15.7675C10.3777 14.3368 10.9309 13.2467 12.0827 12.4043L10.9019 10.79C9.23431 12.0098 8.37774 13.7 8.37774 15.7675H10.3777ZM12.0827 12.4043C13.2762 11.5312 14.8896 11.0504 17.0081 11.0504V9.05042C14.5916 9.05042 12.5278 9.60074 10.9019 10.79L12.0827 12.4043ZM17.0081 11.0504C19.1524 11.0504 20.7653 11.5321 21.9387 12.3992L23.1274 10.7908C21.514 9.5985 19.4435 9.05042 17.0081 9.05042V11.0504ZM21.9372 12.3981C23.0739 13.2416 23.6232 14.3341 23.6232 15.7696H25.6232C25.6232 13.707 24.779 12.0163 23.1289 10.7919L21.9372 12.3981ZM23.6232 15.7696V16.4404H25.6232V15.7696H23.6232ZM23.6232 16.4404C23.6232 16.7594 23.5481 16.9498 23.4582 17.0745L25.0808 18.2437C25.4625 17.714 25.6232 17.0919 25.6232 16.4404H23.6232ZM23.4582 17.0745C23.4086 17.1433 23.3807 17.1569 23.3852 17.1544C23.3869 17.1534 23.3912 17.1515 23.3961 17.1503C23.4007 17.1491 23.4001 17.15 23.3914 17.15V19.15C24.1152 19.15 24.6902 18.7859 25.0808 18.2437L23.4582 17.0745ZM23.3914 17.15H10.6218V19.15H23.3914V17.15ZM10.6218 17.15C10.6072 17.15 10.6019 17.1484 10.6032 17.1487C10.6047 17.1491 10.6072 17.1501 10.6086 17.1509C10.6132 17.1534 10.5877 17.1417 10.5421 17.0779L8.91466 18.2404C9.31184 18.7964 9.89734 19.15 10.6218 19.15V17.15ZM10.5421 17.0779C10.4528 16.9528 10.3777 16.7611 10.3777 16.4404H8.37774C8.37774 17.0901 8.53649 17.7109 8.91466 18.2404L10.5421 17.0779ZM28.4346 12.8024C29.8522 12.8024 30.8897 13.1762 31.6467 13.8362L32.961 12.3287C31.7605 11.2819 30.2185 10.8024 28.4346 10.8024V12.8024ZM31.6467 13.8362C32.4062 14.4985 32.7713 15.3018 32.7705 16.319L34.7705 16.3205C34.7717 14.7281 34.159 13.3733 32.961 12.3287L31.6467 13.8362ZM32.7705 16.3198V16.6012H34.7705V16.3198H32.7705ZM32.7705 16.6012C32.7705 16.8711 32.7071 17.0224 32.639 17.1168L34.2616 18.286C34.6204 17.7881 34.7705 17.2058 34.7705 16.6012H32.7705ZM32.639 17.1168C32.6196 17.1438 32.6059 17.1578 32.5996 17.1636C32.5937 17.1691 32.5947 17.1671 32.6031 17.1624C32.6119 17.1574 32.6237 17.1525 32.6366 17.1492C32.6427 17.1476 32.6479 17.1467 32.6518 17.1462C32.6557 17.1458 32.6577 17.1458 32.6575 17.1458V19.1458C33.3484 19.1458 33.8944 18.7957 34.2616 18.286L32.639 17.1168ZM32.6575 17.1458H27.497V19.1458H32.6575V17.1458ZM28.497 18.1458V15.6109H26.497V18.1458H28.497ZM28.497 15.6109C28.497 14.8816 28.4395 14.1865 28.3211 13.5277L26.3527 13.8814C26.4477 14.4103 26.497 14.9861 26.497 15.6109H28.497ZM28.3211 13.5277C28.2032 12.8714 28.0256 12.2395 27.7874 11.6334L25.926 12.3649C26.1146 12.8449 26.2571 13.3499 26.3527 13.8814L28.3211 13.5277ZM27.1377 12.9588C27.3206 12.9053 27.519 12.8651 27.7342 12.8401L27.5036 10.8535C27.1842 10.8906 26.8744 10.952 26.5757 11.0394L27.1377 12.9588ZM27.7351 12.84C27.9602 12.8137 28.1933 12.8003 28.4346 12.8003V10.8003C28.1189 10.8003 27.8082 10.8178 27.5027 10.8536L27.7351 12.84Z" fill="white" mask="url(#path-1-inside-1_321_43)"/>
</svg>
