<svg width="28" height="26" viewBox="0 0 28 26" fill="none" xmlns="http://www.w3.org/2000/svg">
<path d="M1.29873 12.0819C0.881156 11.3208 0.691048 10.4509 0.7584 9.57697C0.840948 8.50591 1.30476 7.49995 2.06565 6.74165L2.06626 6.74105L6.49075 2.31656C6.4908 2.3165 6.49086 2.31645 6.49091 2.3164C7.33631 1.47352 8.48141 1.0002 9.67521 1.0002C10.869 1.0002 12.0141 1.4735 12.8595 2.31636C12.8595 2.31642 12.8596 2.31649 12.8597 2.31656L13.2092 2.66605L13.5627 3.0196L13.9163 2.66605L14.2657 2.31656C14.2658 2.31649 14.2659 2.31642 14.266 2.31636C15.1113 1.4735 16.2564 1.0002 17.4502 1.0002C18.644 1.0002 19.789 1.47349 20.6344 2.31632C20.6345 2.3164 20.6346 2.31648 20.6347 2.31656L25.9336 7.61554C25.9337 7.61559 25.9338 7.61565 25.9338 7.6157C26.7767 8.4611 27.25 9.6062 27.25 10.8C27.25 11.9937 26.7768 13.1387 25.9341 13.984C25.9339 13.9842 25.9338 13.9843 25.9336 13.9845L15.6721 24.221L15.6717 24.2214C15.1787 24.7144 14.5187 24.9875 13.8127 24.9875C13.1068 24.9875 12.4467 24.7144 11.9538 24.2214C11.5442 23.8119 11.2943 23.3011 11.2211 22.7357L11.1716 22.3539L10.7898 22.3042C10.227 22.2309 9.70425 21.9736 9.30295 21.5723C8.90164 21.171 8.64431 20.6482 8.57102 20.0854L8.52133 19.7039L8.13977 19.6542C7.577 19.5809 7.05425 19.3236 6.65295 18.9223C6.25164 18.521 5.99431 17.9982 5.92102 17.4354L5.87142 17.0546L5.49067 17.0043C4.93507 16.9309 4.41195 16.6796 4.00376 16.2714L1.29873 12.0819ZM1.29873 12.0819L2.43137 10.9492C2.2578 10.4725 2.20727 9.95744 2.28747 9.45237C2.38719 8.82439 2.68386 8.24435 3.13466 7.79594C3.13483 7.79576 3.135 7.79559 3.13518 7.79542L7.55915 3.37144C8.72941 2.20118 10.6335 2.20118 11.8038 3.37144L16.2538 7.82144C16.6543 8.22201 16.7306 8.93916 16.2538 9.41605C15.777 9.89284 15.06 9.81665 14.6594 9.4163C14.6593 9.41622 14.6592 9.41613 14.6592 9.41605L10.9004 5.66876L1.29873 12.0819ZM13.0328 23.1647L13.0342 23.166C13.511 23.6429 14.2282 23.5666 14.6288 23.1661L24.8788 12.916C26.049 11.7458 26.049 9.8417 24.8788 8.67144L19.5788 3.37144C18.4085 2.20118 16.5044 2.20118 15.3342 3.37144L14.9842 3.72144L14.6306 4.075L14.9842 4.42855L17.3092 6.75355C18.3386 7.78302 18.3389 9.44083 17.31 10.4706C16.3148 11.4541 14.5808 11.461 13.5913 10.4714L13.5903 10.4705L11.2528 8.1455L10.8993 7.79384L10.5467 8.14644L5.07165 13.6214L5.07157 13.6214L5.06426 13.629C4.86058 13.8415 4.74687 14.1244 4.74687 14.4187C4.74687 14.7131 4.86058 14.996 5.06426 15.2085L5.06418 15.2086L5.07165 15.216C5.54854 15.6929 6.26569 15.6166 6.66626 15.2161L10.5515 11.3309L11.6168 12.3887L7.73415 16.2714L7.73407 16.2714L7.72676 16.279C7.52308 16.4915 7.40937 16.7744 7.40937 17.0687C7.40937 17.3631 7.52308 17.646 7.72676 17.8585L7.72668 17.8586L7.73415 17.8661C8.21104 18.3429 8.92819 18.2666 9.32876 17.8661L13.2127 13.9821L14.2681 15.0375L10.3841 18.9214L10.3828 18.9228C10.1728 19.1345 10.0549 19.4206 10.0549 19.7187C10.0549 20.0169 10.1728 20.303 10.3828 20.5147L10.388 20.5199L10.3933 20.525C10.8174 20.9278 11.5321 20.9804 11.9826 20.5122L15.8627 16.6321L16.9181 17.6875L13.0342 21.5714L13.0328 21.5728C12.8228 21.7845 12.7049 22.0706 12.7049 22.3687C12.7049 22.6669 12.8228 22.953 13.0328 23.1647Z" stroke="white"/>
</svg>
