<svg width="31" height="29" viewBox="0 0 31 29" fill="none" xmlns="http://www.w3.org/2000/svg">
<mask id="path-1-inside-1_321_46" fill="white">
<path d="M12.7373 13.2878C11.0423 13.2878 9.59128 12.6446 8.38425 11.3582C7.17722 10.0718 6.57371 8.52537 6.57371 6.71891C6.57371 4.91246 7.17722 3.36603 8.38425 2.07961C9.59128 0.793201 11.0423 0.149994 12.7373 0.149994C14.4322 0.149994 15.8832 0.793201 17.0903 2.07961C18.2973 3.36603 18.9008 4.91246 18.9008 6.71891C18.9008 8.52537 18.2973 10.0718 17.0903 11.3582C15.8832 12.6446 14.4322 13.2878 12.7373 13.2878ZM0.410156 23.1412V21.8274C0.410156 20.9242 0.628449 20.0757 1.06503 19.282C1.50162 18.4882 2.10513 17.8861 2.87558 17.4755C4.3651 16.6818 5.90599 16.0588 7.49824 15.6067C9.09049 15.1545 10.7213 14.929 12.3906 14.9301C12.8271 14.9301 13.1934 15.0943 13.4892 15.4227C13.7851 15.7512 13.9325 16.1481 13.9314 16.6134C13.9314 17.0786 13.7835 17.469 13.4877 17.7843C13.1918 18.0996 12.8261 18.2567 12.3906 18.2556C10.9524 18.2556 9.55892 18.4472 8.21013 18.8304C6.86134 19.2136 5.54542 19.7473 4.26238 20.4315C4.00556 20.5684 3.81295 20.76 3.68454 21.0063C3.55614 21.2527 3.49193 21.5264 3.49193 21.8274V23.1412H12.3906C12.8271 23.1412 13.1934 23.2989 13.4892 23.6142C13.7851 23.9295 13.9325 24.3192 13.9314 24.7834C13.9314 25.2487 13.7835 25.639 13.4877 25.9544C13.1918 26.2697 12.8266 26.4268 12.3921 26.4257H3.49193C2.64444 26.4257 1.9192 26.1043 1.3162 25.4617C0.713198 24.819 0.411184 24.0455 0.410156 23.1412ZM21.7515 26.7541L21.5203 25.6046C21.2121 25.4677 20.9235 25.3243 20.6543 25.1743C20.3852 25.0243 20.1089 24.8393 19.8253 24.6192L18.7082 24.9887C18.3743 25.0982 18.0472 25.0845 17.7267 24.9477C17.4061 24.8108 17.1555 24.5919 16.9747 24.2908L16.6665 23.716C16.4868 23.3876 16.4226 23.0317 16.4739 22.6486C16.5253 22.2654 16.6922 21.9506 16.9747 21.7043L17.8222 20.9242C17.7708 20.541 17.7451 20.1852 17.7451 19.8568C17.7451 19.5283 17.7708 19.1725 17.8222 18.7893L16.9747 18.0092C16.6922 17.7629 16.5253 17.4547 16.4739 17.0847C16.4226 16.7146 16.4868 16.3659 16.6665 16.0386L17.0132 15.4227C17.193 15.1217 17.437 14.9027 17.7451 14.7658C18.0533 14.629 18.3743 14.6153 18.7082 14.7248L19.8253 15.0943C20.1078 14.8753 20.3842 14.6903 20.6543 14.5392C20.9245 14.3881 21.2132 14.2447 21.5203 14.109L21.7515 12.9183C21.8285 12.5351 22.0021 12.2275 22.2723 11.9954C22.5424 11.7633 22.8568 11.6467 23.2153 11.6456H23.8317C24.1912 11.6456 24.506 11.7688 24.7762 12.0151C25.0464 12.2614 25.2195 12.5762 25.2955 12.9594L25.5266 14.109C25.8348 14.2458 26.1235 14.3963 26.3926 14.5606C26.6617 14.7248 26.9381 14.9301 27.2216 15.1764L28.2617 14.8069C28.6212 14.67 28.9679 14.67 29.3018 14.8069C29.6357 14.9438 29.8925 15.1764 30.0722 15.5048L30.3804 16.0796C30.5602 16.4081 30.6244 16.7639 30.573 17.1471C30.5217 17.5303 30.3547 17.845 30.0722 18.0914L29.2248 18.8714C29.2761 19.1999 29.3018 19.542 29.3018 19.8978C29.3018 20.2536 29.2761 20.5958 29.2248 20.9242L30.0722 21.7043C30.3547 21.9506 30.5217 22.2588 30.573 22.6288C30.6244 22.9989 30.5602 23.3476 30.3804 23.6749L30.0337 24.2908C29.854 24.5919 29.61 24.8108 29.3018 24.9477C28.9936 25.0845 28.6726 25.0982 28.3387 24.9887L27.2216 24.6192C26.9391 24.8382 26.6628 25.0227 26.3926 25.1727C26.1224 25.3226 25.8338 25.4666 25.5266 25.6046L25.2955 26.7952C25.2185 27.1784 25.0454 27.4866 24.7762 27.7198C24.5071 27.953 24.1922 28.069 23.8317 28.0679H23.2153C22.8558 28.0679 22.5414 27.9447 22.2723 27.6984C22.0031 27.4521 21.8295 27.1373 21.7515 26.7541ZM23.5235 23.1412C24.371 23.1412 25.0967 22.8199 25.7007 22.1772C26.3048 21.5346 26.6063 20.7611 26.6052 19.8568C26.6052 18.9535 26.3037 18.1806 25.7007 17.5379C25.0977 16.8953 24.372 16.5734 23.5235 16.5723C22.676 16.5723 21.9507 16.8942 21.3477 17.5379C20.7447 18.1817 20.4427 18.9546 20.4417 19.8568C20.4417 20.76 20.7437 21.5335 21.3477 22.1772C21.9518 22.821 22.677 23.1423 23.5235 23.1412ZM12.7373 10.0034C13.5847 10.0034 14.3105 9.68205 14.9145 9.03939C15.5186 8.39673 15.8201 7.62324 15.819 6.71891C15.819 5.81569 15.5175 5.04275 14.9145 4.40009C14.3115 3.75743 13.5858 3.43555 12.7373 3.43445C11.8898 3.43445 11.1645 3.75633 10.5615 4.40009C9.95852 5.04384 9.65651 5.81678 9.65548 6.71891C9.65548 7.62214 9.9575 8.39563 10.5615 9.03939C11.1656 9.68314 11.8908 10.0045 12.7373 10.0034Z"/>
</mask>
<path d="M12.7373 13.2878C11.0423 13.2878 9.59128 12.6446 8.38425 11.3582C7.17722 10.0718 6.57371 8.52537 6.57371 6.71891C6.57371 4.91246 7.17722 3.36603 8.38425 2.07961C9.59128 0.793201 11.0423 0.149994 12.7373 0.149994C14.4322 0.149994 15.8832 0.793201 17.0903 2.07961C18.2973 3.36603 18.9008 4.91246 18.9008 6.71891C18.9008 8.52537 18.2973 10.0718 17.0903 11.3582C15.8832 12.6446 14.4322 13.2878 12.7373 13.2878ZM0.410156 23.1412V21.8274C0.410156 20.9242 0.628449 20.0757 1.06503 19.282C1.50162 18.4882 2.10513 17.8861 2.87558 17.4755C4.3651 16.6818 5.90599 16.0588 7.49824 15.6067C9.09049 15.1545 10.7213 14.929 12.3906 14.9301C12.8271 14.9301 13.1934 15.0943 13.4892 15.4227C13.7851 15.7512 13.9325 16.1481 13.9314 16.6134C13.9314 17.0786 13.7835 17.469 13.4877 17.7843C13.1918 18.0996 12.8261 18.2567 12.3906 18.2556C10.9524 18.2556 9.55892 18.4472 8.21013 18.8304C6.86134 19.2136 5.54542 19.7473 4.26238 20.4315C4.00556 20.5684 3.81295 20.76 3.68454 21.0063C3.55614 21.2527 3.49193 21.5264 3.49193 21.8274V23.1412H12.3906C12.8271 23.1412 13.1934 23.2989 13.4892 23.6142C13.7851 23.9295 13.9325 24.3192 13.9314 24.7834C13.9314 25.2487 13.7835 25.639 13.4877 25.9544C13.1918 26.2697 12.8266 26.4268 12.3921 26.4257H3.49193C2.64444 26.4257 1.9192 26.1043 1.3162 25.4617C0.713198 24.819 0.411184 24.0455 0.410156 23.1412ZM21.7515 26.7541L21.5203 25.6046C21.2121 25.4677 20.9235 25.3243 20.6543 25.1743C20.3852 25.0243 20.1089 24.8393 19.8253 24.6192L18.7082 24.9887C18.3743 25.0982 18.0472 25.0845 17.7267 24.9477C17.4061 24.8108 17.1555 24.5919 16.9747 24.2908L16.6665 23.716C16.4868 23.3876 16.4226 23.0317 16.4739 22.6486C16.5253 22.2654 16.6922 21.9506 16.9747 21.7043L17.8222 20.9242C17.7708 20.541 17.7451 20.1852 17.7451 19.8568C17.7451 19.5283 17.7708 19.1725 17.8222 18.7893L16.9747 18.0092C16.6922 17.7629 16.5253 17.4547 16.4739 17.0847C16.4226 16.7146 16.4868 16.3659 16.6665 16.0386L17.0132 15.4227C17.193 15.1217 17.437 14.9027 17.7451 14.7658C18.0533 14.629 18.3743 14.6153 18.7082 14.7248L19.8253 15.0943C20.1078 14.8753 20.3842 14.6903 20.6543 14.5392C20.9245 14.3881 21.2132 14.2447 21.5203 14.109L21.7515 12.9183C21.8285 12.5351 22.0021 12.2275 22.2723 11.9954C22.5424 11.7633 22.8568 11.6467 23.2153 11.6456H23.8317C24.1912 11.6456 24.506 11.7688 24.7762 12.0151C25.0464 12.2614 25.2195 12.5762 25.2955 12.9594L25.5266 14.109C25.8348 14.2458 26.1235 14.3963 26.3926 14.5606C26.6617 14.7248 26.9381 14.9301 27.2216 15.1764L28.2617 14.8069C28.6212 14.67 28.9679 14.67 29.3018 14.8069C29.6357 14.9438 29.8925 15.1764 30.0722 15.5048L30.3804 16.0796C30.5602 16.4081 30.6244 16.7639 30.573 17.1471C30.5217 17.5303 30.3547 17.845 30.0722 18.0914L29.2248 18.8714C29.2761 19.1999 29.3018 19.542 29.3018 19.8978C29.3018 20.2536 29.2761 20.5958 29.2248 20.9242L30.0722 21.7043C30.3547 21.9506 30.5217 22.2588 30.573 22.6288C30.6244 22.9989 30.5602 23.3476 30.3804 23.6749L30.0337 24.2908C29.854 24.5919 29.61 24.8108 29.3018 24.9477C28.9936 25.0845 28.6726 25.0982 28.3387 24.9887L27.2216 24.6192C26.9391 24.8382 26.6628 25.0227 26.3926 25.1727C26.1224 25.3226 25.8338 25.4666 25.5266 25.6046L25.2955 26.7952C25.2185 27.1784 25.0454 27.4866 24.7762 27.7198C24.5071 27.953 24.1922 28.069 23.8317 28.0679H23.2153C22.8558 28.0679 22.5414 27.9447 22.2723 27.6984C22.0031 27.4521 21.8295 27.1373 21.7515 26.7541ZM23.5235 23.1412C24.371 23.1412 25.0967 22.8199 25.7007 22.1772C26.3048 21.5346 26.6063 20.7611 26.6052 19.8568C26.6052 18.9535 26.3037 18.1806 25.7007 17.5379C25.0977 16.8953 24.372 16.5734 23.5235 16.5723C22.676 16.5723 21.9507 16.8942 21.3477 17.5379C20.7447 18.1817 20.4427 18.9546 20.4417 19.8568C20.4417 20.76 20.7437 21.5335 21.3477 22.1772C21.9518 22.821 22.677 23.1423 23.5235 23.1412ZM12.7373 10.0034C13.5847 10.0034 14.3105 9.68205 14.9145 9.03939C15.5186 8.39673 15.8201 7.62324 15.819 6.71891C15.819 5.81569 15.5175 5.04275 14.9145 4.40009C14.3115 3.75743 13.5858 3.43555 12.7373 3.43445C11.8898 3.43445 11.1645 3.75633 10.5615 4.40009C9.95852 5.04384 9.65651 5.81678 9.65548 6.71891C9.65548 7.62214 9.9575 8.39563 10.5615 9.03939C11.1656 9.68314 11.8908 10.0045 12.7373 10.0034Z" stroke="white" stroke-width="2" mask="url(#path-1-inside-1_321_46)"/>
</svg>
