<svg width="32" height="32" viewBox="0 0 32 32" fill="none" xmlns="http://www.w3.org/2000/svg">
<path d="M26.088 3.87242H30.8056V31.0514H0.5V3.87242H5.21759H5.71759V3.37242V0.741425H8.19599V3.37242V3.87242H8.69599H22.6096H23.1096V3.37242V0.741425H25.588V3.37242V3.87242H26.088ZM2.97839 28.4204V28.9204H3.47839H27.8272H28.3272V28.4204V12.7654V12.2654H27.8272H3.47839H2.97839V12.7654V28.4204ZM14.4136 18.5274V16.3964H16.892V18.5274H14.4136ZM7.45679 18.5274V16.3964H9.93519V18.5274H7.45679ZM21.3704 18.5274V16.3964H23.8488V18.5274H21.3704ZM14.4136 24.7894V22.6584H16.892V24.7894H14.4136ZM7.45679 24.7894V22.6584H9.93519V24.7894H7.45679ZM21.3704 24.7894V22.6584H23.8488V24.7894H21.3704Z" stroke="white"/>
</svg>
