<svg width="41" height="31" viewBox="0 0 41 31" fill="none" xmlns="http://www.w3.org/2000/svg">
<path d="M12.8262 17.0258L20.155 10.192L27.4838 17.0258L25.3953 18.9733L22.5115 16.2843L21.6705 15.5001V16.6499V24.0433H18.6395V16.6499V15.5001L17.7985 16.2843L14.9147 18.9733L12.8262 17.0258ZM19.814 4.23589L19.9581 4.3702H20.155H36.279C37.2646 4.3702 38.091 4.69303 38.7859 5.34096C39.4797 5.9879 39.8111 6.74189 39.81 7.6283V7.62895V26.4227C39.81 27.3111 39.4781 28.066 38.7856 28.7129C38.0925 29.3603 37.2665 29.6826 36.2796 29.6814H36.279H4.031C3.04513 29.6814 2.21945 29.3591 1.5261 28.7126C0.833907 28.0671 0.501233 27.3123 0.5 26.4224V3.8702C0.5 2.98214 0.832255 2.22809 1.52579 1.5825C2.22081 0.93552 3.04685 0.612626 4.03128 0.61145H15.9271L19.814 4.23589ZM3.531 26.4227V26.9227H4.031H36.279H36.779V26.4227V7.62895V7.12895H36.279H18.6892L14.8022 3.50451L14.6582 3.3702H14.4612H4.031H3.531V3.8702V26.4227Z" stroke="white"/>
</svg>
