<svg width="44" height="31" viewBox="0 0 44 31" fill="none" xmlns="http://www.w3.org/2000/svg">
<path d="M40.8414 3.97904V3.97976V22.3131C40.8414 23.0668 40.5336 23.7175 39.8624 24.2868C39.1894 24.8575 38.3794 25.1474 37.4046 25.1464H37.4041H5.90591C4.93218 25.1464 4.12253 24.8565 3.44927 24.2865C2.77841 23.7185 2.46984 23.0679 2.46864 22.3128V3.97976C2.46864 3.22645 2.77667 2.57649 3.44895 2.0083C4.12387 1.43788 4.93387 1.14747 5.90617 1.14642H37.4041C38.3776 1.14642 39.188 1.43679 39.8627 2.00803C40.5352 2.57741 40.8424 3.22728 40.8414 3.97904ZM41.3414 3.97976V22.3131C41.3414 23.2298 40.9562 24.0148 40.1858 24.6681C39.4154 25.3214 38.4882 25.6475 37.4041 25.6464H5.90591C4.82316 25.6464 3.89659 25.3203 3.12619 24.6681C2.3558 24.0159 1.96995 23.2309 1.96864 22.3131L41.3414 3.97976ZM5.40591 22.3131V22.8131H5.90591H37.4041H37.9041V22.3131V3.97976V3.47976H37.4041H5.90591H5.40591V3.97976V22.3131ZM0.5 30.1464V27.8131H42.81V30.1464H0.5Z" stroke="white"/>
</svg>
