<svg width="32" height="33" viewBox="0 0 32 33" fill="none" xmlns="http://www.w3.org/2000/svg">
<path d="M3.13056 3.37239H2.63056V3.87239V24.49V25.6973L3.48413 24.8436L5.16906 23.1584H28.175H28.675V22.6584V3.87239V3.37239H28.175H3.13056ZM0.515653 3.87267V3.87239C0.515653 2.42315 1.68822 1.24139 3.13056 1.24139H28.175C29.6206 1.24139 30.8056 2.42642 30.8056 3.87239V22.6584C30.8056 24.1044 29.6206 25.2894 28.175 25.2894H6.26111H6.05398L5.90753 25.4359L0.500671 30.8435L0.515653 3.87267ZM6.76111 16.8964H24.5444V19.0274H6.76111V16.8964ZM6.76111 12.1999H24.5444V14.3309H6.76111V12.1999ZM6.76111 7.50339H24.5444V9.63439H6.76111V7.50339Z" stroke="white"/>
</svg>
