<svg width="31" height="32" viewBox="0 0 31 32" fill="none" xmlns="http://www.w3.org/2000/svg">
<path d="M15.5 3.43712H15.5006C16.6714 3.43858 17.6829 3.8749 18.5084 4.72668C19.3334 5.57785 19.7499 6.61338 19.75 7.80572C19.75 7.80592 19.75 7.80611 19.75 7.80631H19.25C19.2512 8.87162 18.8844 9.78282 18.1494 10.5399C17.4144 11.297 16.5312 11.6755 15.5 11.6755V3.43712ZM15.5 3.43712C14.3298 3.43712 13.3186 3.87382 12.4932 4.72699C11.6686 5.57919 11.2514 6.61446 11.25 7.80572V7.80631C11.25 8.99914 11.6673 10.0354 12.4935 10.8879C13.3201 11.7408 14.3313 12.177 15.5006 12.1755L15.5 3.43712ZM27.2706 20.9222L27.2708 20.9222C28.1226 21.3617 28.7865 21.9956 29.2702 22.8328C29.7561 23.674 30 24.5946 30 25.6046V27.1522C30 28.0877 29.6827 28.8739 29.04 29.5381C28.3983 30.2014 27.6441 30.5225 26.7506 30.5214H26.75H4.25C3.35744 30.5214 2.60348 30.2002 1.96154 29.5378C1.31917 28.8751 1.00117 28.089 1 27.152V25.6046C1 24.5932 1.24395 23.6727 1.72967 22.8331C2.21337 21.997 2.87748 21.3628 3.72972 20.922C5.57156 19.9719 7.48174 19.2439 9.46082 18.7375C11.4363 18.232 13.4491 17.9793 15.5 17.9793C17.5522 17.9793 19.5656 18.232 21.5411 18.7375C23.5203 19.2439 25.43 19.972 27.2706 20.9222ZM23.1611 22.2293L22.5 22.0044V22.7027V27.1522V27.6522H23H26.75H27.25V27.1522V25.6046C27.25 25.1736 27.1543 24.7688 26.9559 24.4002C26.7508 24.0194 26.4444 23.7266 26.0548 23.5226C25.6025 23.2566 25.1275 23.0156 24.6299 22.7993C24.1344 22.584 23.6448 22.3939 23.1611 22.2293ZM11.6499 21.1971L11.25 21.2788V21.687V24.2504V24.7504H11.75H19.25H19.75V24.2504V21.687V21.2797L19.351 21.1973C18.7056 21.0641 18.0596 20.9728 17.4131 20.9234C16.7758 20.8748 16.1384 20.8498 15.501 20.8485H15.5C14.8619 20.8485 14.2239 20.8735 13.5859 20.9235C12.9401 20.9742 12.2947 21.0654 11.6499 21.1971ZM3.75 27.1522V27.6522H4.25H8H8.5V27.1522V22.7027V22.002L7.83739 22.2299C7.3556 22.3956 6.86664 22.586 6.37052 22.8011C5.87178 23.0173 5.39663 23.2577 4.94538 23.5225C4.5557 23.7264 4.24921 24.0194 4.04414 24.4002C3.8457 24.7688 3.75 25.1736 3.75 25.6046V27.1522ZM15.5 15.0447C13.5763 15.0447 11.9392 14.3444 10.5622 12.9236C9.18466 11.5023 8.5 9.80568 8.5 7.80631C8.5 5.80694 9.18466 4.11034 10.5622 2.68906C11.9392 1.26826 13.5763 0.567932 15.5 0.567932C17.4237 0.567932 19.0608 1.26826 20.4378 2.68906C21.8153 4.11034 22.5 5.80694 22.5 7.80631C22.5 9.80568 21.8153 11.5023 20.4378 12.9236C19.0608 14.3444 17.4237 15.0447 15.5 15.0447Z" stroke="white"/>
</svg>
