<svg width="24" height="24" viewBox="0 0 24 24" fill="none" xmlns="http://www.w3.org/2000/svg">
<path d="M23.5 15.9994V16V21.3333C23.5 21.9332 23.2924 22.4344 22.8635 22.8641C22.435 23.2933 21.9343 23.5007 21.3339 23.5H21.3333H16C15.4002 23.5 14.8996 23.2924 14.4709 22.8638C14.0422 22.4351 13.8341 21.9338 13.8333 21.3327V16C13.8333 15.4005 14.0411 14.8999 14.4706 14.4712C14.9005 14.042 15.4016 13.8341 16.0006 13.8333H21.3333C21.9329 13.8333 22.434 14.0412 22.8638 14.4709C23.2935 14.9006 23.5007 15.4011 23.5 15.9994ZM24 16V21.3333C24 22.0667 23.7391 22.6947 23.2173 23.2173C22.6956 23.74 22.0676 24.0009 21.3333 24H16C15.2667 24 14.6391 23.7391 14.1173 23.2173C13.5956 22.6956 13.3342 22.0676 13.3333 21.3333L24 16ZM23.5 2.66606V2.66667V8C23.5 8.59982 23.2924 9.10108 22.8635 9.53075C22.435 9.95994 21.9343 10.1674 21.3339 10.1667H21.3333H16C15.4002 10.1667 14.8996 9.95911 14.4709 9.53045C14.0422 9.10176 13.8341 8.60047 13.8333 7.99939V2.66667C13.8333 2.06714 14.0411 1.56659 14.4706 1.13785C14.9005 0.708706 15.4015 0.500792 16.0003 0.5H21.3333C21.9329 0.5 22.434 0.707817 22.8638 1.13755C23.2935 1.56727 23.5007 2.0678 23.5 2.66606ZM10.1667 2.66606V2.66667V8C10.1667 8.59982 9.95909 9.10108 9.53015 9.53075C9.10169 9.95994 8.60099 10.1674 8.00061 10.1667H8H2.66667C2.06687 10.1667 1.56622 9.95911 1.13755 9.53045C0.708934 9.10183 0.500793 8.60063 0.5 7.99968V2.66667C0.5 2.06714 0.707788 1.56659 1.13725 1.13785C1.56713 0.708706 2.06815 0.500792 2.66699 0.5H8C8.59954 0.5 9.10071 0.707817 9.53045 1.13755C9.96017 1.56727 10.1674 2.0678 10.1667 2.66606ZM10.1667 15.9994V16V21.3333C10.1667 21.9332 9.95909 22.4344 9.53015 22.8641C9.10169 23.2933 8.60099 23.5007 8.00061 23.5H8H2.66667C2.06687 23.5 1.56622 23.2924 1.13755 22.8638C0.708934 22.4352 0.500793 21.934 0.5 21.333V16C0.5 15.4005 0.707788 14.8999 1.13725 14.4712C1.5672 14.042 2.06831 13.8341 2.66727 13.8333H8C8.59954 13.8333 9.10071 14.0412 9.53045 14.4709C9.96017 14.9006 10.1674 15.4011 10.1667 15.9994Z" stroke="white"/>
</svg>
