<svg id="Слой_1" data-name="Слой 1" xmlns="http://www.w3.org/2000/svg" viewBox="0 0 197.25 146.7"><defs><style>.cls-1{fill:#ffdf00;}.cls-2{fill:#2b4df7;}.cls-3{fill:#fff;}</style></defs><polygon class="cls-1" points="121.2 12.78 97.76 30.15 83.17 10.46 119.48 10.46 121.2 12.78"/><polygon class="cls-2" points="156 62.38 157.63 81.76 171.91 68.77 156 62.38"/><polygon class="cls-3" points="78.28 17.28 67.16 20.79 78.28 27.8 78.28 17.28"/><path d="M78.84,28.82l-13-8.2,13-4.11ZM68.49,21l9.22,5.82V18.05Z"/><circle class="cls-3" cx="143.26" cy="45.17" r="8.86"/><path d="M143.26,54.59a9.43,9.43,0,1,1,9.42-9.42A9.43,9.43,0,0,1,143.26,54.59Zm0-17.72a8.3,8.3,0,1,0,8.29,8.3A8.31,8.31,0,0,0,143.26,36.87Z"/><path d="M113.52,21.85h0a.55.55,0,0,1-.56-.56L113,15a.57.57,0,0,1,.57-.56h0a.57.57,0,0,1,.56.57l0,6.26A.56.56,0,0,1,113.52,21.85Z"/><path d="M116.67,18.74h0l-6.27,0a.56.56,0,0,1-.56-.56.57.57,0,0,1,.57-.56h0l6.26,0a.55.55,0,0,1,.56.56A.56.56,0,0,1,116.67,18.74Z"/><path d="M164.29,24.17a.57.57,0,0,1-.36-1l6.57-5.44a.57.57,0,0,1,.8.07.56.56,0,0,1-.08.79L164.65,24A.55.55,0,0,1,164.29,24.17Z"/><path d="M183.26,42.89a.55.55,0,0,1-.46-.24l-3.19-4.45a.56.56,0,1,1,.91-.65l3.2,4.44a.57.57,0,0,1-.13.79A.59.59,0,0,1,183.26,42.89Z"/><rect class="cls-3" x="123.54" y="92.47" width="9.26" height="9.26" transform="translate(-29.44 65.23) rotate(-25.72)"/><path d="M125.75,104l-4.51-9.36,9.36-4.51,4.51,9.37Zm-3-8.83,3.53,7.33L133.61,99l-3.54-7.33Z"/><polygon class="cls-2" points="49.14 84.05 36.26 93.33 50.85 99.18 49.14 84.05"/><path d="M60.7,92.25a.56.56,0,0,1-.51-.34l-2.63-6.2a.56.56,0,0,1,.3-.74.55.55,0,0,1,.73.3l2.63,6.2a.55.55,0,0,1-.3.74A.54.54,0,0,1,60.7,92.25Z"/><circle class="cls-3" cx="23.52" cy="108.3" r="4.66"/><path d="M23.52,113.52a5.23,5.23,0,1,1,5.23-5.22A5.23,5.23,0,0,1,23.52,113.52Zm0-9.33a4.11,4.11,0,1,0,4.1,4.11A4.11,4.11,0,0,0,23.52,104.19Z"/><path d="M39.3,133.93a.56.56,0,0,1-.57-.57v-3.93a.57.57,0,0,1,1.13,0v3.93A.56.56,0,0,1,39.3,133.93Z"/><path d="M146.39,83.12a.56.56,0,0,1-.43-.93l3.92-4.63a.57.57,0,0,1,.8-.06.55.55,0,0,1,.06.79l-3.92,4.63A.57.57,0,0,1,146.39,83.12Z"/><g id="Lines"><path class="cls-1" d="M109.69,45.42a.54.54,0,0,1-.25-.06.55.55,0,0,1-.26-.75l3.58-7.25a.57.57,0,0,1,.76-.26.56.56,0,0,1,.25.75l-3.58,7.26A.56.56,0,0,1,109.69,45.42Z"/><path class="cls-1" d="M113.56,50.27a.56.56,0,0,1-.36-1l4.78-3.9a.56.56,0,0,1,.8.08.57.57,0,0,1-.08.79l-4.79,3.91A.57.57,0,0,1,113.56,50.27Z"/></g></svg>