<svg width="164" height="151" viewBox="0 0 164 151" fill="none" xmlns="http://www.w3.org/2000/svg">
<path d="M96.3003 105.987V122.683C96.3003 125.188 100.198 125.194 100.198 122.683V105.987C100.198 103.487 96.3003 103.481 96.3003 105.987Z" fill="white"/>
<path d="M98.2545 124.925C97.9501 124.944 97.6452 124.899 97.359 124.794C97.0728 124.69 96.8114 124.527 96.5915 124.316C96.3715 124.105 96.1977 123.851 96.081 123.57C95.9643 123.289 95.9073 122.987 95.9135 122.683V105.993C95.9973 105.44 96.277 104.935 96.7017 104.571C97.1264 104.206 97.668 104.006 98.2282 104.006C98.7883 104.006 99.3299 104.206 99.7546 104.571C100.179 104.935 100.459 105.44 100.543 105.993V122.683C100.549 122.982 100.493 123.28 100.38 123.557C100.266 123.835 100.097 124.086 99.8828 124.296C99.6686 124.506 99.4137 124.67 99.1337 124.778C98.8537 124.886 98.5545 124.936 98.2545 124.925ZM98.2545 104.486C98.0479 104.47 97.8404 104.498 97.6454 104.568C97.4504 104.638 97.2725 104.748 97.1233 104.892C96.974 105.035 96.8569 105.208 96.7795 105.4C96.7022 105.592 96.6663 105.798 96.6744 106.004V122.694C96.6989 123.097 96.8763 123.475 97.1705 123.751C97.4647 124.027 97.8535 124.181 98.2574 124.181C98.6614 124.181 99.0501 124.027 99.3443 123.751C99.6385 123.475 99.816 123.097 99.8405 122.694V105.993C99.8478 105.785 99.811 105.579 99.7326 105.386C99.6542 105.194 99.536 105.021 99.3856 104.877C99.2353 104.734 99.0563 104.624 98.8603 104.554C98.6644 104.485 98.4559 104.458 98.2486 104.474L98.2545 104.486Z" fill="black"/>
<path d="M78.9302 138.906V137.189C78.9302 136.622 79.0422 136.06 79.26 135.536C79.4777 135.012 79.7967 134.536 80.199 134.135C80.6012 133.734 81.0787 133.417 81.6041 133.2C82.1294 132.984 82.6925 132.872 83.2609 132.873H108.075C109.222 132.873 110.322 133.328 111.133 134.137C111.944 134.947 112.4 136.044 112.4 137.189V138.906" fill="white"/>
<path d="M112.763 138.906H112.037V137.189C112.035 136.141 111.617 135.136 110.875 134.395C110.132 133.654 109.125 133.237 108.075 133.235H83.261C82.2106 133.237 81.2038 133.654 80.4611 134.395C79.7184 135.136 79.3005 136.141 79.2989 137.189V138.906H78.5674V137.189C78.5674 135.95 79.0606 134.762 79.9387 133.885C80.8167 133.009 82.0075 132.517 83.2493 132.517H108.063C109.305 132.517 110.496 133.009 111.374 133.885C112.252 134.762 112.745 135.95 112.745 137.189L112.763 138.906Z" fill="black"/>
<path d="M78.9305 141.867C80.5692 141.867 81.8976 140.541 81.8976 138.906C81.8976 137.271 80.5692 135.945 78.9305 135.945C77.2918 135.945 75.9634 137.271 75.9634 138.906C75.9634 140.541 77.2918 141.867 78.9305 141.867Z" fill="white"/>
<path d="M78.9301 142.234C78.0453 142.234 77.1969 141.884 76.5713 141.259C75.9457 140.635 75.5942 139.789 75.5942 138.906C75.5942 138.023 75.9457 137.176 76.5713 136.552C77.1969 135.928 78.0453 135.577 78.9301 135.577C81.0837 135.577 82.2659 136.745 82.2659 138.906C82.2659 139.789 81.9144 140.635 81.2889 141.259C80.6633 141.884 79.8148 142.234 78.9301 142.234ZM78.9301 136.307C78.415 136.307 77.9115 136.459 77.4832 136.745C77.0549 137.031 76.7211 137.436 76.524 137.911C76.3269 138.386 76.2753 138.909 76.3758 139.413C76.4763 139.917 76.7243 140.38 77.0886 140.743C77.4528 141.107 77.9168 141.354 78.422 141.454C78.9272 141.555 79.4508 141.503 79.9267 141.307C80.4026 141.11 80.8093 140.777 81.0955 140.349C81.3816 139.922 81.5344 139.42 81.5344 138.906C81.5344 137.154 80.6858 136.307 78.9301 136.307Z" fill="black"/>
<path d="M95.6678 141.867C97.3065 141.867 98.6349 140.541 98.6349 138.906C98.6349 137.271 97.3065 135.945 95.6678 135.945C94.0291 135.945 92.7007 137.271 92.7007 138.906C92.7007 140.541 94.0291 141.867 95.6678 141.867Z" fill="white"/>
<path d="M95.6679 142.234C94.7831 142.234 93.9347 141.884 93.3091 141.259C92.6835 140.635 92.332 139.789 92.332 138.906C92.332 138.023 92.6835 137.176 93.3091 136.552C93.9347 135.928 94.7831 135.577 95.6679 135.577C97.8157 135.577 99.0037 136.745 99.0037 138.906C99.0021 139.788 98.6502 140.634 98.0249 141.258C97.3997 141.882 96.5521 142.233 95.6679 142.234ZM95.6679 136.307C95.1528 136.307 94.6493 136.459 94.221 136.745C93.7927 137.031 93.4589 137.436 93.2618 137.911C93.0647 138.386 93.0131 138.909 93.1136 139.413C93.2141 139.917 93.4621 140.38 93.8264 140.743C94.1906 141.107 94.6546 141.354 95.1598 141.454C95.665 141.555 96.1886 141.503 96.6645 141.307C97.1403 141.11 97.5471 140.777 97.8332 140.349C98.1194 139.922 98.2721 139.42 98.2721 138.906C98.2721 137.154 97.4177 136.307 95.6679 136.307Z" fill="black"/>
<path d="M112.4 141.867C114.038 141.867 115.367 140.541 115.367 138.906C115.367 137.271 114.038 135.945 112.4 135.945C110.761 135.945 109.433 137.271 109.433 138.906C109.433 140.541 110.761 141.867 112.4 141.867Z" fill="white"/>
<path d="M112.4 142.234C111.515 142.234 110.667 141.884 110.041 141.259C109.415 140.635 109.064 139.789 109.064 138.906C109.064 138.023 109.415 137.176 110.041 136.552C110.667 135.928 111.515 135.577 112.4 135.577C114.548 135.577 115.736 136.745 115.736 138.906C115.734 139.788 115.382 140.634 114.757 141.258C114.132 141.882 113.284 142.233 112.4 142.234ZM112.4 136.307C111.885 136.307 111.381 136.459 110.953 136.745C110.525 137.031 110.191 137.436 109.994 137.911C109.797 138.386 109.745 138.909 109.846 139.413C109.946 139.917 110.194 140.38 110.558 140.743C110.923 141.107 111.387 141.354 111.892 141.454C112.397 141.555 112.921 141.503 113.396 141.307C113.872 141.11 114.279 140.777 114.565 140.349C114.851 139.922 115.004 139.42 115.004 138.906C115.004 137.154 114.15 136.307 112.4 136.307Z" fill="black"/>
<path d="M109.515 96.1174H75.6646C72.3485 96.1174 69.6602 98.8 69.6602 102.109C69.6602 105.418 72.3485 108.101 75.6646 108.101H109.515C112.831 108.101 115.519 105.418 115.519 102.109C115.519 98.8 112.831 96.1174 109.515 96.1174Z" fill="white"/>
<path d="M109.515 108.463H75.6647C73.976 108.463 72.3564 107.793 71.1623 106.602C69.9682 105.41 69.2974 103.794 69.2974 102.109C69.2974 100.424 69.9682 98.8079 71.1623 97.6164C72.3564 96.4248 73.976 95.7554 75.6647 95.7554H109.515C111.203 95.7554 112.823 96.4248 114.017 97.6164C115.211 98.8079 115.882 100.424 115.882 102.109C115.882 103.794 115.211 105.41 114.017 106.602C112.823 107.793 111.203 108.463 109.515 108.463ZM75.6647 96.4854C74.17 96.4854 72.7365 97.0779 71.6796 98.1326C70.6227 99.1872 70.0289 100.618 70.0289 102.109C70.0289 103.601 70.6227 105.031 71.6796 106.086C72.7365 107.14 74.17 107.733 75.6647 107.733H109.515C111.009 107.733 112.443 107.14 113.5 106.086C114.557 105.031 115.15 103.601 115.15 102.109C115.15 100.618 114.557 99.1872 113.5 98.1326C112.443 97.0779 111.009 96.4854 109.515 96.4854H75.6647Z" fill="black"/>
<path d="M103.82 59.0638H97.0079C90.5468 59.0638 85.3091 64.2903 85.3091 70.7376V73.4122C85.3091 79.8594 90.5468 85.086 97.0079 85.086H103.82C110.281 85.086 115.519 79.8594 115.519 73.4122V70.7376C115.519 64.2903 110.281 59.0638 103.82 59.0638Z" fill="white"/>
<path d="M105.781 85.454H95.0474C92.3678 85.4509 89.7989 84.3873 87.9041 82.4966C86.0094 80.6059 84.9435 78.0425 84.9404 75.3686V68.7871C84.9435 66.1133 86.0094 63.5498 87.9041 61.6591C89.7989 59.7684 92.3678 58.7049 95.0474 58.7018H105.781C108.459 58.7064 111.025 59.7708 112.918 61.6615C114.811 63.5522 115.874 66.1148 115.876 68.7871V75.3686C115.874 78.0409 114.811 80.6035 112.918 82.4942C111.025 84.3849 108.459 85.4493 105.781 85.454ZM95.0474 59.4318C92.564 59.4318 90.1823 60.4162 88.4263 62.1685C86.6702 63.9207 85.6837 66.2974 85.6837 68.7755V75.3569C85.6837 77.835 86.6702 80.2116 88.4263 81.9639C90.1823 83.7162 92.564 84.7006 95.0474 84.7006H105.781C108.264 84.7006 110.646 83.7162 112.402 81.9639C114.158 80.2116 115.144 77.835 115.144 75.3569V68.7871C115.144 66.309 114.158 63.9324 112.402 62.1801C110.646 60.4279 108.264 59.4434 105.781 59.4434L95.0474 59.4318Z" fill="black"/>
<path d="M89.8684 32.3116L91.6475 36.6156L78.2867 38.642L77.5142 30.7232L89.8684 32.3116Z" fill="black"/>
<path d="M96.4696 72.2209C98.6349 80.8639 100.215 97.7993 89.6809 99.3177C79.1467 100.836 52.1674 102.238 52.1674 102.238C52.1674 102.238 46.7247 134.357 43.9741 140.372H16.3862C16.6003 139.042 17.1544 137.79 17.995 136.736C18.8357 135.682 19.9344 134.863 21.1851 134.357C25.5159 132.605 28.1494 129.685 29.3199 109.245C30.4904 88.806 31.1926 78.8199 48.5741 76.192C66.096 73.5057 96.4696 72.2209 96.4696 72.2209Z" fill="white"/>
<path d="M16.0585 140.313C16.266 138.897 16.8467 137.562 17.7413 136.443C18.636 135.325 19.8123 134.463 21.1501 133.948C25.1296 132.371 27.8217 129.801 28.9922 109.245C30.1627 89.4484 30.7479 78.5279 48.656 75.7832C65.8034 73.1553 96.177 71.8121 96.4696 71.8121H96.8208L96.8793 72.1625C98.752 79.6375 99.5714 90.3243 95.8259 95.9306C95.1451 96.9686 94.2498 97.8495 93.2002 98.5142C92.1505 99.1789 90.9705 99.6121 89.7394 99.7848C79.966 101.245 55.7959 102.53 52.5771 102.705C51.9333 106.384 47.0174 134.882 44.4424 140.605L44.3253 140.839H16L16.0585 140.313ZM51.8163 102.121L51.8748 101.77H52.226C52.5186 101.77 79.2638 100.369 89.6809 98.8505C90.7998 98.7304 91.8766 98.3577 92.8297 97.7607C93.7828 97.1638 94.5873 96.3582 95.1821 95.405C98.6935 90.1491 97.9327 79.9295 96.177 72.6297C92.6656 72.8049 64.9255 74.1481 48.7731 76.6008C31.5672 79.2287 31.0405 89.2732 29.87 109.245C28.641 130.385 25.8904 133.013 21.4427 134.765C20.3331 135.205 19.3479 135.908 18.5727 136.813C17.7976 137.719 17.2559 138.8 16.9949 139.963H43.7401C46.4907 133.422 51.7578 102.471 51.8163 102.121Z" fill="black"/>
<path d="M21.3257 134.357C22.3377 134.014 23.2694 133.47 24.0642 132.757C24.859 132.045 25.5003 131.178 25.949 130.21C32.7963 130.736 39.6435 131.203 46.4907 131.845C45.6129 135.7 44.735 138.853 44.0328 140.372H16.4683C16.6867 139.035 17.2492 137.778 18.1006 136.724C18.9521 135.669 20.0634 134.854 21.3257 134.357Z" fill="white"/>
<path d="M16.0585 140.313C16.266 138.897 16.8467 137.562 17.7413 136.443C18.636 135.325 19.8123 134.463 21.1501 133.948C22.114 133.636 23.0021 133.127 23.7579 132.453C24.5136 131.779 25.1203 130.956 25.5393 130.035L25.6564 129.801H25.949C33.2059 130.327 39.7605 130.853 46.4907 131.437L47.0174 131.495L46.9003 131.962C45.9054 136.284 45.0861 139.204 44.4424 140.605L44.3253 140.839H16L16.0585 140.313ZM45.964 132.254C39.5264 131.67 33.1473 131.203 26.1831 130.677C25.1935 132.602 23.4939 134.067 21.4427 134.765C20.3331 135.205 19.3479 135.908 18.5727 136.813C17.7976 137.719 17.2559 138.8 16.9949 139.963H43.7401C44.6652 137.45 45.4084 134.873 45.964 132.254Z" fill="black"/>
<path d="M24.5794 130.812C25.5519 131.844 26.7015 132.694 27.9738 133.323C28.3249 133.498 28.0323 133.965 27.6812 133.848C26.3469 133.215 25.153 132.321 24.1698 131.221C24.1362 131.195 24.1085 131.163 24.0884 131.127C24.0684 131.09 24.0564 131.049 24.0535 131.008C24.0505 130.966 24.0565 130.924 24.0712 130.885C24.0859 130.846 24.1088 130.81 24.1384 130.78C24.1681 130.751 24.2038 130.728 24.243 130.713C24.2823 130.699 24.3243 130.693 24.3661 130.696C24.4079 130.699 24.4486 130.711 24.4854 130.731C24.5222 130.751 24.5543 130.778 24.5794 130.812Z" fill="black"/>
<path d="M23.6666 131.904L26.4757 134.707C26.7683 134.999 26.3001 135.408 26.066 135.116L23.2569 132.313C22.9643 132.079 23.374 131.67 23.6666 131.904Z" fill="black"/>
<path d="M104.078 72.2209C106.243 80.8639 107.823 97.7993 97.2888 99.3177C86.7546 100.836 59.7753 102.238 59.7753 102.238C59.7753 102.238 54.3327 134.357 51.5821 140.372H23.9941C24.2082 139.042 24.7623 137.79 25.6029 136.736C26.4436 135.682 27.5423 134.863 28.7931 134.357C33.1238 132.605 35.7573 129.685 36.9278 109.245C38.0983 88.806 38.8006 78.8199 56.182 76.192C73.5634 73.5641 104.078 72.2209 104.078 72.2209Z" fill="white"/>
<path d="M23.6078 140.313C23.8153 138.897 24.396 137.562 25.2907 136.443C26.1853 135.325 27.3617 134.463 28.6994 133.948C32.679 132.371 35.371 129.801 36.5415 109.245C37.712 89.4484 38.2972 78.5279 56.2053 75.7832C73.3527 73.1553 103.726 71.8121 104.019 71.8121H104.37L104.429 72.1625C106.301 79.6375 107.121 90.3243 103.375 95.9306C102.694 96.9686 101.799 97.8495 100.749 98.5142C99.6998 99.1789 98.5199 99.6121 97.2887 99.7848C87.5153 101.245 63.3452 102.53 60.1264 102.705C59.4827 106.384 54.5667 134.882 51.9917 140.605L51.8746 140.839H23.5493L23.6078 140.313ZM59.4241 102.121L59.4827 101.77H59.8338C60.1264 101.77 86.8716 100.369 97.2887 98.8505C98.4076 98.7304 99.4844 98.3577 100.438 97.7607C101.391 97.1638 102.195 96.3582 102.79 95.405C106.301 90.1491 105.541 79.9295 103.785 72.6297C100.273 72.8049 72.5334 74.1481 56.3809 76.6008C39.175 79.2287 38.6483 89.2732 37.4779 109.245C36.2489 130.385 33.4983 133.013 29.0505 134.765C27.9409 135.205 26.9557 135.908 26.1806 136.813C25.4054 137.719 24.8637 138.8 24.6027 139.963H51.3479C54.04 133.422 59.3071 102.471 59.4241 102.121Z" fill="black"/>
<path d="M28.875 134.357C29.887 134.014 30.8187 133.47 31.6135 132.757C32.4083 132.045 33.0496 131.178 33.4983 130.21C40.3456 130.736 47.1928 131.203 54.04 131.845C53.1622 135.7 52.2843 138.853 51.582 140.372H23.9941C24.0761 140.372 24.5443 136.108 28.875 134.357Z" fill="white"/>
<path d="M23.6078 140.313C23.8153 138.897 24.396 137.562 25.2907 136.443C26.1853 135.325 27.3616 134.463 28.6994 133.948C29.6633 133.636 30.5514 133.127 31.3072 132.453C32.0629 131.779 32.6696 130.956 33.0886 130.035L33.2057 129.801H33.4983C40.7552 130.327 47.3098 130.853 54.04 131.437L54.5667 131.495L54.4496 131.962C53.4547 136.284 52.6354 139.204 51.9917 140.605L51.8746 140.839H23.5493L23.6078 140.313ZM53.5718 132.254C47.1342 131.67 40.7552 131.203 33.7909 130.677C32.8013 132.602 31.1018 134.067 29.0505 134.765C27.9409 135.205 26.9557 135.908 26.1806 136.813C25.4054 137.719 24.8637 138.8 24.6027 139.963H51.3479C52.245 137.441 52.9877 134.866 53.5718 132.254Z" fill="black"/>
<path d="M32.1524 130.812C33.1249 131.844 34.2744 132.694 35.5468 133.323C35.8979 133.498 35.6053 133.965 35.2541 133.848C33.9198 133.215 32.726 132.321 31.7427 131.221C31.5087 130.911 31.9183 130.502 32.1524 130.812Z" fill="black"/>
<path d="M31.2159 131.904L34.025 134.707C34.3176 134.999 33.8494 135.408 33.6153 135.116L30.8062 132.313C30.5721 132.079 30.9818 131.67 31.2159 131.904Z" fill="black"/>
<path d="M51.1729 59.6653C51.8166 59.6653 52.4604 59.6653 53.1042 59.6069C66.9742 58.7893 75.2845 53.0079 76.455 52.1903L78.0936 37.9412C77.2158 38.4668 76.2794 38.9924 75.4016 39.518C69.1395 43.3138 62.6435 47.2265 54.7428 47.2265C53.3085 47.2353 51.8771 47.0983 50.4706 46.8177C45.0279 45.825 42.2188 43.6642 40.1705 41.6787L40.112 41.6203L40.0534 41.5619C37.654 35.8973 33.967 33.3278 32.0943 33.3278C31.5676 33.3278 31.2164 33.503 31.0994 33.9117C30.8653 34.7293 31.392 35.0797 32.3284 35.6637C32.9721 36.0725 33.6159 36.4229 33.85 37.1236C33.9826 37.3954 34.0237 37.7027 33.967 37.9996V38.4084H33.3233C31.8121 38.4074 30.3317 37.9824 29.0511 37.182C28.6466 36.9101 28.187 36.7306 27.705 36.6565C27.4709 36.6565 27.0027 36.7732 26.3005 37.6492L26.1834 37.8244H26.0078C25.6567 37.8244 24.5448 37.9996 24.1351 38.5252C24.0243 38.6511 23.9452 38.8015 23.9045 38.9641C23.8638 39.1266 23.8626 39.2965 23.901 39.4596L23.9595 39.7516L23.7254 39.9267C23.3199 40.2046 23.0289 40.6194 22.9061 41.0947C22.8553 41.3304 22.8606 41.5747 22.9216 41.808C22.9826 42.0412 23.0976 42.257 23.2572 42.4379C23.8425 43.3722 26.2419 44.5986 28.5829 45.7666C30.6897 46.8177 32.8551 47.9273 33.9085 48.9201C34.4541 49.5582 34.9436 50.242 35.3716 50.964C37.2443 54.1175 40.6972 59.6653 51.1729 59.6653Z" fill="white"/>
<path d="M32.0941 33.7366C33.8498 33.7366 37.3612 36.1893 39.7607 41.6204L39.8192 41.7956L39.9362 41.9123C42.0431 43.9563 44.9107 46.1754 50.4704 47.1682C51.8963 47.4515 53.3474 47.5885 54.8012 47.577C62.8189 47.577 69.3735 43.6059 75.694 39.81C76.2792 39.4012 76.923 39.0508 77.5668 38.6421L76.0452 51.84C74.465 52.9496 66.3888 58.2638 53.104 59.0814C52.4602 59.1398 51.8165 59.1398 51.1727 59.1398C40.8726 59.1398 37.5368 53.7088 35.547 50.4969C35.1203 49.7415 34.6099 49.0363 34.0254 48.3945C32.972 47.3434 30.8651 46.2922 28.6412 45.1826C26.5929 44.1899 24.0179 42.8467 23.4912 42.0291C23.3881 41.8874 23.3143 41.7267 23.2741 41.5562C23.234 41.3858 23.2282 41.2091 23.2571 41.0364C23.367 40.6806 23.5938 40.372 23.9008 40.1604L24.369 39.8684L24.252 39.2844C24.2289 39.1844 24.2274 39.0806 24.2476 38.9799C24.2677 38.8792 24.3091 38.7839 24.369 38.7005C24.8133 38.3312 25.371 38.1251 25.9492 38.1165H26.3354L26.5695 37.8245C26.9792 37.2989 27.3303 37.0069 27.6229 37.0069C28.0394 37.0866 28.4367 37.2452 28.7934 37.4741C30.1511 38.3019 31.7087 38.746 33.2997 38.7589H34.3531V37.9588C34.3623 37.6004 34.3027 37.2436 34.1775 36.9076C33.8849 36.0901 33.1241 35.6813 32.4804 35.2725C31.4269 34.6301 31.3684 34.4549 31.4855 34.0461C31.544 33.9293 31.6025 33.7541 32.0707 33.7541L32.0941 33.7366ZM32.0707 32.8782C31.7405 32.8415 31.4085 32.928 31.1384 33.121C30.8683 33.314 30.6792 33.5998 30.6076 33.9235C30.0809 35.8506 32.8315 36.0258 33.4167 37.369C33.5162 37.5676 33.5568 37.7905 33.5338 38.0114H33.2997C30.1394 38.0114 28.969 36.201 27.6814 36.201C27.1547 36.201 26.628 36.493 25.9257 37.3106C25.9257 37.3106 23.0581 37.3748 23.4092 39.4713C23.1552 39.6252 22.9357 39.8296 22.7643 40.0718C22.5929 40.314 22.4732 40.5888 22.4129 40.8792C22.3525 41.1695 22.3526 41.4691 22.4133 41.7594C22.4739 42.0497 22.5938 42.3244 22.7655 42.5664C23.9945 44.4351 31.2514 47.0631 33.4753 49.107C35.5821 51.0925 37.7475 60.0858 51.2078 60.0858C51.8516 60.0858 52.4954 60.0858 53.1976 60.0274C68.4137 59.0989 76.8996 52.3831 76.8996 52.3831L78.6553 37.0828C71.3984 41.2817 64.0245 46.7711 54.7778 46.7711C53.3663 46.7677 51.9573 46.6525 50.5641 46.4265C45.1214 45.4338 42.3708 43.3314 40.4395 41.4043C37.9816 35.5061 34.1775 32.8782 32.0707 32.8782Z" fill="black"/>
<path d="M42.0428 42.7299C43.9156 44.1899 46.4321 45.5914 50.5872 46.3506C61.8822 48.3945 70.3681 41.854 78.6785 37.0653L76.9227 52.3656C76.9227 52.3656 68.4369 59.0814 53.2208 60.0158C42.511 60.6581 38.1803 56.0447 35.8394 52.4824C37.8877 49.2705 40.1701 46.1345 42.0428 42.7299Z" fill="black"/>
<path d="M34.435 38.1165C34.7277 39.9268 35.0203 43.1971 36.7175 44.2482C37.0686 44.4234 36.776 44.949 36.4248 44.7738C34.435 43.6059 34.1424 40.3356 33.8498 38.2917C33.7913 37.8829 34.3765 37.7077 34.435 38.1165Z" fill="black"/>
<path d="M26.3001 37.5325C27.1374 37.6785 27.9346 37.9983 28.6403 38.4711C29.3459 38.9439 29.9443 39.5592 30.3967 40.2772C30.5723 40.5692 30.1041 40.8612 29.87 40.5692C29.4673 39.9086 28.9222 39.3458 28.2743 38.9215C27.6265 38.4973 26.8921 38.2223 26.1245 38.1165C25.75 38.0581 25.9489 37.4741 26.3001 37.5325Z" fill="black"/>
<path d="M25.1647 39.4012C26.7378 39.8416 28.1566 40.7112 29.2614 41.9124C29.4955 42.2044 29.0858 42.6131 28.8517 42.3212C27.8399 41.1757 26.5195 40.3446 25.0477 39.9268C24.9778 39.9113 24.917 39.8688 24.8786 39.8086C24.8402 39.7483 24.8273 39.6753 24.8429 39.6056C24.8584 39.5359 24.901 39.4753 24.9614 39.4369C25.0217 39.3986 25.0949 39.3858 25.1647 39.4012Z" fill="black"/>
<path d="M81.8974 35.6637C89.7981 32.8606 97.8157 38.8756 102.029 50.3801C106.243 61.8845 106.664 83.3925 106.664 83.3925C106.664 83.3925 86.7665 74.4401 74.699 73.5057C74.699 73.5057 80.4928 65.622 78.386 60.4245C76.2792 55.2271 67.6177 40.686 81.8974 35.6637Z" fill="black"/>
<path d="M74.2895 51.0809H74.4065C74.4607 51.0661 74.5113 51.0407 74.5554 51.0061C74.5996 50.9715 74.6364 50.9285 74.6636 50.8795C74.6909 50.8306 74.7081 50.7767 74.7142 50.721C74.7203 50.6653 74.7152 50.609 74.6991 50.5553C74.6991 50.4969 73.3531 45.5915 75.1088 41.0948C75.1554 40.9864 75.1569 40.8639 75.113 40.7544C75.0691 40.6449 74.9834 40.5573 74.8747 40.5108C74.7661 40.4644 74.6434 40.4629 74.5336 40.5067C74.4239 40.5505 74.336 40.636 74.2895 40.7444C72.4167 45.4747 73.8213 50.5553 73.8798 50.7305C73.8973 50.827 73.9476 50.9145 74.0222 50.9784C74.0968 51.0422 74.1912 51.0784 74.2895 51.0809Z" fill="white"/>
<path d="M31.3336 29.9991L24.9546 27.5406L25.7739 33.9644L31.3336 29.9991Z" fill="#FFDF00"/>
<path d="M23.6085 35.4302C23.692 35.4342 23.7749 35.4143 23.8475 35.373C23.9201 35.3316 23.9793 35.2704 24.0182 35.1966C24.0493 35.1478 24.0695 35.0928 24.0775 35.0355C24.0854 34.9783 24.0809 34.9199 24.0643 34.8645C24.0476 34.8091 24.0192 34.7579 23.981 34.7145C23.9427 34.671 23.8955 34.6362 23.8426 34.6126L21.8528 33.4446C21.7529 33.3995 21.6395 33.3939 21.5356 33.4289C21.4317 33.464 21.345 33.5371 21.293 33.6335C21.241 33.7298 21.2276 33.8423 21.2554 33.9482C21.2833 34.054 21.3504 34.1454 21.4432 34.2038L23.433 35.3718C23.4096 35.4302 23.4915 35.4302 23.6085 35.4302Z" fill="#FFDF00"/>
<path d="M23.6669 23.6922C23.7438 23.7019 23.8217 23.6837 23.8862 23.6408C23.9507 23.5979 23.9975 23.5332 24.018 23.4586L26.3004 19.7152C26.3321 19.6651 26.3532 19.609 26.3622 19.5505C26.3713 19.4919 26.3681 19.4321 26.353 19.3748C26.338 19.3175 26.3112 19.2639 26.2745 19.2173C26.2377 19.1708 26.1918 19.1322 26.1395 19.1041C26.0872 19.076 26.0297 19.059 25.9705 19.054C25.9114 19.049 25.8518 19.0563 25.7955 19.0752C25.7393 19.0942 25.6875 19.1245 25.6435 19.1643C25.5995 19.2041 25.5641 19.2525 25.5396 19.3065L23.2572 23.0498C23.2271 23.0988 23.2076 23.1537 23.2002 23.2108C23.1928 23.2678 23.1975 23.3258 23.2141 23.381C23.2306 23.4361 23.2587 23.4871 23.2964 23.5307C23.3341 23.5742 23.3806 23.6094 23.4328 23.6338C23.5499 23.6338 23.6084 23.6922 23.6669 23.6922Z" fill="#FFDF00"/>
<path d="M45.7012 61.3646H47.8549C48.1784 61.3677 48.4993 61.3069 48.7991 61.1857C49.0989 61.0645 49.3718 60.8852 49.6019 60.6583C49.832 60.4314 50.0148 60.1613 50.1399 59.8636C50.2649 59.5659 50.3297 59.2464 50.3304 58.9236V56.2723C50.3289 55.6238 50.07 55.0024 49.6105 54.5438C49.151 54.0853 48.5282 53.827 47.8783 53.8254H45.7012C45.6597 53.8254 45.6186 53.8336 45.5803 53.8494C45.5419 53.8653 45.5071 53.8885 45.4778 53.9178C45.4484 53.9471 45.4251 53.9819 45.4092 54.0201C45.3934 54.0584 45.3852 54.0994 45.3852 54.1408C45.3852 54.1822 45.3934 54.2232 45.4092 54.2615C45.4251 54.2997 45.4484 54.3345 45.4778 54.3638C45.5071 54.3931 45.5419 54.4163 45.5803 54.4321C45.6186 54.448 45.6597 54.4561 45.7012 54.4561H47.8549C48.3381 54.4561 48.8017 54.6473 49.1439 54.9877C49.4862 55.3282 49.6793 55.7901 49.6808 56.2723V58.9236C49.6777 59.4048 49.484 59.8652 49.1419 60.2044C48.7998 60.5436 48.3371 60.7339 47.8549 60.7339H45.7012C45.6565 60.7278 45.611 60.7313 45.5678 60.7442C45.5245 60.7571 45.4846 60.7791 45.4506 60.8087C45.4166 60.8383 45.3893 60.8748 45.3706 60.9158C45.352 60.9568 45.3423 61.0013 45.3423 61.0464C45.3423 61.0914 45.352 61.1359 45.3706 61.1769C45.3893 61.2179 45.4166 61.2544 45.4506 61.284C45.4846 61.3136 45.5245 61.3356 45.5678 61.3485C45.611 61.3614 45.6565 61.3649 45.7012 61.3588V61.3646Z" fill="white"/>
<path d="M43.5998 62.229C42.6903 62.229 41.818 61.8685 41.1748 61.2267C40.5317 60.5849 40.1704 59.7145 40.1704 58.8069V53.4518H47.0293V58.8069C47.0293 59.7145 46.668 60.5849 46.0248 61.2267C45.3817 61.8685 44.5094 62.229 43.5998 62.229Z" fill="white"/>
<path d="M39.8545 58.8069V53.1423H47.3396V58.8069C47.3596 59.3097 47.2775 59.8114 47.0984 60.2819C46.9193 60.7523 46.6468 61.1818 46.2974 61.5446C45.9479 61.9075 45.5285 62.1961 45.0645 62.3933C44.6005 62.5904 44.1014 62.6921 43.5971 62.6921C43.0927 62.6921 42.5936 62.5904 42.1296 62.3933C41.6656 62.1961 41.2463 61.9075 40.8968 61.5446C40.5473 61.1818 40.2748 60.7523 40.0957 60.2819C39.9166 59.8114 39.8346 59.3097 39.8545 58.8069ZM40.4807 53.7671V58.8069C40.4625 59.2266 40.5296 59.6456 40.678 60.0388C40.8263 60.4319 41.053 60.791 41.3441 61.0945C41.6353 61.3979 41.985 61.6393 42.3722 61.8043C42.7594 61.9693 43.1761 62.0543 43.5971 62.0543C44.0181 62.0543 44.4347 61.9693 44.8219 61.8043C45.2091 61.6393 45.5588 61.3979 45.85 61.0945C46.1412 60.791 46.3678 60.4319 46.5162 60.0388C46.6646 59.6456 46.7317 59.2266 46.7134 58.8069V53.7671H40.4807Z" fill="black"/>
<path d="M42.9973 51.5187C43.0726 51.5182 43.1452 51.4908 43.2021 51.4416C43.2589 51.3923 43.2963 51.3244 43.3075 51.2501L43.8927 47.1214C43.8793 47.0586 43.847 47.0014 43.8001 46.9574C43.7533 46.9134 43.6941 46.8848 43.6305 46.8753C43.5669 46.8657 43.5019 46.8758 43.4442 46.9041C43.3864 46.9325 43.3387 46.9777 43.3075 47.0338L42.7222 51.1625C42.712 51.2443 42.7336 51.3268 42.7826 51.3931C42.8316 51.4594 42.9043 51.5044 42.9856 51.5187H42.9973Z" fill="white"/>
<path d="M45.0629 51.7816C45.1209 51.7824 45.178 51.7669 45.2276 51.737C45.2773 51.7071 45.3175 51.6638 45.3438 51.6122L46.286 49.8603C46.306 49.8241 46.3184 49.7842 46.3225 49.7431C46.3265 49.702 46.3221 49.6605 46.3095 49.6211C46.2969 49.5817 46.2764 49.5454 46.2492 49.5142C46.222 49.483 46.1887 49.4577 46.1514 49.4398C46.1153 49.4204 46.0758 49.4084 46.035 49.4044C45.9942 49.4004 45.9531 49.4045 45.9139 49.4164C45.8747 49.4283 45.8383 49.4479 45.8068 49.474C45.7752 49.5001 45.7491 49.5321 45.7301 49.5683L44.7878 51.3202C44.7484 51.3938 44.7398 51.48 44.7639 51.5599C44.7881 51.6398 44.843 51.7069 44.9166 51.7465C44.962 51.7692 45.0121 51.7812 45.0629 51.7816Z" fill="white"/>
<path d="M48.516 58.0944C48.516 58.0944 47.4684 55.63 48.715 55.4782C52.3083 55.0519 56.323 58.9821 59.969 60.5354C59.969 62.667 59.7934 64.8043 59.6998 66.9592C59.6471 68.2323 59.6296 69.5112 59.612 70.7843C56.5337 69.8616 54.0347 68.2907 53.1744 66.8483C52.4019 65.5635 51.0383 65.4526 50.4004 64.7051C49.1422 65.2248 47.3631 61.9896 48.7735 60.8391C48.7676 60.8099 47.1582 59.566 48.516 58.0944Z" fill="white"/>
<path d="M59.518 71.0588C56.428 70.1303 53.8296 68.5302 52.8991 66.971C52.5015 66.3903 51.9448 65.9362 51.2955 65.6629C50.9334 65.4966 50.5965 65.2803 50.2948 65.0205C49.7095 65.1314 48.9897 64.6876 48.4688 63.8525C47.948 63.0174 47.6729 61.6451 48.3225 60.8333C47.957 60.4655 47.7244 59.9868 47.6612 59.4727C47.6447 59.2145 47.6796 58.9557 47.764 58.7111C47.8484 58.4665 47.9805 58.241 48.1528 58.0478C47.9655 57.563 47.5676 56.2958 47.9597 55.6417C48.0331 55.5128 48.1371 55.4038 48.2627 55.3244C48.3882 55.2449 48.5313 55.1975 48.6795 55.1862C51.1609 54.8943 53.7828 56.5411 56.3227 58.1061C57.5247 58.9082 58.7844 59.6207 60.0916 60.2377L60.2847 60.3194V60.5238C60.2847 61.9604 60.2028 63.4437 60.1208 64.8219C60.0857 65.5227 60.0448 66.2293 60.0155 66.9301C59.9687 68.0513 59.9511 69.1959 59.9336 70.2997V71.164L59.518 71.0588ZM56.0066 58.6493C53.5604 57.1134 51.0263 55.525 48.7732 55.7936C48.722 55.7933 48.6716 55.8067 48.6274 55.8323C48.5831 55.858 48.5466 55.895 48.5215 55.9396C48.2933 56.325 48.5625 57.3586 48.82 57.9718L48.9019 58.1587L48.7615 58.3047C48.6129 58.4446 48.4955 58.6142 48.4169 58.8023C48.3382 58.9904 48.3001 59.193 48.305 59.3967C48.3781 59.8553 48.6176 60.271 48.978 60.5647L49.2882 60.81L48.9838 61.0553C48.3518 61.5692 48.5274 62.6846 49.0307 63.5138C49.4228 64.1737 49.9436 64.5358 50.2889 64.3898L50.4996 64.3022L50.6459 64.4774C50.9245 64.7473 51.2497 64.9649 51.6057 65.1198C52.3599 65.4422 53.0029 65.9782 53.455 66.6615C54.2568 67.9988 56.586 69.4529 59.3074 70.3405V70.3055C59.3074 69.1959 59.3483 68.0513 59.3951 66.9243C59.3951 66.2176 59.4654 65.511 59.5005 64.8044C59.5766 63.4729 59.6527 62.0947 59.6585 60.7457C58.39 60.1291 57.1642 59.4287 55.9891 58.6493H56.0066Z" fill="black"/>
<path d="M48.7207 57.709C50.2657 56.8681 51.7814 57.7908 53.0397 58.7134C53.2504 58.8711 53.0397 59.2332 52.829 59.0755C51.7112 58.2579 50.3301 57.3236 48.9314 58.0711C48.6973 58.1995 48.4866 57.8141 48.7207 57.709Z" fill="black"/>
<path d="M49.1597 60.3544C49.7307 60.1855 50.3398 60.1946 50.9056 60.3803C51.4713 60.5661 51.9668 60.9197 52.3258 61.3939C52.4897 61.6041 52.1971 61.9019 52.0274 61.6859C51.7206 61.2633 51.2909 60.9453 50.7967 60.775C50.3025 60.6047 49.7677 60.5904 49.265 60.734C49.2223 60.7302 49.1817 60.7135 49.1487 60.6861C49.1157 60.6587 49.0919 60.6219 49.0804 60.5807C49.0689 60.5394 49.0704 60.4956 49.0846 60.4551C49.0987 60.4147 49.125 60.3795 49.1597 60.3544Z" fill="black"/>
<path d="M50.2128 63.3445L50.7044 64.0744C50.8507 64.3022 50.4879 64.5124 50.3416 64.2905L49.85 63.5547C49.6978 63.3328 50.0607 63.1225 50.2128 63.3445Z" fill="black"/>
<path d="M58.9565 59.7821C61.1502 60.2453 63.386 60.4801 65.6282 60.4829C76.1624 60.4829 79.6738 55.2271 82.0147 40.0436L93.7194 42.3795C93.1342 56.979 90.4421 72.9217 74.6408 73.5057C64.4577 73.8561 61.1219 72.0457 59.0736 70.8194C59.1906 67.6075 59.0151 62.994 58.9565 59.7821Z" fill="black"/>
<path d="M79.8495 73.2137H79.908C97.2309 70.761 95.8264 53.5335 95.4167 50.1464C95.3582 49.9128 95.1826 49.7376 94.9485 49.796C94.7144 49.8544 94.5388 50.0296 94.5974 50.2632C95.007 53.5335 96.3531 70.0602 79.8495 72.3961C79.6154 72.4545 79.4398 72.6297 79.4983 72.8633C79.4398 73.0385 79.592 73.2137 79.8495 73.2137Z" fill="black"/>
<path d="M79.6737 51.7231C79.7562 51.7216 79.8369 51.6994 79.9085 51.6586C79.9801 51.6178 80.0402 51.5596 80.0834 51.4895C81.497 48.3001 82.5757 44.9731 83.3022 41.5619C83.3213 41.5018 83.3275 41.4385 83.3205 41.3759C83.3136 41.3133 83.2935 41.2528 83.2616 41.1985C83.2297 41.1441 83.1867 41.0971 83.1354 41.0603C83.0841 41.0236 83.0257 40.9981 82.9639 40.9853C82.9021 40.9726 82.8383 40.9729 82.7766 40.9864C82.7149 40.9998 82.6568 41.026 82.6059 41.0633C82.555 41.1006 82.5126 41.1481 82.4813 41.2028C82.45 41.2575 82.4306 41.3182 82.4243 41.3808C81.7174 44.7335 80.6581 48.0024 79.2641 51.1333C79.2383 51.1866 79.224 51.2447 79.2219 51.3038C79.2199 51.3629 79.2302 51.4218 79.2522 51.4767C79.2743 51.5317 79.3075 51.5814 79.3498 51.6228C79.3922 51.6642 79.4427 51.6964 79.4981 51.7173L79.6737 51.7231Z" fill="white"/>
<path d="M85.7598 14.1089H85.7247L85.1395 13.9922C84.9288 13.963 84.7181 13.9338 84.5074 13.9162C83.347 13.8508 82.1859 14.0313 81.1005 14.446C80.0152 14.8607 79.0301 15.5002 78.2103 16.3222C77.9261 16.5864 77.662 16.8714 77.4202 17.1748C76.0391 18.8626 75.2666 21.0466 74.6989 23.1256C73.189 28.615 75.7757 33.8358 82.8102 33.8709C84.3413 33.852 85.8459 33.4697 87.1995 32.7555C88.0163 33.2271 88.967 33.4147 89.9023 33.289C90.8376 33.1632 91.7045 32.7311 92.3671 32.0605C93.9238 30.5889 94.2516 27.704 92.3027 26.355C92.4467 25.8094 92.5446 25.2526 92.5954 24.6907V24.6381C93.0518 19.6042 90.0496 15.1484 85.7598 14.1089Z" fill="white"/>
<path d="M91.027 33.538C90.4132 33.7727 89.7567 33.8759 89.1003 33.8406C88.4438 33.8054 87.8022 33.6327 87.2171 33.3336C85.8441 34.0019 84.338 34.3532 82.8103 34.3614C79.5272 34.3614 76.958 33.2635 75.3779 31.2021C73.7977 29.1406 73.3471 26.1039 74.2074 22.9796C74.7166 21.0992 75.5008 18.6991 77.0224 16.8362C77.2707 16.5148 77.5426 16.2122 77.8359 15.931C78.7073 15.0578 79.755 14.3796 80.9093 13.9416C82.0637 13.5036 83.2982 13.3158 84.5309 13.3907C84.7358 13.3907 84.9464 13.4374 85.1571 13.4666C85.3678 13.4958 85.6136 13.5483 85.8126 13.5951H85.8887C90.4535 14.7221 93.5552 19.4757 93.1105 24.6907C93.072 25.186 92.9977 25.6778 92.8881 26.1623C93.2603 26.4836 93.5643 26.876 93.7824 27.3162C94.0005 27.7565 94.1282 28.2358 94.158 28.726C94.2012 29.4134 94.0955 30.1019 93.8481 30.7449C93.6007 31.3878 93.2173 31.97 92.7242 32.4518C92.2329 32.9183 91.6568 33.287 91.027 33.538ZM87.2289 32.1715L87.4688 32.3C88.0625 32.6363 88.7359 32.807 89.4184 32.7942C90.101 32.7815 90.7675 32.5856 91.3481 32.2272C91.9287 31.8689 92.4019 31.3612 92.7182 30.7575C93.0344 30.1538 93.1821 29.4763 93.1456 28.7961C93.1258 28.3988 93.0154 28.0113 92.8227 27.6632C92.63 27.315 92.3601 27.0154 92.0336 26.7872L91.7351 26.5828L91.8288 26.2324C91.9586 25.7223 92.0486 25.203 92.098 24.679V24.6031C92.5018 19.9313 89.7161 15.6098 85.6604 14.617H85.5902C85.4146 14.5762 85.2449 14.547 85.0752 14.5178C84.9055 14.4886 84.6772 14.4594 84.49 14.4477C83.4023 14.3856 82.3139 14.5549 81.2968 14.9446C80.2797 15.3342 79.3573 15.9352 78.5908 16.7077C78.3218 16.9492 78.0696 17.2087 77.8359 17.4844C76.4371 19.2013 75.6998 21.4671 75.214 23.2483C74.4415 26.0631 74.8102 28.7318 76.2148 30.5714C77.6193 32.4109 79.8783 33.3219 82.822 33.3278C84.2757 33.3203 85.7064 32.9659 86.9948 32.2941L87.2289 32.1715Z" fill="black"/>
<path d="M81.8039 24.4338C82.1852 24.4338 82.4944 24.1253 82.4944 23.7447C82.4944 23.3641 82.1852 23.0556 81.8039 23.0556C81.4225 23.0556 81.1133 23.3641 81.1133 23.7447C81.1133 24.1253 81.4225 24.4338 81.8039 24.4338Z" fill="black"/>
<path d="M76.5541 26.2441C76.8907 24.7384 77.4426 23.2889 78.1928 21.9401C78.4093 21.5547 79.0238 21.87 78.778 22.2555C78.0715 23.5549 77.557 24.9495 77.2505 26.3959C77.2406 26.4415 77.2216 26.4847 77.1949 26.5231C77.1682 26.5614 77.1342 26.5941 77.0948 26.6194C77.0152 26.6703 76.9186 26.6876 76.8262 26.6674C76.7339 26.6473 76.6533 26.5914 76.6023 26.512C76.5513 26.4326 76.5339 26.3362 76.5541 26.2441Z" fill="black"/>
<path d="M87.5391 28.8837C88.1013 28.3229 88.8375 27.969 89.6273 27.8799C90.4172 27.7907 91.214 27.9717 91.8874 28.3931C92.262 28.6326 91.9518 29.2457 91.5714 29.0063C91.0343 28.6571 90.3943 28.5004 89.7562 28.562C89.1182 28.6235 88.5201 28.8996 88.06 29.345C87.7323 29.6545 87.1997 29.199 87.5391 28.8837Z" fill="black"/>
<path d="M92.4666 26.3959C92.2312 26.4796 91.9882 26.5403 91.7409 26.577C91.7409 26.577 89.4468 25.4557 88.7563 25.5317C86.1578 23.4001 85.8652 22.9271 84.6128 20.5036C83.6121 19.4874 79.732 19.2188 77.4261 17.1632C77.3263 16.8888 77.3234 16.5886 77.4182 16.3124C77.5129 16.0362 77.6995 15.8006 77.947 15.6449C79.6734 14.0331 82.1548 13.706 84.5133 13.8929C84.724 13.8929 84.9347 13.9396 85.1454 13.9688L85.7306 14.0856H85.7657C90.3247 15.1835 94.8076 19.8846 92.4666 26.3959Z" fill="black"/>
<path d="M91.4834 11.4344C87.0591 12.9293 85.2156 17.6129 86.5499 21.8759C86.6501 22.2471 86.8296 22.5922 87.0761 22.8876C87.3226 23.1829 87.6302 23.4215 87.9779 23.587C89.2596 24.8718 91.2728 25.4324 93.3035 25.2922L93.3386 25.3448C93.9307 26.1329 94.8051 26.6622 95.7791 26.8223C96.6691 26.9452 97.5748 26.7685 98.3528 26.32C99.1309 25.8716 99.7368 25.177 100.075 24.3462C100.455 23.4351 100.472 22.4135 100.121 21.4905C100.617 20.783 100.962 19.9816 101.135 19.136C101.308 18.2903 101.306 17.4181 101.128 16.5734C100.239 12.2636 95.5274 10.0678 91.4834 11.4344Z" fill="black"/>
</svg>
