<svg id="Слой_1" data-name="Слой 1" xmlns="http://www.w3.org/2000/svg" viewBox="0 0 275.97 283.62"><defs><style>.cls-1{fill:#ffdf00;}.cls-2{fill:#fff;}.cls-3{fill:#2b4df7;}</style></defs><path class="cls-1" d="M64,274.51H261.4s-11.79-86.1-113.77-81.18C60.3,197.53,64,274.51,64,274.51Z"/><path d="M130.24,26.63c9.79,20.51,31.36,5.66,31.32,23.19,0,25-44.39,18.05-43-7.1S130.24,26.63,130.24,26.63Z"/><g id="Hand_2" data-name="Hand 2"><path class="cls-2" d="M46.91,52.69C40.18,46,36,39,31.77,41.52c0,0-5.22-.84-4.77,1.91-3.61-2.86-4.95-6.4-7.32-5.14-4,2.11,7.9,17.18,7.9,17.18H24.23s-2.75-5.84-5.5-5.4.24,11,7.63,15.12c5.94,3.32,13.69,7.71,13.69,7.71Z"/><path d="M39.68,73.56S31.93,69.16,26,65.85c-6.52-3.64-9.5-11.58-8.95-14.7a1.93,1.93,0,0,1,1.56-1.82c2.84-.46,5.32,3.9,6.08,5.39h1.37c-2.5-3.31-8.64-11.9-7.87-15.52a2.23,2.23,0,0,1,1.14-1.57c2.06-1.09,3.48.47,5.13,2.28.61.67,1.27,1.4,2.05,2.11a2,2,0,0,1,.32-.41c1.2-1.21,3.9-1,4.8-.87,3.65-1.91,7,1.85,11.3,6.59,1.41,1.57,2.87,3.19,4.51,4.83l.33.33L40.47,74Zm2.14-25.22c-4.45-5-7.1-7.69-9.67-6.18l-.23.14-.27,0c-1.2-.19-3.16-.19-3.76.41a.64.64,0,0,0-.15.63l.32,1.92L26.54,44a26.39,26.39,0,0,1-3.19-3.1C21.66,39.06,21,38.45,20,39a.79.79,0,0,0-.38.56c-.57,2.7,4.93,10.93,8.52,15.49l1,1.22H23.75l-.2-.43c-.82-1.74-3-5.25-4.7-5-.2,0-.29.39-.33.6-.48,2.74,2.58,10,8.21,13.13,4.8,2.68,10.78,6.06,12.91,7.26l6.41-18.91C44.51,51.33,43.08,49.75,41.82,48.34Z"/><path d="M46.91,52.69C52.42,58,60.91,67.79,69,71c10.12,4,27.86-17.75,40.51-16.5l-3.2,21.88S95.67,98.23,76.11,102.6,36.53,72.6,36.4,72.46C39,66.59,42.29,56.6,46.91,52.69Z"/><path d="M35.89,73.06l-.37-.45.2-.45c.51-1.16,1.05-2.49,1.62-3.9,2.34-5.74,5.25-12.89,9.08-16.14l.52-.44.49.47c1,1,2.21,2.19,3.46,3.46,5.34,5.41,12,12.15,18.39,14.68,4.83,1.9,11.81-2.68,19.2-7.54,7.22-4.74,14.68-9.64,21.1-9l.78.07-3.31,22.66-.07.22c-.1.22-11,22.24-30.71,26.64a16.17,16.17,0,0,1-3.64.4C55.57,103.73,39.19,78.45,35.89,73.06Zm72.76-17.88C103,55.05,96,59.61,89.31,64c-7.73,5.08-15,9.88-20.59,7.68C62,69,55.26,62.18,49.83,56.66c-1-1-2-2-2.94-2.94-3.32,3.21-6,9.78-8.16,15.11-.52,1.28-1,2.49-1.48,3.57,3.62,5.89,21.52,33.31,38.69,29.47,18.31-4.09,28.83-24.14,29.64-25.74Z"/><path d="M27.5,43.38A18.16,18.16,0,0,1,31,47.75a.5.5,0,0,1-.86.51,17.68,17.68,0,0,0-3.32-4.18C26.32,43.65,27,42.94,27.5,43.38Z"/><path d="M32.71,41.71l3,3.3c.43.47-.27,1.18-.71.7q-1.51-1.65-3-3.29C31.57,41.94,32.27,41.23,32.71,41.71Z"/></g><path d="M99.35,244a29.37,29.37,0,0,1-5.45,13,10,10,0,0,1-.64.79,20.8,20.8,0,0,1-1.49,1.59c-.26.25-.52.49-.79.72a29.42,29.42,0,0,1-8.12,4.85c-6.26,2.71-6.58,9.65-6.58,9.65l49.43-.34c-.59-8.18-.59-23.68-.59-23.68C114.84,247.57,109.9,245.71,99.35,244Z"/><path class="cls-2" d="M93.9,257a10,10,0,0,1-.64.79l6,2.84c.58.27,1.12-.57.53-.84Z"/><path class="cls-2" d="M91.77,259.37c-.26.25-.52.49-.79.72l6.7,3.18c.57.27,1.11-.58.52-.85Z"/><path d="M167.89,239.45a29.45,29.45,0,0,1,8.91,10.88c.14.31.28.63.39.94a18,18,0,0,1,.71,2.06c.1.35.19.69.27,1a29.71,29.71,0,0,1,.49,9.45c-.54,6.8,5.44,10.33,5.44,10.33l22.83-43.85c-6.89-4.8-13.54-9.27-18.85-14.59A240.29,240.29,0,0,0,167.89,239.45Z"/><path class="cls-2" d="M94.39,136.82s11.9-5,21.74-6.34c-.62-8.62-.8-14.29-.8-14.29L147,118.3c3.37,19.51,4.78,47.75,19.17,72.74,6.51,11.29,17.74,20.29,29.38,30.37C189,230.35,178.55,242,172,250.88c-1.86-3.08-30.12-18-44.49-56.31.41,30.74,1.54,62.07,1.54,62.07L93.2,254.36S88.29,189.47,94.39,136.82Z"/><path d="M92.5,255.07l0-.65c0-.65-4.84-65.56,1.19-117.69l0-.43.41-.17c.11,0,11.54-4.86,21.24-6.3-.59-8.14-.75-13.56-.76-13.61l0-.83,33,2.2.1.58c.65,3.75,1.22,7.81,1.83,12.11,2.53,18,5.69,40.31,17.25,60.38,5.77,10,15.41,18.31,25.62,27.08l3.6,3.1.52.45-.41.56c-3.43,4.74-8,10.3-12.47,15.68-3.92,4.74-8,9.63-11.07,13.8l-.67.89-.58-1a26,26,0,0,0-3.7-3.1c-8.38-6.42-27.54-21.12-39.33-49.51.44,29,1.47,57.66,1.48,58l0,.83Zm35.67-60.77c11.45,30.51,31.71,46,40.36,52.67,1.59,1.23,2.69,2.07,3.38,2.72,3-4,6.86-8.64,10.56-13.12,4.26-5.15,8.65-10.46,12-15-1-.89-2-1.78-3.07-2.65-10.31-8.86-20-17.23-25.94-27.47-11.71-20.33-14.88-42.83-17.44-60.92-.57-4.06-1.11-7.92-1.72-11.49l-30.2-2c.07,1.87.29,6.79.77,13.42l.05.71-.7.09c-8.62,1.14-19,5.25-21.15,6.12-5.62,49.11-1.66,109.4-1.18,116.31l34.33,2.19c-.18-5.17-1.14-33.62-1.51-61.26l-.06-4.3Z"/><path class="cls-2" d="M176.8,250.33c.14.31.28.63.39.94l5.32-4c.51-.38,0-1.25-.5-.86Z"/><path class="cls-2" d="M177.9,253.33c.1.35.19.69.27,1l5.94-4.43c.51-.38,0-1.25-.5-.86Z"/><path d="M125.2,189.7a.86.86,0,0,0,.27,0,.75.75,0,0,0,.43-1c-7.14-18.46-9.77-39.77-9.79-40l-.08-.62-.62,0a58.43,58.43,0,0,1-9.29-1.31.76.76,0,0,0-.92.54.74.74,0,0,0,.53.91,55.88,55.88,0,0,0,9,1.32c.49,3.66,3.28,22.87,9.8,39.73A.75.75,0,0,0,125.2,189.7Z"/><polygon points="126.71 48.04 128.33 52.33 109.51 54.47 108.62 45.71 126.71 48.04"/><path d="M111.86,52.88c10.6-8.19,32.43,6,35.93,18.14s7.68,70.77,7.68,70.77l-64.34-.9s5.22-63.37,12.7-74.12S108.31,55.61,111.86,52.88Z"/><path class="cls-2" d="M97.8,87a.77.77,0,0,0,.74-.6c0-.06,1.26-6,4-15.19a.74.74,0,0,0-.5-.93.75.75,0,0,0-.94.5c-2.75,9.3-4,15.25-4,15.31a.74.74,0,0,0,.58.89Z"/><g id="Head"><path class="cls-2" d="M106,29.4c3.31-7.3,11.29-10.8,17.83-7.84s9.16,11.28,5.85,18.58l0,.07a8.45,8.45,0,0,1,1.74,1.14c3.25,2.8,2.61,6.9-.56,8.31a7.93,7.93,0,0,1-9.14-1.89,14.15,14.15,0,0,1-9.83.2C102.23,44.57,102.65,36.69,106,29.4Z"/><path d="M121.42,48.64a14.83,14.83,0,0,1-9.86,0c-3.83-1.36-6.4-3.52-7.64-6.43-1.48-3.48-1-7.91,1.36-13.16h0A16,16,0,0,1,113.36,21,12.82,12.82,0,0,1,131.12,29a16,16,0,0,1-.55,10.88,10,10,0,0,1,1.26.9,6.17,6.17,0,0,1,2.35,5.57,5.17,5.17,0,0,1-3.1,4,9.21,9.21,0,0,1-3.67.75A8.22,8.22,0,0,1,121.42,48.64ZM114,22.32a14.55,14.55,0,0,0-7.33,7.39c-2.2,4.85-2.65,8.87-1.34,12,1.07,2.5,3.34,4.38,6.76,5.59a13.33,13.33,0,0,0,9.31-.19l.49-.2.35.41A7.12,7.12,0,0,0,130.47,49a3.68,3.68,0,0,0,2.23-2.84,4.72,4.72,0,0,0-1.85-4.21,8.43,8.43,0,0,0-1.59-1.05l-.6-.4.3-.64a14.57,14.57,0,0,0,.73-10.38,11.55,11.55,0,0,0-6.21-7.21,11.09,11.09,0,0,0-4.59-1A12.2,12.2,0,0,0,114,22.32Z"/><circle cx="115.33" cy="33.69" r="1"/><path d="M107,34.57a23,23,0,0,1,4.31-5.08c.49-.43,1.17.3.69.72a22.33,22.33,0,0,0-4.15,4.89A.5.5,0,0,1,107,34.57Z"/><path d="M124.42,43.41a5.1,5.1,0,0,1,6.17,1.43c.39.51-.33,1.2-.73.69a4.1,4.1,0,0,0-5-1.25C124.32,44.55,123.83,43.68,124.42,43.41Z"/><path d="M130.58,39.77a25.19,25.19,0,0,1-11.16-13.16,19.74,19.74,0,0,1-.91-6.85,12,12,0,0,1,6,.81c6.62,2.78,9.48,11,6.39,18.4C130.84,39.24,130.7,39.5,130.58,39.77Z"/></g><g id="Cup"><path class="cls-3" d="M85.71,105.73h5.15a5.86,5.86,0,0,0,5.85-5.85V93.54a5.85,5.85,0,0,0-5.85-5.85H85.71a.75.75,0,1,0,0,1.5h5.15a4.35,4.35,0,0,1,4.35,4.35v6.34a4.35,4.35,0,0,1-4.35,4.35H85.71a.75.75,0,0,0,0,1.5Z"/><path class="cls-3" d="M80.7,86.79h0A8.19,8.19,0,0,1,88.88,95v12.81a0,0,0,0,1,0,0H72.51a0,0,0,0,1,0,0V95a8.19,8.19,0,0,1,8.19-8.19Z" transform="translate(161.39 194.58) rotate(180)"/><path class="cls-3" d="M71.76,99.61V86H89.63V99.61a8.94,8.94,0,0,1-17.87,0Zm1.5-12.07V99.61a7.44,7.44,0,0,0,14.87,0V87.54Z"/><path class="cls-2" d="M79.26,82.17a.74.74,0,0,0,.74-.64l1.44-9.88A.75.75,0,0,0,80,71.43l-1.43,9.88a.75.75,0,0,0,.63.85Z"/><path class="cls-2" d="M84.2,82.79a.73.73,0,0,0,.66-.4l2.25-4.25a.75.75,0,0,0-1.33-.7l-2.25,4.25a.76.76,0,0,0,.32,1A.85.85,0,0,0,84.2,82.79Z"/><path class="cls-2" d="M75.32,82.47a.75.75,0,0,1-.67-.4L72.4,77.82a.75.75,0,0,1,.32-1,.74.74,0,0,1,1,.31L76,81.37a.75.75,0,0,1-.31,1A.73.73,0,0,1,75.32,82.47Z"/></g><path class="cls-2" d="M92.43,97.89s-2.5-5.89.48-6.25c8.58-1,18.21,8.35,26.87,12.1,0,5.1-.42,10.21-.64,15.29-.13,3-.17,6.11-.22,9.16-7.34-2.21-13.3-6-15.38-9.42-1.84-3.07-5.09-3.34-6.63-5.13-3,1.25-7.25-6.5-3.87-9.25C93,104.39,89.2,101.39,92.43,97.89Z"/><path d="M118.71,128.91c-7.38-2.22-13.58-6-15.81-9.76A8.73,8.73,0,0,0,99.08,116a10.51,10.51,0,0,1-2.39-1.53c-1.47.26-3.13-.81-4.36-2.86-1.33-2.23-1.91-5.28-.36-7.22a5.65,5.65,0,0,1-1.57-3.26,4.68,4.68,0,0,1,1.17-3.4c-.44-1.16-1.41-4.14-.47-5.76a2.21,2.21,0,0,1,1.73-1.09c5.92-.71,12.18,3.24,18.25,7.06a70.05,70.05,0,0,0,9,5.09l.45.2v.49c0,3.43-.2,6.91-.38,10.28-.1,1.68-.19,3.37-.26,5-.11,2.69-.16,5.42-.2,8.07l0,2.07Zm-8.43-29.68c-5.84-3.68-11.89-7.48-17.28-6.84a.7.7,0,0,0-.6.35c-.53.92.1,3.39.72,4.86l.19.44L93,98.4A3.52,3.52,0,0,0,91.89,101a4.61,4.61,0,0,0,1.61,2.78l.74.58-.73.59c-1.5,1.23-1.09,3.89.11,5.88.94,1.58,2.18,2.44,3,2.1l.5-.21.35.41a7.76,7.76,0,0,0,2.29,1.55,9.92,9.92,0,0,1,4.41,3.68c1.93,3.2,7.49,6.67,14,8.8v-.08c0-2.65.09-5.4.2-8.1.07-1.68.17-3.37.26-5.06.17-3.19.36-6.48.38-9.71A76.72,76.72,0,0,1,110.28,99.23Z"/><path d="M92.93,97c3.68-2,7.3.2,10.3,2.41.52.38,0,1.24-.5.86-2.66-2-6-4.23-9.3-2.4C92.86,98.15,92.36,97.28,92.93,97Z"/><path d="M94,103.31a7,7,0,0,1,7.56,2.48c.39.5-.32,1.21-.71.71a6.06,6.06,0,0,0-6.59-2.23A.5.5,0,0,1,94,103.31Z"/><path d="M96.48,110.46c.39.59.79,1.17,1.18,1.75s-.51,1-.87.51L95.62,111C95.26,110.43,96.13,109.93,96.48,110.46Z"/><path d="M114.36,111.47c.87-3.07,1.58-6.17,2.29-9.28,4.34,2.38,8.51,3.87,12.26,2.58,10.5-3.63,14.38-22.75,2.25-32.25a34.77,34.77,0,0,1-13.22-22.38c19.1.75,37.53,12.25,46,35.5,9.62,26.37-2.9,39.83-12.84,44.49-11.38,5.33-32.32-.68-41-5.66C111.62,120.16,113.12,115.86,114.36,111.47Z"/><path class="cls-2" d="M125.74,105.71a18.74,18.74,0,0,0,8.27-2,12.23,12.23,0,0,0,6.61-7.3c1.63-5,.33-11.57-3.86-19.49a.75.75,0,0,0-1-.32.76.76,0,0,0-.32,1c3.94,7.45,5.24,13.78,3.76,18.33a10.76,10.76,0,0,1-5.84,6.41c-7.46,3.65-13.22.72-13.27.69a.76.76,0,0,0-1,.32.75.75,0,0,0,.32,1A14.48,14.48,0,0,0,125.74,105.71Z"/><path class="cls-2" d="M136.82,132.64a49,49,0,0,0,14.53-1.8.75.75,0,0,0,.49-.94.76.76,0,0,0-1-.49c-11.62,3.78-34.38.45-40.48-1.91a.74.74,0,0,0-1,.42.75.75,0,0,0,.42,1C114.18,130.56,125.9,132.64,136.82,132.64Z"/></svg>