<svg id="Слой_1" data-name="Слой 1" xmlns="http://www.w3.org/2000/svg" viewBox="0 0 261.54 191.91"><defs><style>.cls-1{fill:#2b4df7;}.cls-2{fill:#ffdf00;}.cls-3{fill:#fff;}.cls-4{fill:none;stroke:#2b4df7;stroke-miterlimit:10;stroke-width:1.5px;}</style></defs><polygon class="cls-1" points="183.77 10.46 147.46 10.46 162.05 30.15 185.49 12.78 183.77 10.46"/><polygon class="cls-2" points="221.91 81.76 236.19 68.77 220.29 62.38 221.91 81.76"/><polygon class="cls-3" points="142.56 17.28 131.45 20.79 142.56 27.8 142.56 17.28"/><path d="M143.13,28.82l-13-8.2,13-4.11ZM132.78,21,142,26.78V18.05Z"/><circle class="cls-3" cx="207.54" cy="45.17" r="8.86"/><path d="M207.54,54.59A9.43,9.43,0,1,1,217,45.17,9.44,9.44,0,0,1,207.54,54.59Zm0-17.72a8.3,8.3,0,1,0,8.3,8.3A8.3,8.3,0,0,0,207.54,36.87Z"/><path d="M177.81,21.85h0a.56.56,0,0,1-.56-.56l0-6.27a.57.57,0,0,1,.56-.56h0a.57.57,0,0,1,.56.57l0,6.26A.56.56,0,0,1,177.81,21.85Z"/><path d="M181,18.74h0l-6.26,0a.56.56,0,0,1,0-1.12h0l6.26,0a.56.56,0,1,1,0,1.12Z"/><path d="M228.58,24.17a.6.6,0,0,1-.44-.2.57.57,0,0,1,.08-.8l6.57-5.44a.56.56,0,0,1,.72.86L228.94,24A.57.57,0,0,1,228.58,24.17Z"/><path d="M247.55,42.89a.55.55,0,0,1-.46-.24l-3.2-4.45a.56.56,0,0,1,.92-.65L248,42a.57.57,0,0,1-.45.9Z"/><rect class="cls-3" x="187.83" y="92.47" width="9.26" height="9.26" transform="translate(-23.07 93.13) rotate(-25.72)"/><path d="M190,104l-4.5-9.36,9.36-4.51,4.51,9.37Zm-3-8.83,3.53,7.33L197.89,99l-3.53-7.33Z"/><polygon class="cls-2" points="170.32 150.71 163.33 158.1 174.97 160.13 170.32 150.71"/><path class="cls-4" d="M216.4,167.55a6.29,6.29,0,1,0-6.29-6.29A6.29,6.29,0,0,0,216.4,167.55Z"/><path d="M216.4,141.36a.55.55,0,0,1-.42-.2l-3.6-4.13a.56.56,0,0,1,.05-.79.57.57,0,0,1,.8,0l3.6,4.13a.57.57,0,0,1-.43.94Z"/><polygon class="cls-2" points="44.71 99.87 43 84.75 30.12 94.03 44.71 99.87"/><path d="M54.57,93a.56.56,0,0,1-.52-.35l-2.63-6.2a.56.56,0,0,1,.3-.74.55.55,0,0,1,.73.3l2.63,6.2a.56.56,0,0,1-.29.74A.63.63,0,0,1,54.57,93Z"/><path class="cls-1" d="M17.38,103.76A5.23,5.23,0,1,0,22.61,109,5.24,5.24,0,0,0,17.38,103.76Z"/><path d="M33.16,134.62a.56.56,0,0,1-.57-.56v-3.93a.57.57,0,0,1,1.13,0v3.93A.56.56,0,0,1,33.16,134.62Z"/><path d="M210.67,83.12a.55.55,0,0,1-.36-.13.57.57,0,0,1-.07-.8l3.93-4.63a.56.56,0,0,1,.86.73l-3.93,4.63A.57.57,0,0,1,210.67,83.12Z"/><g id="Lines"><path class="cls-2" d="M174,45.42a.57.57,0,0,1-.25-.06.55.55,0,0,1-.25-.75l3.58-7.25a.56.56,0,1,1,1,.49l-3.58,7.26A.56.56,0,0,1,174,45.42Z"/><path class="cls-2" d="M177.84,50.27a.56.56,0,0,1-.35-1l4.78-3.9a.55.55,0,0,1,.79.08.56.56,0,0,1-.08.79l-4.78,3.91A.58.58,0,0,1,177.84,50.27Z"/></g></svg>