<svg id="Слой_1" data-name="Слой 1" xmlns="http://www.w3.org/2000/svg" viewBox="0 0 457.69 425.44"><defs><style>.cls-1{fill:#2b4df7;}.cls-2{fill:#ffdf00;}.cls-3,.cls-4{fill:#fff;}.cls-4{stroke:#000;stroke-miterlimit:10;}</style></defs><path class="cls-1" d="M98.45,73.81a4.91,4.91,0,0,0-3.9-3c-4.7-.9-10.8-.9-14.7,2.2-3.5,2.8-4.7,8.3-1.4,11.8a6.72,6.72,0,0,0,5.1,2.3,6.75,6.75,0,0,0,6.8,4.3,12.19,12.19,0,0,0,10.4-6.7C102.65,81.11,102.45,75.71,98.45,73.81Z"/><path class="cls-2" d="M79,339.4h324.2S383.86,198,216.38,206.07C73,213,79,339.4,79,339.4Z"/><g id="Legs"><path class="cls-3" d="M174.22,346.3l-55.44-.5c.11-1.56.22-3.35.3-5.26l0-1.12c.36-9.13.38-20.18.38-20.18,11.54-3.34,17.09-5.42,28.92-7.28a33,33,0,0,0,6.08,14.56c.23.3.48.61.72.88a22.29,22.29,0,0,0,1.67,1.79c.29.28.58.55.89.81a33.49,33.49,0,0,0,9.09,5.47,11.67,11.67,0,0,1,5,4.06c.25.37.48.75.68,1.12A14.06,14.06,0,0,1,174.22,346.3Z"/><path d="M175.1,347.15l-57.23-.52.07-.89c.11-1.58.22-3.4.3-5.24l0-1.11c.35-9,.38-20,.38-20.15v-.63l.61-.18,6.3-1.86a151.25,151.25,0,0,1,22.72-5.44l.81-.13.15.81a32.73,32.73,0,0,0,5.91,14.2l.11.14c.19.23.38.47.58.68a22.24,22.24,0,0,0,1.62,1.75c.28.27.56.53.85.78a32.48,32.48,0,0,0,8.89,5.33,12.51,12.51,0,0,1,5.31,4.35,13.7,13.7,0,0,1,.74,1.21,14.76,14.76,0,0,1,1.81,6ZM119.68,345l53.6.48a13.79,13.79,0,0,0-1.51-4.39,10.53,10.53,0,0,0-.64-1.05,10.76,10.76,0,0,0-4.6-3.77,34.37,34.37,0,0,1-9.32-5.61c-.3-.26-.61-.54-.91-.84a21.14,21.14,0,0,1-1.73-1.85c-.19-.21-.41-.48-.62-.74l-.12-.15a33.82,33.82,0,0,1-6.09-14.13,151.81,151.81,0,0,0-21.7,5.26c-1.76.53-3.64,1.09-5.71,1.69,0,2.48-.07,11.78-.38,19.58l0,1.12C119.85,342.09,119.77,343.6,119.68,345Z"/><path d="M154.49,326.52c.24.3.48.61.73.88l-6.74,3.18c-.64.3-1.24-.64-.58-.95Z"/><path d="M156.88,329.19l.88.81-7.52,3.55c-.64.3-1.24-.65-.58-.95Z"/><path class="cls-3" d="M109,351.38,56.09,334.86c.6-1.54,1.25-3.34,1.92-5.26.11-.35.24-.7.37-1.05,2.95-8.58,6.09-18.9,6.09-18.9,12,.13,17.91-.26,29.79,1.39-.72,6.59,0,11.67,1.6,15.7.14.35.28.72.44,1.05A20.28,20.28,0,0,0,97.38,330c.2.36.39.7.61,1a33.28,33.28,0,0,0,7.13,7.85,11.65,11.65,0,0,1,3.85,6.39,12.43,12.43,0,0,1,.24,1.25A14.28,14.28,0,0,1,109,351.38Z"/><path d="M109.62,352.44,55,335.39l.33-.84c.56-1.44,1.2-3.2,1.9-5.23.12-.34.25-.7.39-1.07,2.89-8.44,6-18.75,6.06-18.85l.19-.6h.63c2.41,0,4.58,0,6.6,0a150.24,150.24,0,0,1,23.29,1.37l.81.11-.08.81a32.17,32.17,0,0,0,1.55,15.31c.13.33.26.68.41,1a23.55,23.55,0,0,0,1,2.13c.2.36.39.68.59,1a32.64,32.64,0,0,0,7,7.66,12.3,12.3,0,0,1,4.13,6.85,10.78,10.78,0,0,1,.25,1.32,14.83,14.83,0,0,1-.2,5.19ZM57.2,334.32l51.17,16a14.25,14.25,0,0,0,0-3.67,9.29,9.29,0,0,0-.21-1.14,10.78,10.78,0,0,0-3.59-6,34.37,34.37,0,0,1-7.3-8.05c-.21-.34-.41-.68-.61-1a23.07,23.07,0,0,1-1.13-2.28c-.16-.34-.31-.72-.45-1.09a33.7,33.7,0,0,1-1.74-15.27,148.3,148.3,0,0,0-22.27-1.24c-1.84,0-3.81,0-6,0-.72,2.34-3.4,11-5.91,18.33-.14.37-.26.7-.37,1Q57.94,332.38,57.2,334.32Z"/><path d="M95.86,326.74c.14.35.28.72.44,1.05l-7.36,1.09c-.71.11-1-1-.29-1.08Z"/><path d="M97.38,330c.2.36.4.7.61,1l-8.23,1.22c-.7.11-1-1-.29-1.07Z"/><path d="M78.66,172.1c-1.94,34.4-19,140.18-19,140.18l43.9,12.06s23.26-122.23,15.68-154C115.75,155.57,78.66,172.1,78.66,172.1Z"/><path d="M144.47,171.11C150.78,196.55,155.39,317,155.39,317l-40.4,5.9S108.24,179.64,106.18,171,144.47,171.11,144.47,171.11Z"/><path class="cls-3" d="M112.63,271.27h-.1a.83.83,0,0,1-.73-.93c2.48-21,7.44-80,7.49-80.64l0-.61.6-.14s4.87-1.12,8.16-2.21a.85.85,0,0,1,1.06.54.84.84,0,0,1-.53,1.06c-2.71.9-6.3,1.77-7.71,2.11-.54,6.35-5.1,60.24-7.45,80.08A.85.85,0,0,1,112.63,271.27Z"/><path class="cls-3" d="M81.82,280.68a47.94,47.94,0,0,1-12.58-2.25.84.84,0,1,1,.46-1.62c9,2.59,14.62,2.87,17.57.9s3.31-5.9,3.9-11c.12-1,.25-2.1.4-3.2,1.14-8.31-1.53-8.72-10.35-10.09-2.62-.41-5.58-.87-9.07-1.64a.84.84,0,0,1,.36-1.64c3.44.76,6.37,1.21,9,1.62,8.74,1.35,13.13,2,11.76,12-.14,1.08-.27,2.14-.39,3.17-.61,5.29-1.14,9.85-4.63,12.18A11.21,11.21,0,0,1,81.82,280.68Z"/><path d="M109.21,346.51,58,329.6c.11-.35.24-.7.37-1.05L109,345.26A12.43,12.43,0,0,1,109.21,346.51Z"/><path d="M172.51,340.65l-53.43-.11,0-1.12,52.72.11C172.08,339.9,172.31,340.28,172.51,340.65Z"/></g><g id="Backpack"><rect class="cls-4" x="46.49" y="89.61" width="59.21" height="95.59" rx="21.68" transform="translate(0.28 -0.16) rotate(0.12)"/><path d="M53.14,148.6a.75.75,0,0,1-.75-.75l.07-36.2A15.73,15.73,0,0,1,68.21,96a.75.75,0,0,1,0,1.5A14.23,14.23,0,0,0,54,111.65l-.07,36.2A.75.75,0,0,1,53.14,148.6Z"/><path class="cls-1" d="M42.39,144.83H60a0,0,0,0,1,0,0v26.53a0,0,0,0,1,0,0H52.57a10.17,10.17,0,0,1-10.17-10.17V144.83A0,0,0,0,1,42.39,144.83Z" transform="translate(0.33 -0.11) rotate(0.12)"/></g><g id="Hand"><path class="cls-2" d="M116.23,91.88c18.52,4.55,28,20.47,32.88,34.32,3.44,9.78,15.21,31.82,23.07,34.72L157.4,171.08s-19.77-9.3-24.05-25.15S116.23,91.88,116.23,91.88Z"/><path class="cls-2" d="M157.47,172l-.43-.2c-.82-.39-20.18-9.65-24.5-25.7-4.22-15.64-17-53.61-17.11-54l-.49-1.27,2.39.34c19.19,4.72,27.9,21.4,32.57,34.7,3.59,10.21,15.17,31.48,22.58,34.22l1.52.56ZM117.52,93.09c2.41,7.21,12.89,38.7,16.64,52.62s20.29,22.93,23.17,24.4l13.18-9.06c-8.34-4.88-19.16-25.94-22.2-34.57C143.9,113.93,135,98.13,117.52,93.09Z"/></g><g id="Body"><path class="cls-2" d="M140.67,130.68c-4.1-16.93-11.25-34-24.44-38.8a43.14,43.14,0,0,0-9.44-.78c-.38,0-.77,0-1.14.07a19.44,19.44,0,0,1-6.18.76h0c-24.86,7.6-35.42,24-40.5,45.44a45.27,45.27,0,0,0-1.12,7.42l4.19-.25c5-.3,10.07-.61,15.1-.89a289.07,289.07,0,0,0-2.55,33.84l7.65-.29,63.59-2.37S145.91,152.34,140.67,130.68Z"/><path class="cls-2" d="M73.75,178.37v-.88a291.75,291.75,0,0,1,2.42-33l-9.84.58-9.38.56.07-1a45.19,45.19,0,0,1,1.13-7.55c5.91-24.91,18.52-39.1,40.87-46l.55-.1a18.65,18.65,0,0,0,5.85-.73l.16,0c.39,0,.79-.06,1.18-.07a43.61,43.61,0,0,1,9.62.79l.14,0c11.22,4.09,19.62,17.35,25,39.4h0c5.2,21.52,5.18,44.13,5.18,44.36v.8Zm4.36-35.62-.14,1a292.55,292.55,0,0,0-2.52,32.86L145,174c0-4.2-.53-24.11-5.13-43.14h0C134.66,109.45,126.64,96.6,116,92.69a41.93,41.93,0,0,0-9.18-.75c-.36,0-.7,0-1,.06a20.18,20.18,0,0,1-6.24.78c-21.74,6.7-34,20.51-39.77,44.78a43.3,43.3,0,0,0-1,6.33l7.46-.45c3.62-.21,7.24-.43,10.86-.63Z"/><path class="cls-4" d="M88,95.33c10.71,9.28,13.18,25.46,7.32,37.8-4.39,9.25-11.68,16.3-19.89,22.12l-3.81,6.23c-.33,1.19-.65,2.38-1,3.57,13.25-8,25.61-18.24,31.24-33.1,5.15-13.61,2.45-29.88-10.68-39.77"/><path class="cls-3" d="M141.88,144.72a.84.84,0,0,1-.83-.72c0-.23-3.44-23.33-6.81-32.31a.84.84,0,1,1,1.57-.59c3.44,9.15,6.76,31.7,6.9,32.66a.84.84,0,0,1-.71,1Z"/><path class="cls-3" d="M116.23,91.88l-.2.62-2.25,7L112,104.91l-9.22-9.54-2.65-2.73-.68-.71a44,44,0,0,1,6.18-.76c.37,0,.76-.06,1.14-.07A43.14,43.14,0,0,1,116.23,91.88Z"/><path d="M112.39,106.5,97.79,91.4l1.52-.29a43.73,43.73,0,0,1,6.3-.78c.36,0,.76-.06,1.15-.07a43.61,43.61,0,0,1,9.62.79l1,.17Zm-11.22-14,10.48,10.84,3.48-10.78a40.43,40.43,0,0,0-8.3-.6c-.38,0-.75,0-1.1.07A45.41,45.41,0,0,0,101.17,92.48Z"/></g><g id="Hand_2" data-name="Hand 2"><path class="cls-3" d="M134.58,160.85s-10.5,9.77-21.31,10.14a20.37,20.37,0,0,1-5.64-.65c.1,7.84.16,15.67.35,23.5a80.05,80.05,0,0,0,32.75-5.49C186.49,171,134.58,160.85,134.58,160.85Z"/><path d="M111.67,194.79c-1.25,0-2.49,0-3.73-.11l-.78,0,0-.78c-.14-6-.22-12.09-.28-18l-.09-6.62,1.07.27a19.29,19.29,0,0,0,5.4.62c10.38-.35,20.66-9.82,20.76-9.92l.32-.29.42.08c1,.2,24.91,5,25.67,14.07.42,5-5.91,9.95-19.38,15A82.35,82.35,0,0,1,111.67,194.79ZM108.8,193a79.65,79.65,0,0,0,31.63-5.48c15.56-5.89,18.54-10.5,18.31-13.33-.54-6.36-17.05-11.07-23.91-12.47-1.89,1.68-11.47,9.73-21.53,10.07a20.58,20.58,0,0,1-4.82-.43l.06,4.46C108.6,181.49,108.67,187.31,108.8,193Z"/><path class="cls-2" d="M109.09,169.31c-9.45-1.67-18.13-8.55-19.35-18.89C89,144,91.24,136.62,94.36,130a155.18,155.18,0,0,0-22-21.23c-6.73,7.86-10.81,17.56-13.43,28.59-6.86,28.89,15.48,58.83,52.14,58.29C109.89,187.91,110.24,177.08,109.09,169.31Z"/><path class="cls-2" d="M110,196.51c-17.33,0-32.86-7-42.72-19.35a46.39,46.39,0,0,1-9.16-40C61,125,65.49,115.55,71.76,108.23l.52-.61.64.49A154.53,154.53,0,0,1,95,129.46l.36.42-.23.49c-3.67,7.77-5.19,14.48-4.55,19.95,1.24,10.48,10.27,16.68,18.67,18.17l.6.1.08.6c.57,3.84.78,8.48,1,13a128.48,128.48,0,0,0,1,13.37l.15,1H110ZM72.52,109.94c-5.82,7-10,16.08-12.73,27.62a44.71,44.71,0,0,0,8.83,38.54c9.54,11.9,24.6,18.69,41.42,18.73h.09c-.52-3.81-.72-8.27-.91-12.6s-.38-8.56-.88-12.2c-8.83-1.79-18.13-8.42-19.44-19.51-.67-5.67.83-12.52,4.46-20.37A153.41,153.41,0,0,0,72.52,109.94Z"/><path class="cls-3" d="M107.63,171.18a.9.9,0,0,1-.28,0,34.63,34.63,0,0,1-16.68-14c-5.43-9.17-.89-23.93,5.17-34.68a.84.84,0,1,1,1.46.82c-5.82,10.35-10.24,24.45-5.18,33a33.45,33.45,0,0,0,15.79,13.3.83.83,0,0,1,.51,1.07A.81.81,0,0,1,107.63,171.18Z"/></g><g id="Tablet"><path class="cls-3" d="M177.79,183.07l-64.42-6.37a2.47,2.47,0,0,1-1.57-4.12L135,147.39a2.46,2.46,0,0,1,2.06-.78L201.44,153a2.46,2.46,0,0,1,1.57,4.12l-23.17,25.19A2.47,2.47,0,0,1,177.79,183.07Z"/><path d="M178,183.92a1.56,1.56,0,0,1-.31,0l-64.42-6.36a3.31,3.31,0,0,1-2.11-5.53l23.18-25.19a3.29,3.29,0,0,1,2.75-1l64.42,6.37a3.3,3.3,0,0,1,2.1,5.52l-23.17,25.19A3.3,3.3,0,0,1,178,183.92Zm-.15-1.69a1.6,1.6,0,0,0,1.35-.52l23.17-25.19a1.62,1.62,0,0,0-1-2.71L137,147.44a1.66,1.66,0,0,0-1.36.52l-23.17,25.19a1.62,1.62,0,0,0,1,2.71Z"/><path d="M191.57,157.93l-7.87,8.56-9.44,10.25a1.42,1.42,0,0,1-.5.38,1.72,1.72,0,0,1-1,.2l-48.1-4.74a1.85,1.85,0,0,1-1.17-3.08l17.31-18.81a1.85,1.85,0,0,1,1.52-.58l48.09,4.76A1.83,1.83,0,0,1,191.57,157.93Z"/></g><g id="Thumb"><path class="cls-3" d="M117.35,178.46c5.41-6.76,24.28-16.16,24.85-10.35.3,3-5.81,4.88-5.81,4.88l-2.83,10"/><path d="M133.56,183.83a.91.91,0,0,1-.23,0,.84.84,0,0,1-.58-1l3-10.44.44-.14c1.41-.42,5.4-2.08,5.21-4a1,1,0,0,0-.82-.93c-4.07-1.21-18,6-22.54,11.73a.84.84,0,0,1-1.18.13.85.85,0,0,1-.13-1.19c4.68-5.84,19.28-13.79,24.33-12.28a2.66,2.66,0,0,1,2,2.38c.31,3.19-4.38,5.08-6,5.62l-2.71,9.57A.84.84,0,0,1,133.56,183.83Z"/></g><g id="Palm"><path class="cls-3" d="M173.05,150.17c-2.27-10.59,19-4.12,24.08,2.38Z"/><path d="M199,153.58l-26.63-2.64-.13-.6c-.6-2.79.28-4.89,2.48-5.91,5.56-2.6,19.1,2.48,23.08,7.6Zm-25.22-4.19,21.13,2.09c-4.8-4-15.13-7.55-19.48-5.53A3,3,0,0,0,173.77,149.39Z"/><path class="cls-3" d="M172.88,149.25c2.15,3.75,6.62,8.6,10.17,7.67s-3.35-9-3.35-9"/><path d="M182.13,157.88c-3.84,0-8-4.72-10-8.21a.84.84,0,0,1,1.46-.83c2,3.49,6.2,8.06,9.23,7.27.29-.08.33-.2.35-.27.36-1.14-1.86-4.71-4.13-7.35a.84.84,0,0,1,1.28-1.1c.89,1,5.28,6.34,4.46,9a2.06,2.06,0,0,1-1.54,1.39A4.79,4.79,0,0,1,182.13,157.88Z"/></g><path class="cls-2" d="M183.7,166.49l-9.44,10.25a1.42,1.42,0,0,1-.5.38l-9.86-16.27s12.14-9.66,18.35,1.78A14.57,14.57,0,0,1,183.7,166.49Z"/><path class="cls-3" d="M159.59,174.89a.88.88,0,0,1-.49-.15.85.85,0,0,1-.19-1.18l2.11-3a.84.84,0,1,1,1.37,1l-2.11,3A.86.86,0,0,1,159.59,174.89Z"/><path class="cls-3" d="M141.84,163.51a.83.83,0,0,1-.63-.29l-3.3-3.78a.85.85,0,0,1,.09-1.19.83.83,0,0,1,1.18.09l3.3,3.78a.84.84,0,0,1-.09,1.18A.82.82,0,0,1,141.84,163.51Z"/><path d="M159.63,156a.84.84,0,0,1-.74-1.25l6.16-11.19a.84.84,0,0,1,1.47.81l-6.15,11.19A.85.85,0,0,1,159.63,156Z"/><polygon class="cls-3" points="133.94 152.4 149.8 143.89 149.39 160.88 133.94 152.4"/><path d="M150.2,162.28l-18-9.88,18.49-9.93Zm-14.49-9.87,12.87,7.06.34-14.15Z"/><rect class="cls-3" x="148.83" y="163.69" width="6.83" height="6.83" transform="translate(-51.78 69.76) rotate(-22.16)"/><g id="Head"><path class="cls-3" d="M123.43,73.69c.47-3.8.68-7.91-.43-11.61a14.94,14.94,0,0,0-.72-1.93A14.57,14.57,0,0,0,113.59,52c-.35-.12-.72-.21-1.09-.3l-1-.21h-.06c-7.74-1.18-15.66,4.11-18.36,12.66a.41.41,0,0,1,0,.08,18.91,18.91,0,0,0-.66,2.93c-4.09.91-5.51,5.86-4,9.33a7.55,7.55,0,0,0,8,4.63,17.21,17.21,0,0,0,6.49,4.76C114.42,90.57,122.17,83.77,123.43,73.69Z"/><path d="M90.6,80.56a9,9,0,0,1-3-3.74,8.43,8.43,0,0,1,.17-7.08,6.43,6.43,0,0,1,3.81-3.35,18.36,18.36,0,0,1,.59-2.48l0-.13c2.76-8.76,11-14.46,19.25-13.26l.16,0,1.1.22c.45.11.82.21,1.17.32a15.41,15.41,0,0,1,9.24,8.69,14.86,14.86,0,0,1,.77,2c1.23,4.08.89,8.55.46,12-.71,5.71-3.44,10.34-7.49,12.7s-8.93,2.39-14.3.18A18.07,18.07,0,0,1,96,82,8.47,8.47,0,0,1,90.6,80.56Zm3.29-16.07a18.2,18.2,0,0,0-.62,2.75l-.09.63-.62.14a4.65,4.65,0,0,0-3.18,2.55,6.74,6.74,0,0,0,6.93,9.59l.48-.05.31.37A16.3,16.3,0,0,0,103.24,85c4.83,2,9.21,2,12.68-.07s6-6.2,6.6-11.34h0c.41-3.25.73-7.47-.4-11.22a12.38,12.38,0,0,0-.68-1.82,13.64,13.64,0,0,0-8.13-7.7c-.32-.1-.65-.19-1-.27s-.64-.14-1-.19l-.11,0c-7.37-1.12-14.83,4-17.34,12Z"/><circle cx="111.37" cy="69.93" r="1.23"/><path d="M118.27,77.57a28.25,28.25,0,0,0,.23-8.16.61.61,0,0,0-1.22.1,26.83,26.83,0,0,1-.22,7.85A.61.61,0,0,0,118.27,77.57Z"/><path d="M98.51,74.49a6.25,6.25,0,0,0-6.8-3.73c-.77.13-.68,1.36.1,1.22a5,5,0,0,1,5.54,2.92C97.66,75.63,98.82,75.22,98.51,74.49Z"/><path class="cls-1" d="M92.12,67.09l.24,0h0c1.11.11,5.34.46,6.42,1.05,5.69-1.75,6.49-2.33,10.18-5.46,2.33-1,8.86,1.18,14-.64a2.26,2.26,0,0,0,.17-2.83c-1.73-3.82-5.58-6-9.58-7.29-.35-.12-.72-.21-1.09-.3l-1-.21h-.06C103.21,50.1,92.71,54.83,92.12,67.09Z"/><path class="cls-1" d="M104.44,68.73a5.39,5.39,0,0,0-1.09-3.5A3.08,3.08,0,0,0,99,65s0,0,0,0a2.24,2.24,0,0,0-1.54,1.48A6.93,6.93,0,0,0,97,69.68a4,4,0,0,0,2.43,3A3.83,3.83,0,0,0,104.44,68.73Z"/></g><g id="Hat"><path d="M130.21,59.35s-28.1,13-47.9,8.9a15.67,15.67,0,0,1,5.08-5.68L89.46,54l29.07-7.84,3.61,7.26.34.71a16.75,16.75,0,0,1,1.64.67A16.94,16.94,0,0,1,130.21,59.35Z"/><path class="cls-3" d="M124.12,54.82c-7.47,2.06-23.34,6.29-33,7.8a.9.9,0,0,1-.66-.16.91.91,0,0,1,.39-1.66c9-1.39,23.42-5.19,31.31-7.36l.34.71A16.75,16.75,0,0,1,124.12,54.82Z"/></g><g id="Chair"><path class="cls-3" d="M338.48,310.05v28.58c0,4.29,6.66,4.3,6.66,0V310.05C345.14,305.76,338.48,305.75,338.48,310.05Z"/><path d="M341.81,342.48a3.78,3.78,0,0,1-4-3.85V310.05a4,4,0,0,1,7.91,0v28.58A3.78,3.78,0,0,1,341.81,342.48Zm0-35a2.52,2.52,0,0,0-2.71,2.6v28.58a2.71,2.71,0,0,0,5.41,0V310.05A2.52,2.52,0,0,0,341.81,307.45Z"/><path class="cls-3" d="M308.8,366.41v-2.94a7.39,7.39,0,0,1,7.39-7.39h42.4a7.39,7.39,0,0,1,7.39,7.39v2.94"/><path d="M366.61,366.41h-1.25v-2.94a6.78,6.78,0,0,0-6.77-6.77h-42.4a6.78,6.78,0,0,0-6.77,6.77v2.94h-1.25v-2.94a8,8,0,0,1,8-8h42.4a8,8,0,0,1,8,8Z"/><circle class="cls-3" cx="308.8" cy="366.41" r="5.07"/><path d="M308.8,372.11a5.7,5.7,0,1,1,0-11.4c3.67,0,5.7,2,5.7,5.7A5.71,5.71,0,0,1,308.8,372.11Zm0-10.15a4.45,4.45,0,1,0,4.45,4.45C313.25,363.41,311.79,362,308.8,362Z"/><circle class="cls-3" cx="337.39" cy="366.41" r="5.07"/><path d="M337.39,372.11a5.7,5.7,0,0,1,0-11.4c3.68,0,5.7,2,5.7,5.7A5.71,5.71,0,0,1,337.39,372.11Zm0-10.15a4.45,4.45,0,1,0,4.45,4.45C341.84,363.41,340.39,362,337.39,362Z"/><circle class="cls-3" cx="365.98" cy="366.41" r="5.07"/><path d="M366,372.11a5.7,5.7,0,0,1,0-11.4c3.67,0,5.69,2,5.69,5.7A5.7,5.7,0,0,1,366,372.11ZM366,362a4.45,4.45,0,1,0,4.44,4.45C370.43,363.41,369,362,366,362Z"/><rect class="cls-3" x="292.96" y="293.14" width="78.36" height="20.52" rx="10.26"/><path d="M361.06,314.28H303.21a10.88,10.88,0,1,1,0-21.76h57.85a10.88,10.88,0,1,1,0,21.76Zm-57.85-20.51a9.63,9.63,0,1,0,0,19.26h57.85a9.63,9.63,0,1,0,0-19.26Z"/><rect class="cls-3" x="319.69" y="229.69" width="51.62" height="44.56" rx="19.99"/><path d="M354.67,274.88H336.33a17.28,17.28,0,0,1-17.26-17.26V246.34a17.28,17.28,0,0,1,17.26-17.27h18.34a17.29,17.29,0,0,1,17.27,17.27v11.28A17.28,17.28,0,0,1,354.67,274.88Zm-18.34-44.56a16,16,0,0,0-16,16v11.28a16,16,0,0,0,16,16h18.34a16,16,0,0,0,16-16V246.34a16,16,0,0,0-16-16Z"/></g><g id="Body-2" data-name="Body"><polygon points="327.48 183.88 330.53 191.25 307.69 194.72 306.37 181.16 327.48 183.88"/></g><g id="Legs-2" data-name="Legs"><path class="cls-3" d="M338.77,252.22c3.7,14.8,6.4,43.8-11.6,46.4s-64.1,5-64.1,5-9.3,55-14,65.3H202a13.41,13.41,0,0,1,8.2-10.3c7.4-3,11.9-8,13.9-43s3.2-52.1,32.9-56.6C286.87,254.42,338.77,252.22,338.77,252.22Z"/><path d="M201.37,368.82a13.83,13.83,0,0,1,8.7-10.9c6.8-2.7,11.4-7.1,13.4-42.3,2-33.9,3-52.6,33.6-57.3,29.3-4.5,81.2-6.8,81.7-6.8h.6l.1.6c3.2,12.8,4.6,31.1-1.8,40.7a14.91,14.91,0,0,1-10.4,6.6c-16.7,2.5-58,4.7-63.5,5-1.1,6.3-9.5,55.1-13.9,64.9l-.2.4h-48.4Zm61.1-65.4.1-.6h.6c.5,0,46.2-2.4,64-5a12.67,12.67,0,0,0,9.4-5.9c6-9,4.7-26.5,1.7-39-6,.3-53.4,2.6-81,6.8-29.4,4.5-30.3,21.7-32.3,55.9-2.1,36.2-6.8,40.7-14.4,43.7a12.52,12.52,0,0,0-7.6,8.9h45.7C253.37,357,262.37,304,262.47,303.42Z"/><path class="cls-3" d="M210.37,358.62a13.47,13.47,0,0,0,7.9-7.1c11.7.9,23.4,1.7,35.1,2.8-1.5,6.6-3,12-4.2,14.6h-47.1A13.39,13.39,0,0,1,210.37,358.62Z"/><path d="M201.37,368.82a13.83,13.83,0,0,1,8.7-10.9,12.46,12.46,0,0,0,7.5-6.7l.2-.4h.5c12.4.9,23.6,1.8,35.1,2.8l.9.1-.2.8c-1.7,7.4-3.1,12.4-4.2,14.8l-.2.4h-48.4Zm51.1-13.8c-11-1-21.9-1.8-33.8-2.7a14.29,14.29,0,0,1-8.1,7h0a12.52,12.52,0,0,0-7.6,8.9h45.7A95.83,95.83,0,0,0,252.47,355Z"/><path d="M216,352.52a20.36,20.36,0,0,0,5.8,4.3c.6.3.1,1.1-.5.9a18.94,18.94,0,0,1-6-4.5A.5.5,0,1,1,216,352.52Z"/><path d="M214.37,354.42l4.8,4.8c.5.5-.3,1.2-.7.7l-4.8-4.8C213.17,354.72,213.87,354,214.37,354.42Z"/><path class="cls-3" d="M351.77,252.22c3.7,14.8,6.4,43.8-11.6,46.4s-64.1,5-64.1,5-9.3,55-14,65.3H215a13.41,13.41,0,0,1,8.2-10.3c7.4-3,11.9-8,13.9-43s3.2-52.1,32.9-56.6S351.77,252.22,351.77,252.22Z"/><path d="M214.27,368.82a13.83,13.83,0,0,1,8.7-10.9c6.8-2.7,11.4-7.1,13.4-42.3,2-33.9,3-52.6,33.6-57.3,29.3-4.5,81.2-6.8,81.7-6.8h.6l.1.6c3.2,12.8,4.6,31.1-1.8,40.7a14.91,14.91,0,0,1-10.4,6.6c-16.7,2.5-58,4.7-63.5,5-1.1,6.3-9.5,55.1-13.9,64.9l-.2.4h-48.4Zm61.2-65.4.1-.6h.6c.5,0,46.2-2.4,64-5a12.67,12.67,0,0,0,9.4-5.9c6-9,4.7-26.5,1.7-39-6,.3-53.4,2.6-81,6.8-29.4,4.5-30.3,21.7-32.3,55.9-2.1,36.2-6.8,40.7-14.4,43.7a12.52,12.52,0,0,0-7.6,8.9h45.7C266.27,357,275.27,304,275.47,303.42Z"/><path class="cls-3" d="M223.27,358.62a13.47,13.47,0,0,0,7.9-7.1c11.7.9,23.4,1.7,35.1,2.8-1.5,6.6-3,12-4.2,14.6H215C215.07,368.92,215.87,361.62,223.27,358.62Z"/><path d="M214.27,368.82a13.83,13.83,0,0,1,8.7-10.9,12.46,12.46,0,0,0,7.5-6.7l.2-.4h.5c12.4.9,23.6,1.8,35.1,2.8l.9.1-.2.8c-1.7,7.4-3.1,12.4-4.2,14.8l-.2.4h-48.4Zm51.2-13.8c-11-1-21.9-1.8-33.8-2.7a14.29,14.29,0,0,1-8.1,7h0a12.52,12.52,0,0,0-7.6,8.9h45.7A113.09,113.09,0,0,0,265.47,355Z"/><path d="M228.87,352.52a20.36,20.36,0,0,0,5.8,4.3c.6.3.1,1.1-.5.9a18.94,18.94,0,0,1-6-4.5C227.77,352.72,228.47,352,228.87,352.52Z"/><path d="M227.27,354.42l4.8,4.8c.5.5-.3,1.2-.7.7l-4.8-4.8C226.17,354.72,226.87,354,227.27,354.42Z"/></g><g id="Hand_2-2" data-name="Hand 2"><path class="cls-3" d="M261.37,230.72c1.1,0,2.2,0,3.3-.1,23.7-1.4,37.9-11.3,39.9-12.7l2.8-24.4c-1.5.9-3.1,1.8-4.6,2.7-10.7,6.5-21.8,13.2-35.3,13.2a36.11,36.11,0,0,1-7.3-.7c-9.3-1.7-14.1-5.4-17.6-8.8l-.1-.1-.1-.1c-4.1-9.7-10.4-14.1-13.6-14.1-.9,0-1.5.3-1.7,1-.4,1.4.5,2,2.1,3,1.1.7,2.2,1.3,2.6,2.5a2.4,2.4,0,0,1,.2,1.5v.7h-1.1a13.77,13.77,0,0,1-7.3-2.1,5.66,5.66,0,0,0-2.3-.9c-.4,0-1.2.2-2.4,1.7l-.2.3h-.3c-.6,0-2.5.3-3.2,1.2a1.8,1.8,0,0,0-.4,1.6l.1.5-.4.3a3.48,3.48,0,0,0-1.4,2,2.64,2.64,0,0,0,.6,2.3c1,1.6,5.1,3.7,9.1,5.7,3.6,1.8,7.3,3.7,9.1,5.4a25,25,0,0,1,2.5,3.5c3.2,5.4,9.1,14.9,27,14.9Z"/><path d="M228.77,186.32c3,0,9,4.2,13.1,13.5l.1.3.2.2c3.6,3.5,8.5,7.3,18,9a36.4,36.4,0,0,0,7.4.7c13.7,0,24.9-6.8,35.7-13.3,1-.7,2.1-1.3,3.2-2l-2.6,22.6c-2.7,1.9-16.5,11-39.2,12.4-1.1.1-2.2.1-3.3.1-17.6,0-23.3-9.3-26.7-14.8a19.83,19.83,0,0,0-2.6-3.6c-1.8-1.8-5.4-3.6-9.2-5.5-3.5-1.7-7.9-4-8.8-5.4a2.26,2.26,0,0,1-.4-1.7,2.84,2.84,0,0,1,1.1-1.5l.8-.5-.2-1a1.24,1.24,0,0,1,.2-1,4.32,4.32,0,0,1,2.7-1h.7l.4-.5c.7-.9,1.3-1.4,1.8-1.4a5.87,5.87,0,0,1,2,.8,15,15,0,0,0,7.7,2.2h1.8v-1.4a4.84,4.84,0,0,0-.3-1.8c-.5-1.4-1.8-2.1-2.9-2.8-1.8-1.1-1.9-1.4-1.7-2.1.1-.2.2-.5,1-.5m0-1.5a2.3,2.3,0,0,0-2.5,1.8c-.9,3.3,3.8,3.6,4.8,5.9a2,2,0,0,1,.2,1.1h-.4c-5.4,0-7.4-3.1-9.6-3.1-.9,0-1.8.5-3,1.9,0,0-4.9.1-4.3,3.7a3.7,3.7,0,0,0-1.1,5.3c2.1,3.2,14.5,7.7,18.3,11.2,3.6,3.4,7.3,18.8,30.3,18.8,1.1,0,2.2,0,3.4-.1,26-1.6,40.5-13.1,40.5-13.1l3-26.2c-12.4,7.2-25,16.6-40.8,16.6a45.59,45.59,0,0,1-7.2-.6c-9.3-1.7-14-5.3-17.3-8.6-4.2-10.1-10.7-14.6-14.3-14.6Z"/><path d="M245.77,201.72c3.2,2.5,7.5,4.9,14.6,6.2,19.3,3.5,33.8-7.7,48-15.9l-3,26.2s-14.5,11.5-40.5,13.1c-18.3,1.1-25.7-6.8-29.7-12.9C238.67,212.92,242.57,207.52,245.77,201.72Z"/><path d="M232.77,193.82c.5,3.1,1,8.7,3.9,10.5.6.3.1,1.2-.5.9-3.4-2-3.9-7.6-4.4-11.1C231.67,193.42,232.67,193.12,232.77,193.82Z"/><path d="M218.87,192.82a10.38,10.38,0,0,1,7,4.7c.3.5-.5,1-.9.5a8.92,8.92,0,0,0-6.4-4.2C218,193.72,218.27,192.72,218.87,192.82Z"/><path d="M217,196a15,15,0,0,1,7,4.3c.4.5-.3,1.2-.7.7a13.64,13.64,0,0,0-6.5-4.1A.46.46,0,1,1,217,196Z"/></g><g id="Body-3" data-name="Body"><path d="M313.88,189.61c13.5-4.79,27.19,5.51,34.38,25.22s7.88,56.54,7.88,56.54-34-15.36-54.6-17c0,0,9.91-13.49,6.31-22.4S289.47,198.19,313.88,189.61Z"/><path class="cls-3" d="M300.86,216h.2a.72.72,0,0,0,.5-.9c0-.1-2.29-8.5.71-16.2a.76.76,0,0,0-1.4-.6c-3.2,8.1-.81,16.8-.71,17.1A.73.73,0,0,0,300.86,216Z"/></g><polygon class="cls-1" points="227.47 179.91 216.57 175.72 217.97 186.72 227.47 179.91"/><path class="cls-1" d="M214.27,189.22a.75.75,0,0,0,.7-.4.69.69,0,0,0-.3-1l-3.4-2a.74.74,0,1,0-.7,1.3l3.4,2C214,189.22,214.07,189.22,214.27,189.22Z"/><path class="cls-1" d="M214.37,169.12a.55.55,0,0,0,.6-.4l3.9-6.4a.74.74,0,0,0-1.3-.7l-3.9,6.4a.69.69,0,0,0,.3,1C214.17,169,214.27,169.12,214.37,169.12Z"/><g id="Cup"><path class="cls-3" d="M252,233.63h3.69a4.18,4.18,0,0,0,4.18-4.18v-4.54a4.18,4.18,0,0,0-4.18-4.18H252a.54.54,0,1,0,0,1.07h3.69a3.11,3.11,0,0,1,3.11,3.11v4.54a3.12,3.12,0,0,1-3.11,3.11H252a.54.54,0,1,0,0,1.07Z"/><path class="cls-3" d="M248.42,220.08h0a5.86,5.86,0,0,1,5.86,5.86v9.17a0,0,0,0,1,0,0H242.56a0,0,0,0,1,0,0v-9.17A5.86,5.86,0,0,1,248.42,220.08Z" transform="translate(496.85 455.2) rotate(-180)"/><path d="M242,229.25v-9.7h12.79v9.7a6.4,6.4,0,1,1-12.79,0Zm1.07-8.63v8.63a5.33,5.33,0,1,0,10.65,0v-8.63Z"/><path class="cls-3" d="M247.39,216.77a.54.54,0,0,0,.54-.46l1-7.07a.54.54,0,0,0-1.06-.15l-1,7.07a.55.55,0,0,0,.46.61Z"/><path class="cls-3" d="M250.93,217.22a.51.51,0,0,0,.47-.29l1.61-3a.53.53,0,0,0-.22-.72.54.54,0,0,0-.73.22l-1.61,3a.54.54,0,0,0,.48.79Z"/></g><path class="cls-3" d="M256.82,228s-1.79-4.22.35-4.48c6.13-.73,13,6,19.23,8.66,0,3.65-.31,7.31-.46,10.95-.09,2.18-.12,4.37-.16,6.56-5.25-1.59-9.52-4.28-11-6.75-1.32-2.2-3.64-2.39-4.74-3.67-2.15.89-5.19-4.65-2.77-6.62C257.26,232.68,254.51,230.53,256.82,228Z"/><path d="M275.63,250.23c-5.28-1.59-9.72-4.33-11.32-7a6.24,6.24,0,0,0-2.73-2.24,7.27,7.27,0,0,1-1.71-1.1c-1.06.19-2.24-.57-3.12-2s-1.37-3.78-.26-5.17a4,4,0,0,1-1.12-2.33,3.38,3.38,0,0,1,.83-2.44c-.31-.83-1-3-.33-4.12a1.59,1.59,0,0,1,1.23-.78c4.24-.5,8.73,2.32,13.07,5a49.54,49.54,0,0,0,6.44,3.65l.32.14v.35c0,2.46-.14,4.95-.27,7.36-.07,1.21-.13,2.41-.18,3.61-.08,1.92-.12,3.88-.15,5.77l0,1.48Zm-6-21.25c-4.19-2.63-8.51-5.35-12.37-4.89a.49.49,0,0,0-.43.25c-.38.66.07,2.43.52,3.48l.13.32-.23.25a2.45,2.45,0,0,0-.78,1.87,3.31,3.31,0,0,0,1.15,2l.53.41-.52.42c-1.08.88-.78,2.79.07,4.21.68,1.13,1.56,1.75,2.15,1.5l.36-.15.26.3a5.39,5.39,0,0,0,1.64,1.1,7.21,7.21,0,0,1,3.15,2.64c1.38,2.29,5.36,4.78,10,6.3v-.06c0-1.9.06-3.86.14-5.79.05-1.21.12-2.42.19-3.63.12-2.28.25-4.63.27-6.95A54.22,54.22,0,0,1,269.6,229Z"/><path d="M257.17,227.37c2.64-1.44,5.23.14,7.38,1.72.37.27,0,.89-.36.62-1.9-1.4-4.26-3-6.65-1.72C257.13,228.21,256.77,227.59,257.17,227.37Z"/><path d="M257.91,231.9a5,5,0,0,1,5.41,1.78c.28.36-.22.87-.5.5a4.36,4.36,0,0,0-4.72-1.59A.36.36,0,0,1,257.91,231.9Z"/><path d="M259.72,237l.84,1.25c.26.39-.36.75-.62.37l-.84-1.25C258.85,237,259.47,236.64,259.72,237Z"/><g id="Hand-2" data-name="Hand"><path d="M274.67,230.92a55.41,55.41,0,0,0,11.4,1.2c18,0,24-9,28-35l20,4c-1,25-5.6,52.3-32.6,53.3-17.4.6-23.1-2.5-26.6-4.6C275.07,244.32,274.77,236.42,274.67,230.92Z"/><path d="M310.37,253.92h.1c29.6-4.2,27.2-33.7,26.5-39.5-.1-.4-.4-.7-.8-.6s-.7.4-.6.8c.7,5.6,3,33.9-25.2,37.9-.4.1-.7.4-.6.8C309.67,253.62,310,253.92,310.37,253.92Z"/><path class="cls-3" d="M310.07,217.12a.84.84,0,0,0,.7-.4,86.46,86.46,0,0,0,5.5-17,.76.76,0,1,0-1.5-.3,83.44,83.44,0,0,1-5.4,16.7.73.73,0,0,0,.4,1Z"/></g><g id="Head-2" data-name="Head"><path class="cls-3" d="M300,167.19c1.67-9.74,10.09-16.42,18.82-14.93s14.46,10.6,12.79,20.34a.44.44,0,0,1,0,.1,10.83,10.83,0,0,1,2.43.82c4.76,2.32,5.27,7.42,1.93,10.09a9.77,9.77,0,0,1-11.5.6,17.49,17.49,0,0,1-11.66,3.31C300.25,186.46,298.3,176.92,300,167.19Z"/><path d="M324.44,185.32a18.34,18.34,0,0,1-11.76,3.13c-5-.43-8.74-2.21-11.12-5.28-2.86-3.7-3.7-9.13-2.5-16.14,1.75-10.22,10.67-17.26,19.89-15.68,9,1.53,15,10.65,13.65,20.66a11.08,11.08,0,0,1,1.8.68A7.64,7.64,0,0,1,339,178.6a6.36,6.36,0,0,1-2.45,5.73,11.29,11.29,0,0,1-4.15,2A10.1,10.1,0,0,1,324.44,185.32Zm-23.56-18h0c-1.11,6.48-.39,11.42,2.14,14.69,2.05,2.66,5.35,4.19,9.82,4.57a16.49,16.49,0,0,0,11-3.14l.54-.39.54.38a8.81,8.81,0,0,0,10.39-.56,4.55,4.55,0,0,0,1.77-4.09,5.85,5.85,0,0,0-3.52-4.45,10.58,10.58,0,0,0-2.23-.75l-.84-.29.15-.87c1.58-9.22-3.82-17.86-12-19.27a13.64,13.64,0,0,0-5.77.26C307,155,302.08,160.33,300.88,167.34Z"/><circle cx="312.49" cy="169.38" r="1.23"/><path d="M302.79,173.05a28.67,28.67,0,0,1,3.56-7.42c.44-.66,1.49,0,1,.65a27.88,27.88,0,0,0-3.42,7.13A.62.62,0,0,1,302.79,173.05Z"/><path d="M309.57,157.14c3.39,2.13,18.1,5.25,14.88,13-.82,2-2,3-.28,4.28,1.91,1.09,2.92-1.09,2.92-1.09,2.58-.05,5.42.14,7,.92,4.9-7.18,3-14-.42-15.52,0,0-23-19.64-29.13-11.2C299.27,154.82,309.57,157.14,309.57,157.14Z"/><path d="M326.37,178.14a6.3,6.3,0,0,1,7.81-.22c.63.48,0,1.53-.65,1.05a5.07,5.07,0,0,0-6.31.06C326.61,179.54,325.76,178.64,326.37,178.14Z"/></g></svg>