<svg id="Слой_1" data-name="Слой 1" xmlns="http://www.w3.org/2000/svg" viewBox="0 0 274.18 376.53"><defs><style>.cls-1{fill:#fff;}.cls-2{fill:#ffdf00;}.cls-3{fill:#2b4df7;}</style></defs><path d="M52.14,193.93l-19.73-9.75,19.73-13.52ZM35.37,184l15.27,7.55v-18Z"/><path d="M51.21,153.67,52,141.45l11.19,7.21Zm2.09-9.57-.45,7.26,7.1-3Z"/><g id="Cross"><line class="cls-1" x1="30.41" y1="165.5" x2="32.65" y2="171.47"/><path d="M32.65,172.22a.77.77,0,0,1-.71-.49l-2.24-6a.75.75,0,0,1,1.41-.52l2.24,6a.76.76,0,0,1-.44,1A.85.85,0,0,1,32.65,172.22Z"/><line class="cls-1" x1="34.51" y1="167.36" x2="28.54" y2="169.6"/><path d="M28.54,170.35a.74.74,0,0,1-.7-.48.75.75,0,0,1,.44-1l6-2.24a.74.74,0,0,1,1,.44.75.75,0,0,1-.44,1l-6,2.24A.84.84,0,0,1,28.54,170.35Z"/></g><g id="Leg_2" data-name="Leg 2"><path class="cls-1" d="M71.36,215c19.45,26.62,24.69,38.9,24.69,38.9s-5.1,29.57-6.53,54.81a81.15,81.15,0,0,0,.27,13.78s24.19,1.1,40.57-3c0,0,.16-4-7-5s-9-15.55-9-15.55l21.5-71.67Z"/><path d="M97.11,323.39c-4.4,0-7.28-.12-7.36-.13l-.64,0L89,322.6a82.48,82.48,0,0,1-.27-13.91c1.35-23.84,6-51.87,6.5-54.67-.76-1.68-6.67-14.13-24.52-38.56l-1.12-1.54,67.18,12.8L115.12,299c.22,1.52,2.2,13.87,8.34,14.74,7.75,1.11,7.65,5.59,7.65,5.78l0,.56-.54.13C119.8,322.93,105.61,323.39,97.11,323.39Zm-6.65-1.6c3.88.13,24.48.64,39.06-2.84-.28-1-1.44-3-6.27-3.69-7.64-1.09-9.56-15.58-9.64-16.2l0-.16,0-.15,21.26-70.87L73.08,216.11c18.37,25.33,23.61,37.4,23.66,37.52l.08.2,0,.22c-.05.29-5.11,29.82-6.52,54.73A82.39,82.39,0,0,0,90.46,321.79Z"/><path d="M130.36,319.52a98.84,98.84,0,0,1-14.15,2.29,200.35,200.35,0,0,1-20.68.83c-3.53,0-5.74-.12-5.74-.12a80.21,80.21,0,0,1-.26-13.78q5.89-.17,11.78-.67c2.38-.19,4.76-.44,7.13-.72q3.86-.47,7.7-1.08a24.44,24.44,0,0,0,1.12,2.65c.14.31.3.61.47.91h0a12.83,12.83,0,0,0,1.46,2.12,6.87,6.87,0,0,0,.69.74,6.25,6.25,0,0,0,3.48,1.82C130.53,315.54,130.36,319.52,130.36,319.52Z"/><path d="M124.11,225.07,71.36,215c13.57,18.57,17.65,30.15,21.9,35.47,10.44-6.28,21.4-15.11,32-22.29C124.89,227.15,124.5,226.1,124.11,225.07Z"/><path class="cls-1" d="M117.73,309.83h0a9,9,0,0,0-3.07,4.09c-.23.59-1.19.33-1-.27a10.44,10.44,0,0,1,3.57-4.74C117.4,309.23,117.56,309.53,117.73,309.83Z"/><path class="cls-1" d="M119.88,312.7a8,8,0,0,0-2.26,2.54.5.5,0,0,1-.87-.5,9.17,9.17,0,0,1,2.44-2.78A6.87,6.87,0,0,0,119.88,312.7Z"/></g><g id="Bike"><path d="M191.31,195.93c-13.09,4.9-37.17,11.5-50.91,14.09-3.16.59,8.34,2.65,11.51,2a251.16,251.16,0,0,0,41.53-11.61C196.45,199.33,194.31,194.81,191.31,195.93Z"/><path d="M220.32,172.63c-4.14.2-12.36.09-16,2.32-2.7,1.68-3.47,4.64-3.69,7.59l-17,.55c-.55-4-2.27-6.82-10.65-5-2.51.56,2.69,4.05,5,3a3.62,3.62,0,0,1,1.77,4,2,2,0,0,0,2,2l20.83-.67a2,2,0,0,0,2-2c.06-3.67,1.13-6.24,5.06-6.92,2.5-.43,6.49-.7,9.42-.87A26.44,26.44,0,0,1,220.32,172.63Z"/><path d="M82.22,235c-1.59.45-3.18.91-4.78,1.35A339.76,339.76,0,0,0,107.78,299a18.1,18.1,0,0,1,4.49-2.23A334.27,334.27,0,0,1,82.22,235Z"/><path d="M192.49,205.34c-31.94,6.07-24.44,48.54-45,66.18,0,2.1-.05,4.2-.09,6.31,11.36-7.68,16-20.51,19.87-33.1,4.32-14,10-31.43,26.51-34.57C197,209.56,195.64,204.74,192.49,205.34Z"/><path d="M204.27,273.29c-6.38-29.41-7.64-60.1-8.79-90.07a2.89,2.89,0,0,0,0-.29,4.55,4.55,0,0,1-3.83,1.84,5.34,5.34,0,0,1-1.08-.11c1.17,30.15,2.61,60.77,9.07,90.18C201.14,274.28,202.7,273.77,204.27,273.29Z"/><path d="M220.3,171.52q-.69,2.82-1.39,5.62a.5.5,0,0,0,1,.27l1.38-5.62C221.42,171.16,220.45,170.9,220.3,171.52Z"/><path d="M71.36,220.52c-9,0-14,10.47-1.25,12.23,8.32,1.15,13.25-1.48,13.25-1.48s7.5-.25,11-.54C103.88,230,71.36,220.52,71.36,220.52Z"/><path d="M40.36,363.77c-14.66,0-39.25-5.62-39.25-43.25,0-23.85,17.6-43.25,39.25-43.25,23.47,0,39.25,17.38,39.25,43.25C79.61,344.36,62,363.77,40.36,363.77Zm0-85c-20.82,0-37.75,18.73-37.75,41.75,0,36.32,23.65,41.75,37.75,41.75,20.81,0,37.75-18.73,37.75-41.75C78.11,295.54,62.94,278.77,40.36,278.77Z"/><circle cx="40.36" cy="320.52" r="11"/><path d="M79.68,293.18a.76.76,0,0,1-.64-.35A45.21,45.21,0,0,0,43.85,272,45.06,45.06,0,0,0,6.22,289.62.76.76,0,1,1,5,288.7a46.62,46.62,0,0,1,38.91-18.21A46.77,46.77,0,0,1,80.31,292a.74.74,0,0,1-.23,1A.77.77,0,0,1,79.68,293.18Z"/><path d="M38.79,346.22a21.88,21.88,0,0,1-3.76-.33A22.22,22.22,0,0,1,16.88,324.2a.75.75,0,0,1,.73-.77h0a.76.76,0,0,1,.75.74,20.47,20.47,0,0,0,39.17,8.42.76.76,0,0,1,1-.36.75.75,0,0,1,.36,1A22.29,22.29,0,0,1,38.79,346.22Z"/><path d="M25.45,326.84a.76.76,0,0,1-.67-.4,14.74,14.74,0,0,1,2-16.77.75.75,0,0,1,1.13,1,13.1,13.1,0,0,0-1.79,15.1.75.75,0,0,1-.32,1A.84.84,0,0,1,25.45,326.84Z"/><path d="M217.36,363.77c-14.66,0-39.25-5.62-39.25-43.25,0-23.85,17.6-43.25,39.25-43.25,23.47,0,39.25,17.38,39.25,43.25C256.61,344.36,239,363.77,217.36,363.77Zm0-85c-20.82,0-37.75,18.73-37.75,41.75,0,36.32,23.65,41.75,37.75,41.75,20.81,0,37.75-18.73,37.75-41.75C255.11,295.54,239.94,278.77,217.36,278.77Z"/><circle cx="217.36" cy="320.52" r="11"/><path d="M222.23,334.65a.75.75,0,0,1-.71-.5.77.77,0,0,1,.47-1,13.31,13.31,0,0,0-3-26,.75.75,0,1,1,.15-1.49,14.81,14.81,0,0,1,3.37,28.91A.67.67,0,0,1,222.23,334.65Z"/><path d="M204.29,317.26h-.06a.75.75,0,0,1-.69-.8,9.64,9.64,0,0,1,5.78-8.2.75.75,0,1,1,.59,1.37,8.17,8.17,0,0,0-4.88,6.94A.74.74,0,0,1,204.29,317.26Z"/><path d="M195.48,345a.75.75,0,0,1-.56-.25A31.62,31.62,0,0,1,188.2,315a.75.75,0,0,1,1.44.43A30.13,30.13,0,0,0,196,343.74a.76.76,0,0,1-.05,1.06A.82.82,0,0,1,195.48,345Z"/><path d="M105.86,329.84c-5.63,0-9.55-2.48-11-7l-.34-1h1a199.21,199.21,0,0,0,20.6-.83l1.18-.12-.4,1.12A11.77,11.77,0,0,1,105.86,329.84Zm-9.23-6.44c1.88,4.05,6,4.94,9.23,4.94a10.27,10.27,0,0,0,9.16-5.67C108.06,323.29,101.39,323.41,96.63,323.4Z"/><path d="M119.86,335.77A18.77,18.77,0,0,1,101.11,317a18.82,18.82,0,0,1,13.82-18.1,19.07,19.07,0,0,1,4.93-.65c11.15,0,19.25,8.51,19.25,20.25C139.11,328.35,130.83,335.77,119.86,335.77Zm0-36a17.42,17.42,0,0,0-4.54.6,17.25,17.25,0,0,0,4.54,33.9c10.12,0,17.75-6.77,17.75-15.75C137.61,306.21,128.68,299.77,119.86,299.77Z"/><path class="cls-1" d="M137.92,300.67a11,11,0,0,1-10.06,6.54c-4.45,0-8.27-1.6-10-5.6C123.9,301.55,131.29,301.32,137.92,300.67Z"/><path d="M127.86,308c-5.28,0-9-2.1-10.7-6l-.45-1h1.13c7.72-.08,14.45-.39,20-.94l1.28-.12L138.6,301A11.76,11.76,0,0,1,127.86,308Zm-8.79-5.62c2.05,3.37,5.84,4.12,8.79,4.12a10.3,10.3,0,0,0,8.76-4.92C131.6,302,125.71,302.25,119.07,302.34Z"/></g><g id="Leg"><path class="cls-1" d="M155.36,232.52c-5,15-20,50-20,50s1,9,8,10,7,6,7,6c-13,4-45,3-45,3,2-33,18-67,18-67s-24-1-45-8c-19.56-6.52-17.43-20-10.58-40.39,15,12.36,42.11,9.57,49,8.63h0c7.15,2.05,14,4.06,19.6,5.76C159.36,207.52,160.36,217.52,155.36,232.52Z"/><path d="M114.36,302.39c-5,0-8.6-.11-9-.12l-.77,0,0-.77c1.79-29.61,15-60.36,17.61-66.26-5-.3-25.79-1.88-44.1-8C71,224.84,66.34,221.41,64,216.75c-3.65-7.32-1.64-16.86,3.06-30.86l.34-1,.84.7c14.55,12,40.72,9.52,48.4,8.47h.2l.11,0c7.39,2.11,14.17,4.11,19.62,5.76,11,3.34,17.4,7.46,20.24,13,3.17,6.13,1.4,13.55-.75,20-4.76,14.28-18.73,47-19.94,49.86.19,1.25,1.53,8.33,7.33,9.16,7.56,1.08,7.65,6.68,7.65,6.74v.55l-.53.16C141.82,301.93,124.86,302.39,114.36,302.39Zm-8.2-1.6c4.87.11,31.45.57,43.38-2.81-.24-1.2-1.32-4-6.29-4.72-7.49-1.07-8.59-10.27-8.64-10.66l0-.2.08-.18c.15-.35,15-35.14,20-49.94,2.9-8.71,3.15-14.35.84-18.83-2.65-5.12-8.8-9-19.35-12.21-5.4-1.64-12.13-3.62-19.45-5.72-7.69,1-33.44,3.46-48.54-8.14-4.22,12.76-6.11,22.05-2.79,28.7,2.14,4.29,6.47,7.47,13.23,9.73,20.66,6.88,44.56,7.95,44.8,8l1.13,0-.48,1C123.88,235.17,108.32,268.55,106.16,300.79Z"/><path class="cls-2" d="M146.58,203.8c-3.94,4.72-8.44,10.34-13,16l-.68.85-.41.51-.29.37c-4.77,6-9.52,11.89-13.68,16.83-7.44-.56-22.87-6.62-39-12C60,219.86,62.11,206.4,69,186A36,36,0,0,0,80,192c.48.18,1,.34,1.45.49,14.38,4.59,31.27,2.8,36.46,2.09,7.15,2,14,4.06,19.6,5.76A65.47,65.47,0,0,1,146.58,203.8Z"/><path d="M150.36,298.52a66.92,66.92,0,0,1-12.44,2.15c-6.63.65-14,.88-20.07.94-7.18.08-12.49-.09-12.49-.09a141.21,141.21,0,0,1,2.11-16.83c9.25-.55,18.5-1,27.71-1.88,1.13,3.63,3.57,9.05,8.18,9.71C150.36,293.52,150.36,298.52,150.36,298.52Z"/><path class="cls-1" d="M136.45,286.13a11.49,11.49,0,0,0-4,4.27c-.31.57.56,1.07.86.51a10.52,10.52,0,0,1,3.6-3.88Z"/><path class="cls-1" d="M138.34,289.29a6,6,0,0,0-2.32,2.85c-.24.6.73.86,1,.27a4.93,4.93,0,0,1,2-2.36Z"/><path d="M152.21,226.18a3.82,3.82,0,0,1-2.19-2.11c-.25-.59-1.11-.08-.86.5a4.82,4.82,0,0,0,2.79,2.58C152.55,227.37,152.82,226.4,152.21,226.18Z"/><path class="cls-1" d="M116.32,240.17a.67.67,0,0,1-.24,0c-1.64-.56-40.22-13.73-47.46-17.79a.75.75,0,0,1,.73-1.31c7.12,4,46.81,17.54,47.21,17.68a.75.75,0,0,1-.24,1.46Z"/><path d="M132.42,220l-.68.85-.41.51c-7.29-1-24.73-3.9-38.25-8.75-16-5.75-15.59-12.56-14.23-20.39.06-.38.13-.76.2-1.15.12-.69.25-1.39.36-2.11a.77.77,0,0,1,.87-.62.76.76,0,0,1,.61.87c-.11.72-.24,1.43-.36,2.13-.08.46-.16.92-.23,1.37C79,200,78.89,205.88,93.58,211.16,107.56,216.17,125.81,219,132.42,220Z"/></g><g id="Phone"><path d="M194.21,168.07H100.33a5.79,5.79,0,0,1-5.5-7.62L142.48,17.5a5.8,5.8,0,0,1,5.49-4h93.88a5.8,5.8,0,0,1,5.5,7.63L199.7,164.11A5.77,5.77,0,0,1,194.21,168.07Z"/><path class="cls-3" d="M191.44,158.84H108.79a5.11,5.11,0,0,1-4.84-6.72l42-125.85a5.09,5.09,0,0,1,4.84-3.49h82.65a5.1,5.1,0,0,1,4.84,6.71L196.28,155.35A5.1,5.1,0,0,1,191.44,158.84Z"/></g><g id="Head"><path class="cls-1" d="M122.79,107a15.51,15.51,0,0,0-4.58-6.15,13.27,13.27,0,0,0-2.45-1.61l-.52-.26-.1-.05a11.9,11.9,0,0,0-1.5-.58c-.36-.11-.72-.21-1.09-.3s-.74-.15-1.11-.2a4.6,4.6,0,0,0-.52-.06h-.21a9.75,9.75,0,0,0-1.08,0l-.46,0a8.09,8.09,0,0,0-.86.07l-.28,0h0l-.55.09h0a11.74,11.74,0,0,0-2.24.68c-.28.12-.56.25-.83.39l-.15.08c-.18.09-.35.19-.52.29a9.72,9.72,0,0,0-1.48,1.06l-.37.31a7.62,7.62,0,0,0-.64.63,3.28,3.28,0,0,0-.31.34h0a14.62,14.62,0,0,0-2.09,15.29l0,.07h0c-5.19,2.5-5,7.68-1.45,9.4a7.91,7.91,0,0,0,9.19-1.62h0a14.12,14.12,0,0,0,8.54.84c.43-.09.85-.21,1.27-.34C126.08,122.3,125.88,114.41,122.79,107Z"/><path d="M101,128.09a9.21,9.21,0,0,1-3.92-.87,5.11,5.11,0,0,1-3-4.67c0-2.27,1.41-4.39,3.83-5.76a15.34,15.34,0,0,1,2.44-15.52l.23-.25.12-.12a8.66,8.66,0,0,1,.68-.67c.12-.11.26-.22.4-.33a10.18,10.18,0,0,1,1.56-1.12l.56-.31a1.5,1.5,0,0,1,.22-.11c.21-.11.51-.25.81-.38a12.64,12.64,0,0,1,2.16-.68l.06-.06.79-.1.21,0c.39,0,.7-.07,1-.08h.48a11,11,0,0,1,1.15,0H111l.57.07c.36,0,.75.12,1.14.21s.78.2,1.15.31a13,13,0,0,1,1.6.62l.28.14.37.19a13.67,13.67,0,0,1,2.58,1.69,16.26,16.26,0,0,1,4.79,6.44c2.23,5.32,2.55,9.75,1,13.19-1.32,2.87-4,5-7.83,6.2a12.8,12.8,0,0,1-1.35.36,13.75,13.75,0,0,1-2.27.31,15.24,15.24,0,0,1-6.23-1A8.18,8.18,0,0,1,101,128.09Zm.26-25.57a13.93,13.93,0,0,0-1.75,14.25l.28.66-.61.39c-2.26,1.09-3.61,2.86-3.6,4.73a3.64,3.64,0,0,0,2.15,3.32,7.13,7.13,0,0,0,8.31-1.45l.36-.4.5.21a13.49,13.49,0,0,0,6,1.07,14.78,14.78,0,0,0,2-.27c.41-.09.8-.2,1.2-.33,3.45-1.11,5.78-2.92,6.92-5.39,1.4-3,1.07-7.08-1-12h0a14.86,14.86,0,0,0-4.36-5.86,12.72,12.72,0,0,0-2.32-1.52l-.34-.17-.14-.07-.15-.08a10.53,10.53,0,0,0-1.37-.52c-.34-.11-.69-.2-1-.29s-.68-.14-1-.19a4.28,4.28,0,0,0-.46-.05h-.23c-.34,0-.67,0-1,0h-.43l-.82.07h0l0,0-.75.1a11.1,11.1,0,0,0-2.1.63,7.76,7.76,0,0,0-.77.37l-.49-.6.38.65a5.9,5.9,0,0,0-.53.3,9,9,0,0,0-1.37,1l-.35.29c-.22.2-.41.39-.59.58a3.33,3.33,0,0,0-.27.29Z"/><path d="M114,102.44a13.6,13.6,0,0,0,4.2-1.56,12.79,12.79,0,0,0-13-2.21,11.83,11.83,0,0,0-4.31,3.1A29.11,29.11,0,0,0,114,102.44Z"/><circle cx="113.3" cy="111.04" r="1"/><path d="M99.18,117.86a25.19,25.19,0,0,0,11.16-13.16,19.68,19.68,0,0,0,.91-6.84,11.82,11.82,0,0,0-6,.81c-6.62,2.77-9.48,11-6.39,18.39C98.92,117.33,99.06,117.59,99.18,117.86Z"/><path d="M103.93,120.48a5.1,5.1,0,0,0-6.21,1.26c-.41.49.3,1.2.71.71a4.08,4.08,0,0,1,5-1.1C104,121.63,104.51,120.77,103.93,120.48Z"/><path d="M121.63,112.17a23.26,23.26,0,0,0-4.16-5.21c-.47-.44-1.18.26-.71.7a22.54,22.54,0,0,1,4,5A.5.5,0,0,0,121.63,112.17Z"/></g><g id="Helmet"><path d="M115.12,125.76a14.2,14.2,0,0,1-2.16.29,22,22,0,0,1-5.13-3,21.56,21.56,0,0,1-5.73-6.83l0-.09a.44.44,0,0,1,0-.15.52.52,0,0,1,.71-.56.39.39,0,0,1,.2.2c.17.32.35.64.54,1a20.84,20.84,0,0,0,11.67,9.2Z"/><path d="M95.34,97.75c-11.24,8.48-10.88,18.18-.54,28.33l5-3.57a9.27,9.27,0,0,0,3.63-9.84c-.74-2.87-.24-6.5,4.49-9.76,9.7-6.69,10.79-5.65,10.27-6.35C116.05,93.68,109.18,87.32,95.34,97.75Z"/><rect x="107.56" y="121.65" width="3" height="3.91" rx="1.5" transform="translate(-55.16 137.87) rotate(-53.54)"/><path class="cls-1" d="M96,110.84l-4.32,3c-.52.37,0,1.23.5.87l4.33-3C97.06,111.34,96.56,110.47,96,110.84Z"/><path class="cls-1" d="M97.25,113.42l-4.32,3c-.53.36,0,1.23.5.86l4.33-3C98.28,113.92,97.78,113.05,97.25,113.42Z"/></g><g id="Typing"><path class="cls-1" d="M241.37,71.86h-5.75c-2.57,0-2.57,4,0,4h5.75C244,75.86,244,71.86,241.37,71.86Z"/><path d="M241.37,76.61h-5.75a2.75,2.75,0,0,1,0-5.5h5.75a2.75,2.75,0,0,1,0,5.5Zm-5.75-4a1.25,1.25,0,0,0,0,2.5h5.75a1.25,1.25,0,0,0,0-2.5Z"/><path class="cls-1" d="M229.27,71.86c-2.58,0-2.58,4,0,4S231.84,71.86,229.27,71.86Z"/><path d="M229.27,76.61a2.64,2.64,0,0,1-2.69-2.75,2.83,2.83,0,0,1,.67-1.86,2.58,2.58,0,0,1,2-.89A2.63,2.63,0,0,1,232,73.86a2.85,2.85,0,0,1-.67,1.86A2.6,2.6,0,0,1,229.27,76.61Zm0-4a1.25,1.25,0,1,0,1.18,1.25A1.18,1.18,0,0,0,229.27,72.61Z"/><path class="cls-1" d="M250.11,71.86h-2.75a2,2,0,0,0,0,4h2.75a2,2,0,0,0,0-4Z"/><path d="M250.11,76.61h-2.75a2.79,2.79,0,0,1-2.75-2.72,2.57,2.57,0,0,1,.74-1.9,2.82,2.82,0,0,1,2-.88h2.75a2.79,2.79,0,0,1,2.75,2.71,2.61,2.61,0,0,1-.75,1.91A2.78,2.78,0,0,1,250.11,76.61Zm-2.75-4a1.31,1.31,0,0,0-.93.42,1,1,0,0,0-.32.79,1.28,1.28,0,0,0,1.25,1.29h2.75a1.33,1.33,0,0,0,.92-.42,1.12,1.12,0,0,0,.33-.8,1.28,1.28,0,0,0-1.25-1.28Z"/></g><g id="Line"><path class="cls-1" d="M153.53,48.06c-5.63,0-5.64,8.75,0,8.75S159.17,48.06,153.53,48.06Z"/><rect class="cls-1" x="161.01" y="44.98" width="64.59" height="14.92" rx="6.46"/><path d="M219.51,52.68H167.76a.75.75,0,0,1,0-1.5h51.75a.75.75,0,0,1,0,1.5Z"/></g><g id="Buttons"><rect x="150.98" y="26.73" width="4.75" height="4.75"/><path d="M163.31,30.5l-3.6-3.6c-.52-.52-1.33.29-.81.82l3.6,3.6A.58.58,0,0,0,163.31,30.5Z"/><path d="M159.71,31.32l3.6-3.6a.58.58,0,0,0-.81-.82l-3.6,3.6C158.38,31,159.19,31.84,159.71,31.32Z"/></g><g id="Hand_2" data-name="Hand 2"><path class="cls-1" d="M108.5,132.69c14.47,4.38,29.19-.57,38.93-13.23s19.48-28.24,22.4-34.09c1.37-2.75,3.12-2.21,3.68-.7.64,1.7-.13,4.81-2.7,9.46.16-.1,2-1.2,3.14-.17l.94.32c1.13-.44,3.71-1,3.71,2.78,0,2.93,0,5.15-.65,6.46a2.18,2.18,0,0,1-2.12,1.32h-.16s3.9,6.82-1.94,10.72-9.31,29.49-33.12,37c-18.51,5.84-29.69,1-29.69,1"/><path d="M122.9,156.24c-7.64,0-12-1.8-12.28-1.92l.59-1.38c.11,0,11.18,4.6,29.17-1.08,16.19-5.11,22.87-18.91,27.3-28,2-4.23,3.66-7.57,5.63-8.88,5.2-3.47,1.85-9.47,1.71-9.72l-.65-1.12h1.44a1.45,1.45,0,0,0,1.46-.89c.58-1.17.58-3.36.58-6.14,0-.77-.12-1.77-.69-2.15a2.42,2.42,0,0,0-2,.07l-.26.1-1.35-.47-.11-.1c-.71-.65-2.22.24-2.23.25l-2.47,1.54,1.41-2.54c3.1-5.58,3-7.93,2.66-8.83-.17-.45-.46-.74-.77-.76s-1,.38-1.54,1.53c-2.9,5.82-12.58,21.35-22.48,34.21s-24.83,18-39.74,13.49l.43-1.43c14.3,4.33,28.55-.52,38.12-13,9.85-12.79,19.45-28.21,22.33-34,1.06-2.13,2.32-2.38,3-2.35a2.45,2.45,0,0,1,2.09,1.72c.67,1.78,0,4.6-1.85,8.4a2.59,2.59,0,0,1,2,.49l.55.19a3.49,3.49,0,0,1,3.13.19c.89.61,1.34,1.75,1.34,3.39,0,3.09,0,5.32-.73,6.79a2.81,2.81,0,0,1-1.84,1.6c.88,2.16,2.33,7.42-2.64,10.74-1.62,1.08-3.16,4.26-5.11,8.28-4.54,9.37-11.39,23.51-28.2,28.82A59.57,59.57,0,0,1,122.9,156.24Z"/><path class="cls-1" d="M110.91,153.63s6.28,2.68,17.2,1.58a67.8,67.8,0,0,0-1.21-21.93,34.7,34.7,0,0,1-18.41-.6"/><path d="M122.9,156.23c-7.71,0-12.06-1.82-12.28-1.91l.59-1.38c.06,0,6,2.49,16.23,1.58a66.43,66.43,0,0,0-1.12-20.34,35.17,35.17,0,0,1-18-.78l.43-1.44a33.67,33.67,0,0,0,18,.59l.76-.19.16.77a69,69,0,0,1,1.21,22.17l-.07.6-.59.06C126.28,156.15,124.52,156.23,122.9,156.23Z"/><path d="M169,95.45c-1.14-2.66-4.78.84-5.79,1.87a.5.5,0,0,0,.71.71c.59-.61,4.14-4.07,4-1.37a7.45,7.45,0,0,1-.95,2,9.86,9.86,0,0,1-2.54,2.69.5.5,0,0,0-.1.78c3.11,2.63-.75,7.9-3.1,9.46-.54.36,0,1.22.5.87,2.79-1.86,6.6-7.48,3.69-10.64C167.14,100.45,169.9,97.53,169,95.45Z"/><path d="M174.89,94.28a45.41,45.41,0,0,1-.11,6.6,5.61,5.61,0,0,1-.13.59.55.55,0,0,1,0,.28,1.49,1.49,0,0,0,.66,2,3.23,3.23,0,0,0,2.38-.17.48.48,0,0,1,.29,0,2.18,2.18,0,0,1-2.12,1.32h0a2.39,2.39,0,0,1-1.47-.58,2.35,2.35,0,0,1-.72-1.09,3,3,0,0,1-.67.41,2.94,2.94,0,0,1-3.88-3.73.5.5,0,0,1,1,.27c-.44,1.43.55,3.09,2.23,2.65,1.47-.39,1.53-1.86,1.59-3.09.09-1.82,0-3.65,0-5.47A.49.49,0,0,1,174,94Z"/><path class="cls-1" d="M123.32,134.25c1.33,6,2.51,15.73,1.17,21.2"/><path d="M125.22,155.63l-1.46-.36c1.25-5.08.27-14.37-1.17-20.85l1.46-.33C125.53,140.74,126.52,150.31,125.22,155.63Z"/></g><g id="Body"><path class="cls-1" d="M118.36,194.52s-.57.1-1.6.24h0c-6.86.94-34,3.73-49-8.63a27.22,27.22,0,0,1-4.42-4.61c7-11.34,11.88-19.3,14-25,7.61-20.47,15.58-30.58,29-27,15,4,22,20,8,37C103.7,179.46,118.36,194.52,118.36,194.52Z"/><path d="M102.47,196.47c-11.15,0-25.56-1.82-35.17-9.76A28.19,28.19,0,0,1,62.76,182l-.31-.41.27-.44c7.06-11.37,11.84-19.24,13.93-24.86,6.23-16.75,14.16-31.66,29.9-27.47,7.56,2,13.1,7,15.22,13.52,2.44,7.61,0,16.37-6.83,24.68-10.12,12.28,3.81,26.86,4,27l1,1-1.39.25s-.58.1-1.63.24h-.1A108.14,108.14,0,0,1,102.47,196.47Zm-38.2-15a26.48,26.48,0,0,0,4,4.08c14.54,12,40.71,9.52,48.39,8.47h.1l.14,0c-3.1-3.73-12.42-16.65-3.11-28,6.51-7.9,8.84-16.17,6.56-23.27-2-6.08-7.12-10.65-14.18-12.53-11.94-3.18-19.82,4.26-28.1,26.54C76,162.46,71.23,170.26,64.27,181.47Z"/></g><g id="Hand"><path class="cls-1" d="M111.36,143.52c4,26,10,35,28,35s27-9,34-3c6.46,5.53,6.11,11.07,2.09,13.47a7.27,7.27,0,0,1-1,.49l-.08,0a8.07,8.07,0,0,1-.19,1.88.86.86,0,0,1-.06.23c-.62,2.26-2.37,2.89-4.75,2.89,0,0-5,5-7,1-1.34-2.68,2-2,3-4s-2-2-2-2c-2,3-2,4-7,3-6.2-1.24-5,7-32,6s-32-26-33-51"/><path d="M128.69,199.35c-1.37,0-2.82,0-4.36-.08-27.93-1-32.72-26.73-33.72-51.72l1.5-.06c1,24.31,5.56,49.29,32.28,50.28,17.32.64,22.93-2.59,26.27-4.52,1.9-1.09,3.4-2,5.84-1.47,4,.8,4.25.4,5.67-1.81l.56-.87.23-.33h.4c.33,0,2,0,2.71,1.13a1.92,1.92,0,0,1,0,1.95,4.32,4.32,0,0,1-2.25,1.86c-.44.2-.9.42-1,.63s-.05.3.22.84a1.8,1.8,0,0,0,1.3,1.12c1.54.24,3.77-1.59,4.5-2.31l.22-.22h.31c2.4,0,3.57-.68,4-2.34l.06-.21a7.5,7.5,0,0,0,.17-1.7V189l.56-.19a8.26,8.26,0,0,0,.9-.44,5,5,0,0,0,2.52-3.87c.22-2.61-1.45-5.59-4.72-8.38-3.58-3.07-7.72-1.88-14-.09-5.08,1.46-11.39,3.27-19.51,3.27-17.83,0-24.54-8.33-28.74-35.64l1.48-.23c4.1,26.66,10.21,34.37,27.26,34.37,7.91,0,14.11-1.78,19.1-3.21,6.5-1.86,11.19-3.2,15.39.39,3.64,3.12,5.5,6.54,5.24,9.65a6.41,6.41,0,0,1-3.26,5c-.24.14-.49.27-.73.38a8.59,8.59,0,0,1-.2,1.56,2.32,2.32,0,0,1-.08.3c-.82,2.89-3.26,3.35-5.16,3.39-.79.75-3.31,2.89-5.57,2.52a3.25,3.25,0,0,1-2.4-1.93,2.55,2.55,0,0,1-.3-2,2.89,2.89,0,0,1,1.75-1.5,2.93,2.93,0,0,0,1.55-1.17c.11-.23.15-.41.1-.5a1.79,1.79,0,0,0-1-.39l-.31.49c-1.69,2.64-2.46,3.43-7.22,2.47-1.89-.38-3,.25-4.8,1.3C148.23,196.38,143.08,199.35,128.69,199.35Z"/><path d="M97.14,181.73l-.3-.64C92,170.62,91,156.93,90.61,147.55l1.5-.06c.36,9.06,1.36,22.18,5.8,32.32a78.47,78.47,0,0,0,8.74-4.12,54.83,54.83,0,0,0,10.54-8.1c-2.8-5.24-4.84-12.67-6.57-24l1.48-.23c1.76,11.48,3.83,18.87,6.68,24l.29.51-.43.4A57.17,57.17,0,0,1,107.38,177a80.78,80.78,0,0,1-9.58,4.47Z"/><circle cx="163.36" cy="190.52" r="3"/><path d="M169.81,194.51a8.84,8.84,0,0,0-.95-8.82c-.37-.52-1.24,0-.86.5a8,8,0,0,1,.29,9.07.38.38,0,0,0-.08.24Z"/><path d="M173.66,190a12.07,12.07,0,0,0-2-6.19c-.4-.5.31-1.22.71-.71a10.43,10.43,0,0,1,2.31,6.41A7.27,7.27,0,0,1,173.66,190Z"/><path class="cls-1" d="M96.08,177.24c7.24-2.15,20.24-12.5,20.24-12.5"/><path d="M96.29,178l-.42-1.44c7-2.09,19.85-12.26,20-12.36l.93,1.17C116.25,165.76,103.59,175.79,96.29,178Z"/></g><g id="Keys"><polygon points="177.66 87.97 165.12 87.97 172.12 80.47 184.66 80.47 177.66 87.97"/><polygon class="cls-1" points="217.97 120.2 185.28 120.2 197.17 108.06 229.86 108.06 217.97 120.2"/><path d="M218.29,121H183.5l13.35-13.65h34.79Zm-31.22-1.5h30.59l10.41-10.65H197.48Z"/><polygon class="cls-1" points="213.57 78.95 196.65 78.95 206.19 69.21 223.11 69.21 213.57 78.95"/><path d="M213.89,79.71h-19l11-11.25h19Zm-15.46-1.5h14.83L221.32,70H206.5Z"/><polygon points="207.13 95.68 179.33 95.68 186.55 88.3 214.36 88.3 207.13 95.68"/><path d="M217.86,112.56h-20a.5.5,0,0,0,0,1h20A.5.5,0,0,0,217.86,112.56Z"/><path class="cls-1" d="M177.14,83.22h-4.5a.5.5,0,0,0,0,1h4.5A.5.5,0,0,0,177.14,83.22Z"/></g></svg>