<svg id="Слой_1" data-name="Слой 1" xmlns="http://www.w3.org/2000/svg" viewBox="0 0 278.85 346.91"><defs><style>.cls-1{fill:#ffdf00;}.cls-2{fill:#fff;}.cls-3{fill:#2b4df7;}</style></defs><g id="Background"><path class="cls-1" d="M248.1,324.55H50.71s11.79-86.09,113.77-81.18C251.81,247.58,248.1,324.55,248.1,324.55Z"/></g><path class="cls-2" d="M108.88,208.75C120.22,221.26,139,241.28,150.24,265c8.87,18.72,11.12,39.68,14.36,61.44l49.25-1s-1.63-7.47-8.47-10-11.5-8.14-16.18-40.48-32.85-75.7-49.87-89.82c-4.63-3.85-8.72-7.28-12.23-10.24A318.93,318.93,0,0,0,108.88,208.75Z"/><path d="M164,327.17l-.1-.65c-.37-2.47-.72-4.92-1.07-7.36-2.79-19.22-5.41-37.37-13.23-53.87C139,243,121.7,224,110.25,211.37L108,208.89l.2-.45a315.24,315.24,0,0,1,18.26-34l.46-.74.66.56c3.51,3,7.6,6.38,12.23,10.23,16.77,13.92,45.32,57,50.14,90.29s9.75,37.66,15.69,39.88c7.14,2.67,8.87,10.25,8.94,10.57l.2.89ZM109.77,208.61l1.59,1.75c11.51,12.66,28.9,31.79,39.56,54.29,7.91,16.7,10.55,35,13.35,54.29q.48,3.35,1,6.7l47.6-1c-.66-2-2.73-6.73-7.73-8.59-7.67-2.87-12.12-9.74-16.66-41.08-4.76-32.91-33-75.57-49.61-89.35-4.34-3.6-8.21-6.84-11.57-9.67A313.59,313.59,0,0,0,109.77,208.61Z"/><path d="M195.92,305c-11.24,1.7-22.55,3-33.69,5.28.81,5.33,1.56,10.73,2.37,16.18l49.25-1s-1.63-7.47-8.47-10C201.71,314,198.67,311.73,195.92,305Z"/><path class="cls-2" d="M196.61,308.15a24.46,24.46,0,0,0-5.52,4.07.49.49,0,0,0,.68.7,23.18,23.18,0,0,1,5.32-3.91A.49.49,0,0,0,196.61,308.15Z"/><path class="cls-2" d="M199.13,310.93a38.71,38.71,0,0,1-5.2,5.2c-.48.41.2,1.11.68.71a38.21,38.21,0,0,0,5.2-5.21C200.2,311.15,199.53,310.44,199.13,310.93Z"/><path class="cls-2" d="M90.67,181.57c-5,16.14-12.54,42.53-27.16,64.3C52,263.06,35.1,275.72,18.07,289.63l26.08,41.79s5.59-5.22,4.28-12.4,1.11-14,26.51-34.61,48.24-67,51.67-88.8c.94-6,1.79-11.22,2.54-15.74A318.93,318.93,0,0,0,90.67,181.57Z"/><path d="M44,332.59,17.08,289.47l.52-.42,5.77-4.69c15.09-12.21,29.34-23.76,39.52-38.91C76.65,225,84.15,200.37,89.11,184.1l1-3.22.49,0a313.42,313.42,0,0,1,38.57-1.71H130l-.14.86c-.75,4.52-1.6,9.79-2.54,15.74C124,217.26,101.52,263.85,75.41,285S48,312.64,49.17,318.88c1.36,7.5-4.27,12.86-4.51,13.09ZM19.06,289.8l25.2,40.39c1.37-1.58,4.39-5.79,3.43-11-1.46-8.06,2.17-15.4,26.78-35.32,25.84-20.93,48.05-67,51.4-88.33.88-5.58,1.68-10.56,2.4-14.89a311.48,311.48,0,0,0-37,1.66l-.69,2.27c-5,16.36-12.53,41.08-26.41,61.75-10.31,15.34-24.65,27-39.83,39.24C22.57,286.94,20.81,288.36,19.06,289.8Z"/><path d="M52.52,305.57c-7.21-8.79-14.12-17.84-21.77-26.25-4.16,3.42-8.41,6.83-12.68,10.31l26.08,41.79s5.59-5.22,4.28-12.4C47.73,315.16,48.11,311.4,52.52,305.57Z"/><path class="cls-2" d="M183.23,241.47c-10.89-25.46-31.64-46.25-43.9-56.42-4.63-3.85-8.72-7.28-12.23-10.24-1,1.67-2,3.35-3,5a310.6,310.6,0,0,0-33.41,1.73c-4.39,14.33-10.87,36.74-22.5,56.81,8.26,8.75,28.1,22.43,32.41,23.82,9.27-12.72,15.61-27.41,19.81-40.61,8.58,9.86,18.23,22,25.8,35.55C157.94,254.52,179.84,244.47,183.23,241.47Z"/><path d="M100.86,263.08l-.51-.17c-4.65-1.5-24.68-15.49-32.72-24l-.39-.41.28-.48c10.88-18.78,17.33-39.94,21.6-53.94l1-3.19.49,0a306.08,306.08,0,0,1,33.06-1.74c.93-1.56,1.86-3.12,2.81-4.67l.46-.74.66.56c3.51,3,7.6,6.38,12.23,10.23,7.23,6,31.76,27.81,44.11,56.71l.21.5-.4.36c-3.67,3.23-25.94,13.28-37.37,15.83l-.55.12-.27-.49c-7.84-14.05-17.76-26.21-24.84-34.41-5,15.35-11.57,28.65-19.52,39.55ZM69.1,238.27c8.28,8.57,26.3,21,31.21,23,7.91-11,14.43-24.41,19.37-39.93l.41-1.27.87,1c7.09,8.16,17.42,20.63,25.61,35.18,11.6-2.73,31.47-11.87,35.75-15C170,212.92,146,191.53,138.85,185.62c-4.34-3.6-8.21-6.84-11.57-9.67q-1.29,2.13-2.55,4.27l-.22.37h-.43a307.42,307.42,0,0,0-32.84,1.68l-.68,2.24C86.3,198.45,79.89,219.47,69.1,238.27Z"/><path class="cls-2" d="M50.13,307.8a24.58,24.58,0,0,0-6.32-2.66.49.49,0,0,0-.26.94,23.32,23.32,0,0,1,6.09,2.57A.49.49,0,0,0,50.13,307.8Z"/><path class="cls-2" d="M49,311.38a38,38,0,0,1-7.13-1.8c-.6-.21-.85.74-.26.95a39.62,39.62,0,0,0,7.13,1.8C49.39,312.42,49.65,311.48,49,311.38Z"/><path d="M121.35,219.26a.57.57,0,0,1-.22,0,.74.74,0,0,1-.5-.93,95.38,95.38,0,0,0,3.4-14.65l.06-.52.51-.13a39.92,39.92,0,0,0,6.46-2.2.75.75,0,0,1,.65,1.36,39.4,39.4,0,0,1-6.26,2.17,103.85,103.85,0,0,1-3.38,14.4A.76.76,0,0,1,121.35,219.26Z"/><path d="M85.64,261.26a8.61,8.61,0,0,0-.92,5.95c.13.61,1.07.35,1-.26a7.53,7.53,0,0,1,.82-5.2C86.79,261.2,86,260.7,85.64,261.26Z"/><path d="M180.94,257.12a7,7,0,0,1-3.67-3c-.33-.54-1.18,0-.85.49a8.18,8.18,0,0,0,4.26,3.44C181.27,258.28,181.53,257.33,180.94,257.12Z"/><g id="Top"><g id="Hand_2" data-name="Hand 2"><path class="cls-2" d="M205.17,94.85s1.46-3.21-2.77-3.9c-2-.32-6.47.52-10.94,2.27L191,91.58s3.36-4.13.5-5.63c-3.18-1.66-8.38,8.63-10.71,14.66h0a7.56,7.56,0,0,0-.83,1.69c-2.52,7.41-7.23,34.22-23.76,32.6-9.28-.9-7.11-7.59-16.95-16.46l-16,6.79c-13.18,20.7,15.79,48.82,45.37,36.63,18.86-7.76,23.1-48.26,27.24-50.9,7.46-4.75,12.78-5.66,10.81-11C206.7,100,208.56,98,205.17,94.85Z"/><path d="M154.13,165.53a37.72,37.72,0,0,1-28.42-12.88c-7.28-8.7-8.46-19.37-3.06-27.83l.12-.2,16.68-7.06.36.32a39.4,39.4,0,0,1,7.88,9.85c2.25,3.7,3.6,5.92,8.65,6.42,13.57,1.33,18.89-17.71,21.74-27.93.46-1.67.87-3.11,1.22-4.17a8.86,8.86,0,0,1,.81-1.68v0c.21-.55,5.25-13.46,9.7-15.13a2.46,2.46,0,0,1,2.06.08,2.76,2.76,0,0,1,1.49,1.9c.36,1.75-1,3.77-1.52,4.55l.13.49c4.17-1.54,8.42-2.36,10.54-2a4.21,4.21,0,0,1,3.28,1.94,3.43,3.43,0,0,1,.23,2.48A5.71,5.71,0,0,1,208,98.3a3.21,3.21,0,0,1-.42,1.78c1.41,4.38-1.86,6.18-6.34,8.65-1.46.81-3.12,1.72-4.9,2.85-1,.67-2.48,5.63-4,10.89-4,13.77-10,34.59-23.34,40.08A38.75,38.75,0,0,1,154.13,165.53Zm-30.34-39.71c-5,8-3.82,17.63,3.07,25.86a36.37,36.37,0,0,0,41.51,9.48c12.66-5.21,18.57-25.61,22.47-39.11,2.11-7.27,3.18-10.8,4.64-11.73,1.82-1.16,3.5-2.09,5-2.91,5.05-2.78,6.74-3.91,5.52-7.18l-.16-.43.32-.34s1.26-1.54-1.49-4.06l-.4-.37.22-.49a2.14,2.14,0,0,0,0-1.69,2.87,2.87,0,0,0-2.2-1.16c-1.66-.27-5.92.42-10.54,2.23l-.79.31-.75-2.83.24-.3c.49-.6,1.7-2.42,1.46-3.61a1.27,1.27,0,0,0-.72-.88,1,1,0,0,0-.83,0c-2.31.87-5.8,6.93-8.21,12.72l-.66,1.68a7.18,7.18,0,0,0-.76,1.52c-.34,1-.74,2.44-1.2,4.09-2.86,10.28-8.11,29.09-21.81,29.1-.49,0-1,0-1.52-.08-5.79-.57-7.46-3.32-9.78-7.13a38.61,38.61,0,0,0-7.25-9.2Z"/><path d="M158.84,146.56c-.66-3.84-1.1-7.74-1.61-11.62-.32,0-.64,0-1-.05-9.28-.9-7.11-7.59-16.95-16.46l-16,6.79c-12,18.88,11.61,42,38.3,36.7C160.67,156.8,159.72,151.68,158.84,146.56Z"/><path d="M203.52,93.91a24.17,24.17,0,0,0-8,2.07c-.59.27-.08,1.13.5.87a22.28,22.28,0,0,1,7.51-1.94C204.16,94.86,204.17,93.86,203.52,93.91Z"/><path d="M205.28,98.29a14.32,14.32,0,0,0-8.11,2.88c-.51.39,0,1.25.51.87a13.35,13.35,0,0,1,7.6-2.75C205.92,99.26,205.92,98.26,205.28,98.29Z"/></g><g id="Backpack"><rect class="cls-2" x="66.32" y="121.63" width="30.55" height="20.85" rx="3.17" transform="translate(175.79 8.68) rotate(69.07)"/><path d="M79.14,149.87a3.91,3.91,0,0,1-3.66-2.52l-8.65-22.61a3.92,3.92,0,0,1,2.26-5.06l13.56-5.19a3.94,3.94,0,0,1,5.06,2.26l8.64,22.62a3.83,3.83,0,0,1-.08,3,3.92,3.92,0,0,1-2.18,2.07l-13.55,5.18A4,4,0,0,1,79.14,149.87Zm4.91-34.14a2.58,2.58,0,0,0-.87.16l-13.55,5.19a2.41,2.41,0,0,0-1.4,3.12l8.65,22.61a2.41,2.41,0,0,0,3.12,1.4L93.56,143a2.44,2.44,0,0,0,1.34-1.28,2.38,2.38,0,0,0,0-1.85l-8.64-22.61A2.45,2.45,0,0,0,85,115.94,2.4,2.4,0,0,0,84.05,115.73Z"/><rect x="69.53" y="123.82" width="24.13" height="16.47" rx="3.17" transform="translate(175.79 8.68) rotate(69.07)"/><path d="M80,146.09a3.91,3.91,0,0,1-3.66-2.52L70,127a3.93,3.93,0,0,1,2.26-5.06l9.47-3.62a3.94,3.94,0,0,1,5.06,2.26l6.35,16.62a4,4,0,0,1-.08,3,3.9,3.9,0,0,1-2.18,2.06l-9.46,3.62A4,4,0,0,1,80,146.09ZM77.78,143a2.42,2.42,0,0,0,3.12,1.4l9.46-3.62a2.41,2.41,0,0,0,1.4-3.12l-6.35-16.62a2.42,2.42,0,0,0-3.13-1.39l-9.46,3.61a2.43,2.43,0,0,0-1.4,3.13Z"/><path class="cls-2" d="M74.39,136.29l9.06-17.5A3.27,3.27,0,0,0,82,119l-9.46,3.62a3.19,3.19,0,0,0-1.83,4.1Z"/><path d="M74.29,138.12,70,127a3.93,3.93,0,0,1,2.26-5.06l9.47-3.62a3.91,3.91,0,0,1,1.78-.22l1.1.11Zm7.83-18.38-9.3,3.55a2.43,2.43,0,0,0-1.4,3.13l3.08,8Z"/><path class="cls-3" d="M121.75,127.45v35.24a17.7,17.7,0,0,1-17.7,17.7H85.22a17.71,17.71,0,0,1-17.7-17.7V127.45l19.69,11.33v-29h16.84A17.7,17.7,0,0,1,121.75,127.45Z"/><path d="M67.86,205.27a.76.76,0,0,1-.75-.75V167.05a7.3,7.3,0,0,1,7.29-7.29A5.8,5.8,0,0,0,80.19,154v-22.7a.75.75,0,0,1,1.5,0V154a7.3,7.3,0,0,1-7.29,7.29,5.8,5.8,0,0,0-5.79,5.79v37.47A.75.75,0,0,1,67.86,205.27Z"/><rect x="65.86" y="202.52" width="4" height="4"/><path class="cls-2" d="M104.52,114.7H92.4a.75.75,0,0,1,0-1.5h12.12a.75.75,0,0,1,0,1.5Z"/></g><g id="Body"><path d="M124.18,116.28C114,118.86,106,123.79,99.75,132.55a2.47,2.47,0,0,1,.46,2.23c-2.45,10.09-17.11,54-17.06,53.83l56.59-2.9S162.91,106.47,124.18,116.28Z"/><path d="M83.19,189.36h-1s14.82-44.8,17.25-54.75a1.78,1.78,0,0,0-.33-1.59l-.36-.44.33-.47c6.07-8.54,14-13.8,24.87-16.56h0c7.3-1.85,13-.71,16.94,3.37,14.5,15,.14,64.89-.48,67l-.15.51Zm17.47-56.8a3.3,3.3,0,0,1,.28,2.4c-1.27,5.24-5.85,19.61-9.46,30.74C86.85,180,85,185.58,84.2,187.81l55-2.82c1.51-5.38,13.84-51.39.7-65-3.54-3.67-8.75-4.66-15.5-2.95l-.18-.73.18.73C114,119.63,106.46,124.58,100.66,132.56Z"/><path class="cls-2" d="M146.46,139.53a.74.74,0,0,1-.74-.68c0-.06-.49-5.84-1.21-9.53A.75.75,0,0,1,146,129c.73,3.77,1.2,9.45,1.22,9.69a.75.75,0,0,1-.69.81Z"/><path class="cls-3" d="M106.07,116c-2.39-1-3.43,2.92-1.06,3.86,6.69,2.65,11.19,8.66,13.59,15.28,2.79,7.69,1.46,14.42-3.94,20.49-8.87,10-22,17.35-35.52,17.27-2.57,0-2.58,4,0,4,15.8.1,34.15-9.76,42.24-23.6C129.18,140,119.49,121.35,106.07,116Z"/></g><g id="Hand"><path class="cls-2" d="M99.75,132.55c-15.1,21.9,18.87,49.23,52.74,36.34,21.58-8.22,27.63-44,31.15-48.19,6.14-7.37,14.12-10.23,11.86-15.86,0,0,.9-3.76-2.68-5.06.28-1.75-2.64-3.84-5.29-1.7a13.89,13.89,0,0,1-9.4,4c-5.95.46-10.75,3.55-12.48,9-2.5,8-9.16,30.64-28.14,31.64-20,1.06-23.12-10.73-23.12-10.73Z"/><path d="M134.5,173c-14.56,0-27.15-6.47-33.9-15.06-6.52-8.31-7.06-17.72-1.47-25.83l.21-.31,15.62-.53.15.58c.12.46,3.21,11.18,22.36,10.17,18-.94,24.75-22.44,27.28-30.54l.19-.58c1.75-5.57,6.53-9,13.13-9.57,4.92-.38,6.93-2.1,8.4-3.35.2-.18.4-.35.59-.5a4.25,4.25,0,0,1,4.86-.53,3.25,3.25,0,0,1,1.65,2.32,4.93,4.93,0,0,1,2.7,5.49c1.49,4.07-1.66,6.77-5.63,10.18a52.29,52.29,0,0,0-6.43,6.23c-.79.95-1.84,4-3.17,7.88-4.11,12-11.75,34.24-28.29,40.53A51,51,0,0,1,134.5,173Zm-34.35-39.73c-5,7.46-4.37,16.09,1.63,23.74,8.9,11.34,29.6,19.1,50.44,11.17,15.88-6.05,23.38-27.88,27.4-39.61,1.49-4.34,2.47-7.2,3.44-8.36a53.74,53.74,0,0,1,6.61-6.41c4.21-3.62,6.35-5.65,5.13-8.69l-.09-.23.06-.23a3.47,3.47,0,0,0-2.21-4.17l-.58-.21.1-.62a1.57,1.57,0,0,0-.92-1.4,2.7,2.7,0,0,0-3.16.4c-.18.14-.36.3-.56.47-1.53,1.31-3.84,3.29-9.25,3.71-6,.46-10.26,3.57-11.82,8.52l-.18.58c-2.63,8.37-9.59,30.59-28.64,31.59-18.11.95-22.78-8.25-23.7-10.71Z"/><path d="M120.24,159.36c2.28-5.74,4.33-11.71,7-17.33-10.92-2.51-12.87-10-12.87-10l-14.64.5c-9.37,13.58.15,29.26,16.81,36.12Q118.41,164,120.24,159.36Z"/><path d="M188,104.31c-1.52-2.75-5.28.29-5.69,2.65a6.93,6.93,0,0,0-7.44,3.83c-.28.57.58,1.08.86.5a6,6,0,0,1,6.91-3.28.5.5,0,0,0,.63-.48c-.08-.87,3.2-5.51,4-1.8.15.69-.66,2.47-.95,3a9.53,9.53,0,0,1-3.74,3.76.5.5,0,0,0,.5.87C185.49,112,189.79,107.5,188,104.31Z"/><path d="M191.78,100.63a7.75,7.75,0,0,0-4.63,3.15c-.36.53.41,1.16.78.62a6.76,6.76,0,0,1,4-2.78C192.51,101.47,192.4,100.48,191.78,100.63Z"/><path d="M193.9,104.18c-3.34,0-5.62,3.21-7.77,5.37a.5.5,0,0,0,.71.71c1.89-1.91,4.12-5.05,7.06-5.08A.5.5,0,0,0,193.9,104.18Z"/><path class="cls-2" d="M114.88,169.43a.8.8,0,0,1-.33-.08c-5.93-2.95-10.65-6.49-15.8-15a.75.75,0,1,1,1.28-.77c5,8.28,9.35,11.58,15.19,14.47a.76.76,0,0,1,.34,1A.78.78,0,0,1,114.88,169.43Z"/></g><g id="Objects"><rect class="cls-1" x="84.25" y="57.5" width="7.98" height="7.98" transform="translate(-16.14 35.57) rotate(-20.93)"/><path d="M55.75,106.19,70.65,88s8.75,9.75,1,17.87S55.75,106.19,55.75,106.19Z"/><polygon points="76.58 104.98 84.36 101.25 83.63 110.4 76.58 104.98"/><polygon points="134.75 33.35 132.37 23.55 142.64 26.61 134.75 33.35"/><circle class="cls-2" cx="104.52" cy="28.63" r="5.26"/><path d="M104.52,34.64c-3.77,0-6-2.25-6-6a6,6,0,1,1,6,6Zm0-10.53A4.52,4.52,0,0,0,100,28.63c0,3.72,2.45,4.51,4.51,4.51a4.52,4.52,0,0,0,0-9Z"/><circle cx="179.12" cy="74.8" r="6.34"/><polygon class="cls-1" points="74.86 81.67 94.64 73.46 93.04 95.4 74.86 81.67"/><path d="M101.9,77.14a.76.76,0,0,1-.57-.26.75.75,0,0,1,.09-1.06l5.23-4.44a.75.75,0,0,1,1.06.09.74.74,0,0,1-.09,1L102.39,77A.81.81,0,0,1,101.9,77.14Z"/><path d="M52.9,99a.75.75,0,0,1-.38-.1l-6-3.56a.75.75,0,0,1,.76-1.29l6,3.56A.74.74,0,0,1,52.9,99Z"/><path d="M74,64.2a.74.74,0,0,1-.75-.75V59.66a.75.75,0,0,1,1.5,0v3.79A.75.75,0,0,1,74,64.2Z"/><path d="M55.75,121.45a.75.75,0,0,1-.2-1.47l7.89-2.27a.76.76,0,0,1,.93.52.74.74,0,0,1-.51.92L56,121.42A.76.76,0,0,1,55.75,121.45Z"/><path d="M92.4,105.36a.75.75,0,0,1-.08-1.5l5-.53a.75.75,0,0,1,.83.66.77.77,0,0,1-.67.83l-5,.53Z"/><path d="M129.56,48.2A.78.78,0,0,1,129,48l-3.55-3.75a.75.75,0,0,1,0-1.06.74.74,0,0,1,1.06,0l3.55,3.75a.75.75,0,0,1,0,1.06A.76.76,0,0,1,129.56,48.2Z"/><path d="M136.4,64.2h-4.61a.75.75,0,0,1,0-1.5h4.61a.75.75,0,0,1,0,1.5Z"/><rect class="cls-1" x="137.67" y="33.59" width="23.97" height="23.97" transform="translate(11.61 119.17) rotate(-45)"/><path d="M174.83,86.84a.72.72,0,0,1-.47-.17L172.31,85A.75.75,0,0,1,172.2,84a.76.76,0,0,1,1.06-.11l2,1.66a.75.75,0,0,1-.47,1.33Z"/><path d="M180.82,55.67a.79.79,0,0,1-.44-.14.75.75,0,0,1-.17-1.05l2.81-4a.75.75,0,0,1,1.23.87l-2.82,4A.75.75,0,0,1,180.82,55.67Z"/><path class="cls-2" d="M144.13,48.1a.79.79,0,0,1-.53-.22.75.75,0,0,1,0-1.06l7.29-7.3A.75.75,0,0,1,152,40.59l-7.29,7.29A.79.79,0,0,1,144.13,48.1Z"/><path class="cls-2" d="M147.78,51.74a.73.73,0,0,1-.53-.22.74.74,0,0,1,0-1.06l7.29-7.29a.75.75,0,0,1,1.06,1.06l-7.29,7.29A.74.74,0,0,1,147.78,51.74Z"/><path d="M54.53,70.76a.74.74,0,0,1-.53-.22l-8.15-8.15a.74.74,0,0,1,0-1.06.75.75,0,0,1,1.06,0l8.15,8.15a.75.75,0,0,1,0,1.06A.74.74,0,0,1,54.53,70.76Z"/><path d="M46.38,70.76a.71.71,0,0,1-.53-.22.74.74,0,0,1,0-1.06L54,61.33a.75.75,0,0,1,1.06,1.06l-8.15,8.15A.74.74,0,0,1,46.38,70.76Z"/></g><g id="Head"><path class="cls-2" d="M132.89,88.85c-4.41-5.5-13.35-8.11-19.1-3.81s-6.5,13-1.7,19.4l0,.06a9.25,9.25,0,0,0-1.45,1.5c-2.57,3.43-1,7.29,2.34,8a7.93,7.93,0,0,0,8.52-3.83,14.13,14.13,0,0,0,9.64-1.91C139.81,102.86,137.91,95.09,132.89,88.85Z"/><path d="M114.6,114.89a8.8,8.8,0,0,1-1.72-.17,5.12,5.12,0,0,1-3.88-3.23,6.18,6.18,0,0,1,1.09-5.94,8.54,8.54,0,0,1,1-1.16c-4.64-6.73-3.7-15.53,2.2-20,6.25-4.68,15.63-1.68,20.14,3.94,2.4,3,5.09,7.54,4.28,12.3-.55,3.22-2.62,6-6.17,8.2A14.83,14.83,0,0,1,122,111,8.53,8.53,0,0,1,114.6,114.89Zm6-31.28a10.49,10.49,0,0,0-6.37,2c-5.4,4-6.1,12.28-1.55,18.35l.43.57-.5.52a9.34,9.34,0,0,0-1.33,1.36,4.74,4.74,0,0,0-.89,4.52,3.66,3.66,0,0,0,2.78,2.29,7.13,7.13,0,0,0,7.71-3.44l.25-.47.53.08a13.32,13.32,0,0,0,9.12-1.81c3.17-2,5-4.4,5.49-7.19.72-4.2-1.77-8.36-4-11.1A15.69,15.69,0,0,0,120.61,83.61Z"/><circle cx="124.67" cy="95.06" r="1"/><path d="M133,94.12a23.18,23.18,0,0,0-5.3-4c-.57-.31-1.08.55-.52.86a22.46,22.46,0,0,1,5.11,3.88A.5.5,0,0,0,133,94.12Z"/><path d="M117.89,106.51a5.09,5.09,0,0,0-5.71,2.73c-.27.58.58,1.1.86.52a4.11,4.11,0,0,1,4.58-2.29C118.24,107.61,118.52,106.65,117.89,106.51Z"/><path d="M122.25,85.15c-1.65,2.79-11.11,10.48-5.94,14.86,1.32,1.12,2.53,1.4,1.79,3a2,2,0,0,1-2.51.78c-1.87.91-3.3,1-4.16,2.11-8.9.11-7.94-8.34-6-10.69,0,0-3.55-10.33,4.79-10.84,0,0,3.91-11.83,9.89-9.76C127.94,77.29,122.25,85.15,122.25,85.15Z"/></g></g></svg>