<svg id="Слой_1" data-name="Слой 1" xmlns="http://www.w3.org/2000/svg" viewBox="0 0 212.97 321.33"><defs><style>.cls-1,.cls-2{fill:#fff;}.cls-2{stroke:#000;stroke-miterlimit:10;}.cls-3{fill:#ffdf00;}</style></defs><g id="Legs"><path class="cls-1" d="M156.75,286.93l-47.09-.32c.09-1.33.18-2.85.24-4.47l0-1c.29-7.75.29-17.14.29-17.14,9.79-2.85,14.5-4.63,24.55-6.23A28.21,28.21,0,0,0,140,270.17c.2.25.41.52.62.74a19.09,19.09,0,0,0,1.42,1.52c.25.24.5.47.76.68a28.31,28.31,0,0,0,7.73,4.64,9.62,9.62,0,0,1,4.8,4.39A11.89,11.89,0,0,1,156.75,286.93Z"/><path d="M157.5,287.65l-48.61-.33,0-.77c.1-1.34.19-2.88.25-4.44l0-.95c.28-7.66.28-17,.28-17.12v-.53l.52-.15c2-.57,3.71-1.1,5.34-1.59a128.4,128.4,0,0,1,19.3-4.66l.69-.11.12.68a27.74,27.74,0,0,0,5.05,12.05l.09.12c.16.2.33.4.49.58a18.77,18.77,0,0,0,1.38,1.48c.25.23.48.45.73.66a27.9,27.9,0,0,0,7.55,4.52,10.62,10.62,0,0,1,4.53,3.68,11.17,11.17,0,0,1,.62,1,12.68,12.68,0,0,1,1.56,5.1Zm-47.08-1.75,45.53.31a11.74,11.74,0,0,0-1.29-3.72,9.05,9.05,0,0,0-4.46-4.09,29,29,0,0,1-7.92-4.75c-.26-.22-.52-.46-.78-.71a17.61,17.61,0,0,1-1.47-1.57,7.28,7.28,0,0,1-.53-.63l-.1-.12a28.75,28.75,0,0,1-5.2-12,126.75,126.75,0,0,0-18.42,4.51c-1.5.45-3.09.93-4.85,1.44,0,2.11,0,10-.28,16.63l0,1C110.56,283.46,110.5,284.73,110.42,285.9Z"/><path d="M140,270.17c.2.25.4.51.62.74l-5.72,2.71c-.54.26-1.06-.54-.5-.8Z"/><path d="M142,272.43c.25.24.49.47.74.69l-6.38,3c-.54.26-1.05-.55-.5-.8Z"/><path class="cls-1" d="M101.39,291.36l-45-13.94c.5-1.3,1.05-2.84,1.62-4.47.09-.29.2-.59.31-.89,2.49-7.29,5.14-16.07,5.14-16.07,10.2.1,15.21-.24,25.3,1.14a28.12,28.12,0,0,0,1.39,13.33c.12.29.24.61.37.89a20.15,20.15,0,0,0,.93,1.86c.17.31.33.59.51.88A28.67,28.67,0,0,0,98,280.75a9.84,9.84,0,0,1,3.29,5.42,10.36,10.36,0,0,1,.2,1.06A12.19,12.19,0,0,1,101.39,291.36Z"/><path d="M101.89,292.27,55.45,277.88l.28-.72c.47-1.22,1-2.72,1.61-4.44.09-.29.2-.6.32-.91,2.45-7.18,5.1-15.94,5.12-16l.16-.52h.53c2,0,3.9,0,5.61,0a127.85,127.85,0,0,1,19.79,1.12l.69.09-.08.69a27.37,27.37,0,0,0,1.35,13c.11.28.23.58.35.85.3.68.59,1.26.9,1.81.17.3.32.57.5.85a28,28,0,0,0,5.92,6.49A10.52,10.52,0,0,1,102,286c.1.4.16.79.21,1.12a12.68,12.68,0,0,1-.16,4.41ZM57.34,277l43.48,13.48a11.41,11.41,0,0,0,0-3.12,8.89,8.89,0,0,0-.18-1,9.15,9.15,0,0,0-3.06-5.06,29.2,29.2,0,0,1-6.21-6.82c-.19-.29-.35-.59-.53-.9a19.28,19.28,0,0,1-1-1.93c-.13-.29-.26-.62-.38-.93a28.64,28.64,0,0,1-1.51-13,128.31,128.31,0,0,0-18.91-1c-1.57,0-3.24,0-5.09,0-.6,2-2.86,9.36-5,15.58-.12.31-.22.6-.31.88C58.2,274.6,57.75,275.87,57.34,277Z"/><path d="M90.16,270.45c.12.31.24.62.38.9l-6.26.94c-.6.09-.86-.83-.24-.92Z"/><path d="M91.46,273.21q.26.45.51.87l-7,1.06c-.6.09-.85-.84-.25-.92Z"/><path d="M75.28,139.14c-1.59,29.22-15.88,119.1-15.88,119.1L96.71,268.4s19.54-103.85,13.05-130.85C106.75,125,75.28,139.14,75.28,139.14Z"/><path d="M131.18,138.19c5.4,21.6,9.52,123.86,9.52,123.86l-34.3,5.08s-6-121.64-7.75-128.94S131.18,138.19,131.18,138.19Z"/><path class="cls-1" d="M104.31,223.31h-.09a.71.71,0,0,1-.62-.8c2.07-17.81,6.18-68,6.22-68.5l0-.52.51-.12s4.13-1,6.92-1.88a.71.71,0,1,1,.46,1.35c-2.3.77-5.35,1.52-6.55,1.81-.44,5.39-4.22,51.17-6.18,68A.72.72,0,0,1,104.31,223.31Z"/><path class="cls-1" d="M78.16,231.36a40.82,40.82,0,0,1-10.7-1.89.71.71,0,1,1,.39-1.37c7.68,2.18,12.42,2.41,14.93.73s2.8-5,3.29-9.33c.1-.88.21-1.79.33-2.72,1-7.06-1.31-7.41-8.81-8.56-2.22-.34-4.74-.72-7.7-1.37a.71.71,0,1,1,.3-1.39c2.92.63,5.42,1,7.62,1.35C85.23,208,89,208.52,87.82,217c-.13.92-.23,1.82-.33,2.69C87,224.15,86.54,228,83.57,230A9.53,9.53,0,0,1,78.16,231.36Z"/><path d="M101.53,287.23,58,273c.09-.29.2-.59.31-.89q21.49,7,43,14.11A10.36,10.36,0,0,1,101.53,287.23Z"/><path d="M155.28,282.14H109.9l0-1H154.7A9.8,9.8,0,0,1,155.28,282.14Z"/></g><g id="Backpack"><rect class="cls-2" x="47.9" y="69.09" width="50.29" height="81.19" rx="21.68"/><path d="M44.45,116h15a0,0,0,0,1,0,0v22.54a0,0,0,0,1,0,0h-4.8a10.17,10.17,0,0,1-10.17-10.17V116A0,0,0,0,1,44.45,116Z"/><path d="M53.56,119.23a.64.64,0,0,1-.64-.64V87.84A13.36,13.36,0,0,1,66.27,74.5a.64.64,0,0,1,0,1.27A12.09,12.09,0,0,0,54.19,87.84v30.75A.63.63,0,0,1,53.56,119.23Z"/></g><g id="Hand"><path class="cls-3" d="M107.05,70.94c15.74,3.84,23.82,17.34,28,29.09,2.94,8.31,13,27,19.66,29.46l-12.54,8.65s-16.81-7.87-20.47-21.32S107.05,70.94,107.05,70.94Z"/><path class="cls-3" d="M142.22,139l-.37-.17c-.7-.33-17.15-8.17-20.86-21.79-3.61-13.28-14.51-45.51-14.62-45.83L106,70.1l2,.28c16.31,4,23.73,18.13,27.73,29.41,3.06,8.67,12.94,26.71,19.23,29l1.3.47ZM108.15,72c2.06,6.11,11,32.84,14.22,44.66s17.27,19.45,19.72,20.68l11.19-7.71c-7.1-4.13-16.33-22-18.92-29.33C130.59,89.62,123,76.22,108.15,72Z"/></g><g id="Body"><path class="cls-3" d="M127.88,103.86c-3.52-14.38-9.62-28.86-20.83-32.92a36.4,36.4,0,0,0-8-.64c-.33,0-.65,0-1,.06a16.6,16.6,0,0,1-5.25.65h0c-21.1,6.49-30,20.47-34.32,38.66a39.27,39.27,0,0,0-.93,6.3l3.56-.22L73.94,115a244.81,244.81,0,0,0-2.11,28.75l6.5-.26,54-2.12A180.22,180.22,0,0,0,127.88,103.86Z"/><path class="cls-3" d="M71.12,144.47v-.74a249.07,249.07,0,0,1,2-28l-8.35.51-8,.49.06-.81a38.38,38.38,0,0,1,.95-6.41c5-21.17,15.66-33.24,34.63-39.13l.46-.09a15.84,15.84,0,0,0,5-.63l.14,0,1,0a36.92,36.92,0,0,1,8.16.64l.12,0c9.54,3.45,16.7,14.69,21.28,33.42h0c4.46,18.26,4.48,37.47,4.48,37.66V142Zm3.64-30.26-.12.86A250.63,250.63,0,0,0,72.56,143l59.05-2.33c-.05-3.57-.49-20.48-4.43-36.63h0c-4.45-18.2-11.28-29.09-20.32-32.4a35.39,35.39,0,0,0-7.8-.62l-.87,0a17.09,17.09,0,0,1-5.3.68C74.44,77.46,64,89.22,59.19,109.84a37.49,37.49,0,0,0-.86,5.38l6.34-.39c3.08-.19,6.15-.39,9.22-.56Z"/><path class="cls-2" d="M83.05,73.92c9.11,7.87,11.24,21.6,6.29,32.1-3.72,7.86-9.89,13.86-16.86,18.82l-3.23,5.3c-.27,1-.55,2-.81,3,11.24-6.8,21.72-15.54,26.47-28.17,4.35-11.57,2-25.38-9.14-33.76"/><path class="cls-1" d="M128.93,115.78a.72.72,0,0,1-.71-.61c0-.2-3-19.81-5.84-27.43a.71.71,0,0,1,1.33-.51c2.94,7.77,5.8,26.92,5.92,27.73a.71.71,0,0,1-.6.81Z"/><path class="cls-1" d="M107.05,70.94l-.17.53L105,77.39,103.49,82l-7.85-8.09L93.4,71.61l-.59-.6a36.92,36.92,0,0,1,5.25-.65c.32,0,.64,0,1-.06A36.4,36.4,0,0,1,107.05,70.94Z"/><path d="M103.81,83.37,91.39,70.57l1.28-.26A39.65,39.65,0,0,1,98,69.64l1,0a36.92,36.92,0,0,1,8.16.64l.81.15ZM94.26,71.48l8.92,9.19,2.94-9.17A34.78,34.78,0,0,0,99.06,71q-.48,0-.93.06A37.84,37.84,0,0,0,94.26,71.48Z"/></g><g id="Hand_2" data-name="Hand 2"><path class="cls-1" d="M122.75,129.49s-8.89,8.32-18.08,8.65a17.32,17.32,0,0,1-4.79-.54c.1,6.65.17,13.31.34,20A67.9,67.9,0,0,0,128,152.83C166.87,138.05,122.75,129.49,122.75,129.49Z"/><path d="M103.36,158.35c-1.06,0-2.12,0-3.18-.08l-.65,0,0-.66c-.14-5.09-.21-10.26-.28-15.27l-.08-5.62.91.23a16.33,16.33,0,0,0,4.59.51c8.81-.31,17.53-8.37,17.62-8.45l.26-.25.36.07c.86.16,21.16,4.19,21.83,11.9.37,4.27-5,8.46-16.44,12.81A69.83,69.83,0,0,1,103.36,158.35Zm-2.44-1.48a67.63,67.63,0,0,0,26.85-4.7c13.21-5,15.73-8.95,15.52-11.36-.46-5.4-14.5-9.37-20.32-10.55-1.61,1.43-9.72,8.29-18.27,8.59a17.45,17.45,0,0,1-4.09-.35l0,3.79C100.73,147.07,100.8,152,100.92,156.87Z"/><path class="cls-3" d="M101.12,136.72c-8-1.4-15.41-7.23-16.47-16-.66-5.5,1.25-11.73,3.89-17.34a131.42,131.42,0,0,0-18.69-18c-5.7,6.69-9.15,14.94-11.36,24.31-5.77,24.55,13.26,49.94,44.39,49.42C101.83,152.52,102.11,143.32,101.12,136.72Z"/><path class="cls-3" d="M102,159.82c-14.72,0-27.92-5.93-36.33-16.36a39.44,39.44,0,0,1-7.84-33.94C60.23,99.19,64,91.14,69.31,84.91l.44-.52.54.41a131.79,131.79,0,0,1,18.79,18.1l.3.35-.2.42c-3.09,6.61-4.38,12.31-3.82,17,1.07,8.9,8.75,14.14,15.89,15.39l.5.09.08.51c.49,3.26.67,7.2.85,11a108.71,108.71,0,0,0,.9,11.36l.13.81H102ZM70,86.36C65,92.34,61.5,100,59.19,109.84a38,38,0,0,0,7.57,32.72c8.13,10.09,20.92,15.83,35.21,15.83h.08c-.45-3.23-.63-7-.8-10.7s-.34-7.27-.76-10.36c-7.51-1.5-15.42-7.12-16.55-16.53-.58-4.82.68-10.64,3.75-17.31A130.34,130.34,0,0,0,70,86.36Z"/><path class="cls-1" d="M99.88,138.32a.85.85,0,0,1-.23,0,29.36,29.36,0,0,1-14.19-11.89c-4.63-7.78-.8-20.32,4.32-29.47a.72.72,0,0,1,1-.27.71.71,0,0,1,.28,1c-4.93,8.8-8.66,20.79-4.35,28a28.43,28.43,0,0,0,13.44,11.27.71.71,0,0,1,.44.91A.73.73,0,0,1,99.88,138.32Z"/></g><g id="Tablet"><path class="cls-1" d="M159.49,148.28,104.77,143a2.1,2.1,0,0,1-1.34-3.5l19.64-21.43a2,2,0,0,1,1.74-.67l54.72,5.29a2.09,2.09,0,0,1,1.34,3.5l-19.63,21.44A2.09,2.09,0,0,1,159.49,148.28Z"/><path d="M159.69,149h-.27l-54.72-5.3a2.81,2.81,0,0,1-1.8-4.69l19.64-21.44a2.82,2.82,0,0,1,2.34-.89L179.6,122a2.81,2.81,0,0,1,1.8,4.69L161.76,148.1A2.82,2.82,0,0,1,159.69,149Zm-.13-1.44a1.37,1.37,0,0,0,1.15-.44l19.64-21.44a1.38,1.38,0,0,0-.89-2.3l-54.72-5.29a1.39,1.39,0,0,0-1.15.44L104,140a1.38,1.38,0,0,0,.88,2.3Z"/><path d="M171.15,126.91l-6.67,7.28-8,8.73a1.46,1.46,0,0,1-.43.32,1.52,1.52,0,0,1-.87.18l-40.85-3.95a1.56,1.56,0,0,1-1-2.61l14.66-16a1.54,1.54,0,0,1,1.3-.49l40.85,4A1.56,1.56,0,0,1,171.15,126.91Z"/></g><g id="Thumb"><path class="cls-1" d="M108.15,144.48c4.58-5.75,20.59-13.77,21.09-8.84.26,2.58-4.92,4.16-4.92,4.16l-2.39,8.49"/><path d="M121.93,149l-.2,0a.71.71,0,0,1-.49-.88l2.49-8.87.38-.12c1.2-.36,4.58-1.77,4.42-3.39a.86.86,0,0,0-.7-.8c-3.46-1-15.26,5.15-19.12,10a.73.73,0,0,1-1,.12.72.72,0,0,1-.11-1c4-5,16.35-11.75,20.64-10.48a2.26,2.26,0,0,1,1.72,2c.27,2.72-3.71,4.33-5,4.79l-2.28,8.13A.73.73,0,0,1,121.93,149Z"/></g><g id="Palm"><path class="cls-1" d="M155.41,120.35c-1.94-9,16.15-3.53,20.46,2Z"/><path d="M177.45,123.2,154.83,121l-.11-.51c-.52-2.37.23-4.15,2.09-5,4.72-2.21,16.23,2.08,19.62,6.42ZM156,119.69,174,121.43c-4.08-3.42-12.86-6.39-16.55-4.66A2.49,2.49,0,0,0,156,119.69Z"/><path class="cls-1" d="M155.27,119.57c1.83,3.18,5.63,7.29,8.65,6.5s-2.86-7.62-2.86-7.62"/><path d="M163.14,126.88c-3.27,0-6.79-4-8.49-6.95a.7.7,0,0,1,.26-1,.72.72,0,0,1,1,.26c1.71,3,5.28,6.83,7.84,6.16.26-.07.29-.17.31-.23.3-1-1.59-4-3.52-6.24a.7.7,0,0,1,.07-1,.71.71,0,0,1,1,.07c.76.88,4.49,5.37,3.8,7.6a1.74,1.74,0,0,1-1.3,1.18A4,4,0,0,1,163.14,126.88Z"/></g><path class="cls-3" d="M164.48,134.19l-8,8.73a1.46,1.46,0,0,1-.43.32l-8.4-13.8s10.29-8.22,15.58,1.48A11.91,11.91,0,0,1,164.48,134.19Z"/><path class="cls-1" d="M144,141.37a.69.69,0,0,1-.41-.13.72.72,0,0,1-.17-1l1.79-2.52a.72.72,0,0,1,1.17.83l-1.8,2.52A.7.7,0,0,1,144,141.37Z"/><path class="cls-1" d="M128.93,131.74a.69.69,0,0,1-.54-.25l-2.81-3.2a.73.73,0,0,1,.07-1,.71.71,0,0,1,1,.07l2.8,3.2a.72.72,0,0,1-.06,1A.73.73,0,0,1,128.93,131.74Z"/><path d="M144,125.29a.72.72,0,0,1-.63-1.06l5.21-9.51a.71.71,0,1,1,1.25.68l-5.2,9.52A.71.71,0,0,1,144,125.29Z"/><polygon class="cls-1" points="122.2 122.32 135.65 115.06 135.33 129.49 122.2 122.32"/><path d="M136,130.68l-15.32-8.37,15.69-8.46Zm-12.32-8.36,10.94,6,.27-12Z"/><rect class="cls-1" x="134.87" y="131.87" width="5.8" height="5.8" transform="translate(-40.81 62.28) rotate(-22.28)"/><g id="Head"><path class="cls-1" d="M113.13,53.62A24.22,24.22,0,0,0,111,44a10.89,10.89,0,0,0-.91-1.5A12.35,12.35,0,0,0,101.52,37c-.31,0-.63-.06-1-.08h-.95C93,37.15,87.19,42.8,86.27,50.36a.2.2,0,0,1,0,.07A14.71,14.71,0,0,0,86.17,53c-3.28,1.4-3.69,5.75-1.85,8.41A6.43,6.43,0,0,0,91.72,64a14.47,14.47,0,0,0,6.16,3C108.24,69.12,113.65,62.23,113.13,53.62Z"/><path d="M86.8,64.49a7.71,7.71,0,0,1-3.12-2.65,7.19,7.19,0,0,1-1-6,5.52,5.52,0,0,1,2.65-3.39,16.88,16.88,0,0,1,.11-2.16l0-.11c.94-7.75,7-13.8,14-14.08h1.09c.4,0,.72.05,1,.09a13.08,13.08,0,0,1,9.07,5.81,12.21,12.21,0,0,1,1,1.59,25.24,25.24,0,0,1,2.26,9.93c.3,4.88-1.26,9.17-4.27,11.77s-7.08,3.39-11.92,2.39a15.42,15.42,0,0,1-6.17-2.87A7.3,7.3,0,0,1,86.8,64.49ZM87,50.55A14.51,14.51,0,0,0,87,53l0,.54-.49.21a3.92,3.92,0,0,0-2.26,2.63,5.72,5.72,0,0,0,7.28,6.92l.39-.12.32.26A13.81,13.81,0,0,0,98,66.2c4.34.9,8,.2,10.58-2s4-6.11,3.73-10.49h0a23.79,23.79,0,0,0-2.09-9.32,12.47,12.47,0,0,0-8.83-6.56c-.29,0-.58-.06-.87-.08h-.92c-6.32.21-11.74,5.69-12.59,12.74Z"/><circle cx="102.48" cy="52.37" r="1.04"/><path d="M109.43,57.67a24.08,24.08,0,0,0-1.08-6.85c-.2-.64-1.2-.37-1,.27a23.38,23.38,0,0,1,1,6.59A.52.52,0,0,0,109.43,57.67Z"/><path d="M92.45,58.19a5.31,5.31,0,0,0-6.26-2.06c-.62.23-.35,1.24.27,1a4.27,4.27,0,0,1,5.09,1.58C91.92,59.26,92.82,58.74,92.45,58.19Z"/><path d="M86,53a.84.84,0,0,0,.21,0h0c.94-.09,4.52-.45,5.52-.13,4.47-2.35,5-3,7.64-6.15,1.79-1.19,7.59-.4,11.62-2.72a1.92,1.92,0,0,0-.3-2.4c-2-2.91-5.6-4.16-9.14-4.59-.31,0-.63-.06-1-.08h-.95C92.57,37.08,84.54,42.68,86,53Z"/><path d="M96.5,52.45a4.5,4.5,0,0,0-1.45-2.75,2.63,2.63,0,0,0-3.72.48,0,0,0,0,1,0,0,1.89,1.89,0,0,0-1,1.47,5.78,5.78,0,0,0,.21,2.71A3.39,3.39,0,0,0,93,56.51,3.25,3.25,0,0,0,96.5,52.45Z"/></g><g id="Hat"><path d="M116.55,40.59S95.12,55.8,78,55.5A13.37,13.37,0,0,1,81.3,50l.4-7.46,23-11.09,4.14,5.5.4.53s.59.09,1.47.31A14.43,14.43,0,0,1,116.55,40.59Z"/><path class="cls-1" d="M110.76,37.76c-5.92,2.88-18.5,8.9-26.35,11.67a.73.73,0,0,1-.58,0,.74.74,0,0,1-.41-.44.78.78,0,0,1,.48-1c7.29-2.56,18.74-8,25-11l.4.53S109.88,37.54,110.76,37.76Z"/></g></svg>