<svg id="Слой_1" data-name="Слой 1" xmlns="http://www.w3.org/2000/svg" viewBox="0 0 322.53 327.81"><defs><style>.cls-1{fill:#fff;}.cls-2{fill:#ffdf00;}.cls-3{fill:#2b4df7;}</style></defs><path class="cls-1" d="M221.4,193.66,274.23,158s20.95,29-6.83,48.14C246.73,220.37,221.4,193.66,221.4,193.66Z"/><path d="M254.11,211.27c-17.14,0-33.24-16.71-33.44-16.93l-.81-.85,54.61-36.88.57.78c.4.56,9.88,13.9,7.33,28.73-1.41,8.2-6.26,15.21-14.41,20.82A23.9,23.9,0,0,1,254.11,211.27ZM223,193.8c4.51,4.35,26.2,23.68,43.87,11.5,7.68-5.3,12.24-11.86,13.57-19.51,2.07-12-4.48-23.36-6.45-26.42Z"/><path class="cls-1" d="M254.11,211c-17,0-33.06-16.63-33.26-16.85l-.61-.64L274.41,157l.42.59c.41.56,9.83,13.81,7.29,28.54-1.4,8.13-6.21,15.08-14.3,20.66A23.65,23.65,0,0,1,254.11,211Z"/><path d="M254.11,212c-17.56,0-33.82-17-34-17.16l-1.42-1.5,55.95-37.78,1,1.37c.42.57,10.08,14.16,7.47,29.3-1.45,8.4-6.4,15.58-14.72,21.31A24.69,24.69,0,0,1,254.11,212ZM221.78,193.7c1.92,1.93,16.71,16.32,32.33,16.32a22.74,22.74,0,0,0,13.14-4.1c7.86-5.42,12.53-12.16,13.89-20,2.33-13.54-5.76-25.83-7-27.59Z"/><path class="cls-1" d="M137.57,193.91l12.59,41.73s-18.42,7.78-25.4-14.21C118.6,202.06,137.57,193.91,137.57,193.91Z"/><path d="M142.81,238a18.3,18.3,0,0,1-7.67-1.62c-5.2-2.39-9-7.32-11.34-14.63-6.35-20,13.17-28.65,13.37-28.74l1-.44,13.18,43.66-.83.35A21.47,21.47,0,0,1,142.81,238ZM137,195.32c-3.78,2-16.3,9.88-11.24,25.81,2.14,6.74,5.59,11.25,10.24,13.4,5.34,2.47,10.91,1.14,13,.49Z"/><polygon class="cls-2" points="172.73 112.45 218.06 98.43 210.3 144.58 172.73 112.45"/><rect class="cls-1" x="114.74" y="50.16" width="19.98" height="19.98" transform="translate(-13.71 63.51) rotate(-27.13)"/><path d="M120,75l-10-19.57,19.57-10,10,19.56Zm-7.33-18.7,8.2,16,16-8.21-8.2-16Z"/><polygon points="118.39 86.63 131.06 80.78 131.06 95.5 118.39 86.63"/><circle class="cls-1" cx="233.71" cy="93.87" r="6.75"/><path d="M233.71,101.63a7.76,7.76,0,1,1,7.76-7.76A7.77,7.77,0,0,1,233.71,101.63Zm0-13.51a5.76,5.76,0,1,0,5.76,5.75A5.76,5.76,0,0,0,233.71,88.12Z"/><rect class="cls-2" x="161.94" y="229.52" width="14.91" height="14.91" transform="translate(-120.53 265.19) rotate(-60)"/><path class="cls-3" d="M120.4,265.89a.78.78,0,0,0,.47-.17c12.61-10.16,22.53-6,28.89-2,8.36,5.29,15.15-2.74,15.21-2.82a.75.75,0,1,0-1.15-1c-.24.29-6,7.11-13.26,2.51-6.75-4.27-17.27-8.71-30.64,2.05a.76.76,0,0,0-.11,1.06A.77.77,0,0,0,120.4,265.89Z"/><path class="cls-3" d="M163.82,269c-.24.29-6,7.1-13.26,2.51-6.75-4.28-17.27-8.72-30.64,2a.75.75,0,0,0,.48,1.33.72.72,0,0,0,.47-.17c12.61-10.16,22.53-6,28.89-1.95,8.36,5.3,15.15-2.74,15.21-2.82a.75.75,0,0,0-1.15-1Z"/><path class="cls-3" d="M133.16,190.35a.75.75,0,0,1-.67-.42L126,176.73a.74.74,0,0,1,.34-1,.75.75,0,0,1,1,.34l6.47,13.2a.74.74,0,0,1-.34,1A.8.8,0,0,1,133.16,190.35Z"/><path class="cls-3" d="M123.36,187.06a.75.75,0,0,1-.33-1.42L136.15,179a.75.75,0,0,1,1,.33.76.76,0,0,1-.34,1L123.7,187A.81.81,0,0,1,123.36,187.06Z"/><path class="cls-3" d="M270,47.23a.73.73,0,0,1-.18-.14.75.75,0,0,1,0-1.06L283.43,33.1a.75.75,0,0,1,1,1.09L270.84,47.12A.74.74,0,0,1,270,47.23Z"/><circle cx="232.93" cy="210.31" r="9.41"/><polygon points="85.83 292.41 72.69 299.99 30.57 299.99 15.28 273.5 60.01 247.68 85.83 292.41"/><polygon class="cls-3" points="53.84 275.16 74.71 247.72 89.26 277.93 53.84 275.16"/><path d="M120.15,292.18a.83.83,0,0,1-.22,0l-10.51-3.26a.75.75,0,0,1,.44-1.44l10.51,3.27a.75.75,0,0,1-.22,1.46Z"/><path d="M102.18,241a1,1,0,0,1-.24,0,.75.75,0,0,1-.47-.95l1.65-5a.75.75,0,0,1,1.43.48l-1.66,5A.74.74,0,0,1,102.18,241Z"/><path d="M32.67,252.55a.76.76,0,0,1-.66-.39l-5.55-10a.75.75,0,0,1,.3-1,.76.76,0,0,1,1,.29l5.55,10a.75.75,0,0,1-.3,1A.68.68,0,0,1,32.67,252.55Z"/><path d="M205.42,229.56a.74.74,0,0,1-.61-1.17l8.66-12.55a.75.75,0,1,1,1.23.85L206,229.24A.74.74,0,0,1,205.42,229.56Z"/><path d="M242.89,230h-.09l-7.43-.88a.75.75,0,1,1,.17-1.49l7.43.88a.75.75,0,0,1-.08,1.49Z"/><path class="cls-3" d="M169.4,105a.74.74,0,0,1-.75-.75V98.43a.75.75,0,0,1,1.5,0v5.86A.75.75,0,0,1,169.4,105Z"/><path class="cls-3" d="M87.89,64.13a.7.7,0,0,1-.48-.19l-7.5-6.44a.75.75,0,0,1,1-1.14l7.5,6.45a.75.75,0,0,1,.08,1.06A.73.73,0,0,1,87.89,64.13Z"/></svg>