<svg id="Слой_1" data-name="Слой 1" xmlns="http://www.w3.org/2000/svg" viewBox="0 0 328.04 336.48"><defs><style>.cls-1{fill:#ffdf00;}.cls-2{fill:#2b4df7;}.cls-3{fill:#fff;}</style></defs><g id="Bush"><path class="cls-1" d="M187.37,320.84H65s10.36-49.66,37.11-36.17c0,0,19.6-46.17,59.17-37.5s37.63,33,21.43,51.51C182.74,298.68,204.2,294.5,187.37,320.84Z"/><path d="M134.1,321.59a.75.75,0,0,0,.72-.54c3.35-11.63,13-40.17,30.41-54.14a.75.75,0,0,0,.12-1.05.77.77,0,0,0-1.06-.12c-17.72,14.24-27.52,43.13-30.91,54.89a.76.76,0,0,0,.51.93Z"/><path d="M150.11,321.59a.77.77,0,0,0,.61-.31c3.89-5.32,11.19-12.89,23.89-18.75a.75.75,0,0,0,.36-1,.74.74,0,0,0-1-.36c-13,6-20.48,13.76-24.47,19.23a.74.74,0,0,0,.16,1A.73.73,0,0,0,150.11,321.59Z"/><path d="M163.32,299.23a.75.75,0,0,0,.75-.75v-8.34a.75.75,0,0,0-1.5,0v8.34A.76.76,0,0,0,163.32,299.23Z"/><path d="M198.92,321.45a.74.74,0,0,0,.61-.31l6-8.34a.74.74,0,0,0-.17-1,.75.75,0,0,0-1,.17l-6,8.34a.74.74,0,0,0,.18,1A.69.69,0,0,0,198.92,321.45Z"/><path d="M206.38,321.59a.74.74,0,0,0,.5-.2l3.5-3.13a.75.75,0,0,0,.06-1.06.76.76,0,0,0-1.06-.06l-3.5,3.14a.76.76,0,0,0-.06,1.06A.78.78,0,0,0,206.38,321.59Z"/></g><g id="Objects_2" data-name="Objects 2"><path class="cls-2" d="M202.37,114.29a17.27,17.27,0,0,0,6.76-1.88c4.05-1.75,7.88-3.4,13.29.84a.75.75,0,1,0,.92-1.18c-6.11-4.79-10.73-2.79-14.81-1-3.73,1.61-6.95,3-11.21-.05a.75.75,0,0,0-1,.18.74.74,0,0,0,.18,1A10,10,0,0,0,202.37,114.29Z"/><path d="M211.47,131.76a.79.79,0,0,0,.53-.22l11.41-11.42a.74.74,0,0,0,0-1.06.75.75,0,0,0-1.06,0l-11.41,11.42a.75.75,0,0,0,0,1.06A.79.79,0,0,0,211.47,131.76Z"/><path d="M222.88,131.76a.77.77,0,0,0,.53-.22.74.74,0,0,0,0-1.06L212,119.06a.75.75,0,0,0-1.06,1.06l11.41,11.42A.79.79,0,0,0,222.88,131.76Z"/></g><g id="Rain"><path d="M90.71,91.39,75.76,78.11A6.24,6.24,0,0,1,79.53,67.2a6.18,6.18,0,0,1,4.52,1.56L99,82A6.25,6.25,0,0,1,95.23,93h-.38A6.21,6.21,0,0,1,90.71,91.39ZM79.62,68.69A4.75,4.75,0,0,0,76.75,77l15,13.28A4.75,4.75,0,0,0,98,83.16l-15-13.28a4.73,4.73,0,0,0-3.15-1.2Z"/><rect class="cls-2" x="89.64" y="59.21" width="31.67" height="21.75" transform="translate(-14.43 29.35) rotate(-14.84)"/><path d="M77.41,35.61,93.5,41.49,78.2,52.09ZM79,37.79l.55,11.53,10.69-7.41Z"/><path class="cls-2" d="M141.64,40.12a.79.79,0,0,0,.53-.22.75.75,0,0,0,0-1.06L127.41,24.17a.75.75,0,0,0-1.06,1.06L141.11,39.9A.71.71,0,0,0,141.64,40.12Z"/><path d="M53.19,19.82a.79.79,0,0,0,.54-.22.75.75,0,0,0,0-1.06L42.06,6.94A.75.75,0,0,0,41,7,.75.75,0,0,0,41,8L52.67,19.6A.74.74,0,0,0,53.19,19.82Z"/><path d="M136.45,50a.76.76,0,0,0,.54-.23.75.75,0,0,0,0-1.06l-8.57-8.51a.75.75,0,1,0-1,1.06l8.56,8.52A.79.79,0,0,0,136.45,50Z"/><path d="M58.32,40.12a.77.77,0,0,0,.53-.22.75.75,0,0,0,0-1.06l-8.57-8.52a.75.75,0,0,0-1.06,1.06l8.57,8.52A.74.74,0,0,0,58.32,40.12Z"/><path class="cls-2" d="M62.6,19.82a.79.79,0,0,0,.54-.22.75.75,0,0,0,0-1.06L54.56,10a.75.75,0,0,0-1.06,0,.75.75,0,0,0,0,1.06l8.57,8.52A.74.74,0,0,0,62.6,19.82Z"/><path class="cls-2" d="M58.15,65l8.93-9.06a.75.75,0,1,0-1.06-1l-7.53,7.62L48,43.34a.75.75,0,0,0-1-.3.77.77,0,0,0-.3,1Z"/><path class="cls-3" d="M97.63,68.37l.18,0,16.11-3.92a.75.75,0,0,0-.35-1.46L97.46,66.89a.75.75,0,0,0,.17,1.48Z"/><path class="cls-3" d="M98.63,72.8l.17,0,8.06-2a.75.75,0,0,0-.35-1.46l-8.06,2a.75.75,0,0,0,.18,1.48Z"/></g><g id="Leg_2" data-name="Leg 2"><path class="cls-3" d="M183.72,220.46C168,234.49,153,248.71,141.57,267a135.2,135.2,0,0,0-18,45.52l-42.56-3s-.21-4,8.24-8.13,9.39-12.71,16.42-35.93c12.75-42.09,38.47-60.31,68-77Z"/><path d="M80.33,310.17l0-.66c0-.19-.14-4.54,8.66-8.84,6.67-3.26,8.47-9.48,12.81-24.52.93-3.22,2-6.87,3.22-11,13.08-43.18,39.77-61.28,68.3-77.45l.8-.46,10.51,33.42-.37.32c-14.83,13.21-30.3,27.67-42,46.37a134.26,134.26,0,0,0-17.87,45.27l-.14.64ZM173.21,189.5c-28,15.91-54,33.88-66.79,76.12-1.24,4.09-2.29,7.73-3.22,10.95-4.47,15.49-6.32,21.9-13.59,25.45-5.81,2.83-7.3,5.55-7.69,6.76L123,311.71a136,136,0,0,1,17.93-45.12c11.73-18.72,27.13-33.17,41.93-46.36Z"/><path d="M100.42,290.62c9.12,2,18.24,3.95,27.35,6a148.28,148.28,0,0,0-4.17,15.89l-42.56-3s-.21-4,8.24-8.13c4.33-2.11,6.68-5.39,8.89-11.2Z"/><path d="M113.74,228.92c13.69-19.85,39.83-29.14,59.91-40.53l10.07,32.07c-13,11.6-25.48,23.32-35.88,37.36C137.64,251,121.85,238.22,113.74,228.92Z"/><path class="cls-3" d="M148.73,253a.77.77,0,0,0,.58-.26.76.76,0,0,0-.09-1.06c-16.49-14-26.34-22.82-29.28-26.1a.75.75,0,0,0-1.12,1c3,3.33,12.89,12.16,29.43,26.24A.74.74,0,0,0,148.73,253Z"/><path class="cls-3" d="M95,295.58a14.84,14.84,0,0,1,5.93,3.9c.44.47-.27,1.18-.71.71a13.77,13.77,0,0,0-5.49-3.65C94.14,296.33,94.4,295.36,95,295.58Z"/><path class="cls-3" d="M91.33,298.55l4,2.36a.5.5,0,0,1-.51.87l-4-2.36A.5.5,0,0,1,91.33,298.55Z"/><path d="M117.88,252.34A3.74,3.74,0,0,0,121.4,250c.25-.59,1.11-.08.86.51a4.71,4.71,0,0,1-4.38,2.82A.5.5,0,0,1,117.88,252.34Z"/><circle cx="122.04" cy="320.43" r="2.73"/><circle cx="108" cy="320.43" r="2.73"/><circle cx="93.97" cy="320.43" r="2.73"/><circle cx="79.93" cy="320.43" r="2.73"/></g><g id="Leg"><path class="cls-3" d="M203.88,187c13.16,16.5,26.55,32.18,44.19,44.61A135.09,135.09,0,0,0,292.55,252l-5.33,42.34s-4,0-7.67-8.67-12.19-10.05-35-18.33c-41.33-15-58.14-41.67-73.24-72Z"/><path d="M278.86,286c-2.89-6.83-9-9-23.79-14.11-3.17-1.1-6.76-2.35-10.78-3.81-42.41-15.39-59-43-73.65-72.37l-.41-.83,33.94-8.68.3.38c12.38,15.52,26,31.75,44,44.45a134.53,134.53,0,0,0,44.24,20.29l.64.17-5.5,43.64h-.67C287,295.12,282.67,295,278.86,286Zm-31.23-53.74c-18-12.72-31.66-28.87-44-44.37l-31.2,8c14.37,28.77,30.91,55.74,72.4,70.8,4,1.46,7.6,2.71,10.76,3.81,15.23,5.3,21.53,7.49,24.68,14.94,2.52,5.95,5.15,7.59,6.33,8l5.15-40.86A136,136,0,0,1,247.63,232.25Z"/><path d="M269.44,274c2.48-9,4.93-18,7.47-27a145.6,145.6,0,0,0,15.64,5l-5.33,42.34s-4,0-7.67-8.67c-1.88-4.43-5-7-10.71-9.48Z"/><path d="M208.55,257.37c-19.08-14.73-31.75-40.67-42-61.34l37.36-9c10.87,13.64,21.91,26.71,35.37,37.85C231.93,234.7,218.28,249.77,208.55,257.37Z"/><path class="cls-3" d="M180.2,221.9a.77.77,0,0,0,.35-.08.75.75,0,0,0,.31-1l-3.69-7.07h-.45a22.21,22.21,0,0,1-8-2.1.75.75,0,1,0-.61,1.37,24.84,24.84,0,0,0,8.17,2.21l3.28,6.28A.75.75,0,0,0,180.2,221.9Z"/><path class="cls-3" d="M206.38,251.2a.74.74,0,0,0,.49-.18c.2-.17,20-17.26,27.45-27.47a.76.76,0,0,0-.16-1.05.75.75,0,0,0-1,.17c-7.36,10.07-27,27-27.22,27.21a.75.75,0,0,0,.49,1.32Z"/><path class="cls-3" d="M273,281.18a28.16,28.16,0,0,1,4.93-3.91c.55-.34,1.05.52.51.86a26.87,26.87,0,0,0-4.73,3.76A.5.5,0,0,1,273,281.18Z"/><path class="cls-3" d="M276,284.45l5-2.84a.5.5,0,0,1,.5.86l-5,2.84A.5.5,0,0,1,276,284.45Z"/><path d="M227.11,253.4a5.22,5.22,0,0,1,2.82,4.64.5.5,0,0,1-1,0,4.25,4.25,0,0,0-2.32-3.78C226,254,226.54,253.1,227.11,253.4Z"/><circle cx="300.06" cy="255.18" r="2.73"/><circle cx="298" cy="269.06" r="2.73"/><circle cx="295.95" cy="282.95" r="2.73"/><circle cx="293.89" cy="296.83" r="2.73"/></g><g id="Hand_2" data-name="Hand 2"><path class="cls-3" d="M168.76,127.91c31,22.18,38.88,41.05,67.87,40.56,20.48-.34,12.38,6.23,12.38,6.23s5.13,3.2,1.24,6c0,0,3.71,4.36-.71,6.24a36.4,36.4,0,0,1-10.39,2.12c1.58.68,3.38,1.91,3,3.87-.62,3-10.91,0-17.36-4.14-1.65-.18-3.36-.42-5.1-.73-14.15-2.47-29.33-8.3-45.26-29.93S168.76,127.91,168.76,127.91Z"/><path d="M224.5,189.54c-1.66-.19-3.33-.43-5-.72-13.33-2.33-29.18-7.75-45.73-30.23-16.15-22-6-30.89-5.52-31.26l.44-.37.47.34a275.59,275.59,0,0,1,23.56,19.27c14.55,12.94,24.15,21.48,43.87,21.15,8.9-.15,13.67,1,14.57,3.44a3.57,3.57,0,0,1-1,3.45c.89.72,2.23,2,2.28,3.67a3.26,3.26,0,0,1-1.18,2.57,5.6,5.6,0,0,1,1.1,4.14,3.94,3.94,0,0,1-2.53,2.66,33.11,33.11,0,0,1-8.37,1.94,3.51,3.51,0,0,1,1.38,3.52,2,2,0,0,1-1.29,1.47,5.13,5.13,0,0,1-1.93.31C235.75,194.89,229,192.38,224.5,189.54Zm12.14-20.32c-20.29.32-30.6-8.83-44.89-21.53a278.69,278.69,0,0,0-22.9-18.8c-1.64,1.93-7.22,10.63,6.16,28.81,16.23,22.06,31.74,27.36,44.78,29.64,1.67.29,3.36.54,5.05.73l.17,0,.15.09c5.47,3.48,13.46,6,15.82,5,.35-.15.39-.33.4-.4.25-1.18-.6-2.2-2.53-3l-2.74-1.19,3-.25a35.86,35.86,0,0,0,10.16-2.06,2.5,2.5,0,0,0,1.66-1.62c.3-1.27-.79-2.92-1.23-3.44l-.53-.62.66-.47a2.23,2.23,0,0,0,1.15-1.79c-.05-1.27-1.71-2.59-2.35-3l-.88-.56.81-.66c.42-.35,1.57-1.55,1.24-2.45s-2-2.46-11.63-2.46Z"/><path class="cls-3" d="M188,173.23a93.34,93.34,0,0,1-13.61-15.08c-15.92-21.64-5.64-30.24-5.64-30.24,13.27,9.51,22.3,18.4,30.58,25.43Q193.87,163.39,188,173.23Z"/><path d="M187.52,173.8a95.25,95.25,0,0,1-13.72-15.21c-16.15-22-6-30.89-5.52-31.26l.44-.37.47.34a273.92,273.92,0,0,1,23.57,19.28c2.47,2.19,4.8,4.26,7.07,6.19l.46.39-.29.54c-3.71,6.81-7.53,13.52-11.34,19.92l-.47.77Zm4.24-26.1a275.52,275.52,0,0,0-22.92-18.81c-1.65,1.9-7.28,10.54,6.17,28.81a94.11,94.11,0,0,0,12.82,14.37c3.55-6,7.1-12.22,10.56-18.55C196.26,151.69,194.07,149.75,191.76,147.7Z"/><path d="M228.37,181a4.7,4.7,0,0,1,5.85,5.55l1.39.83a.5.5,0,0,1-.5.87l-1.7-1a.5.5,0,0,1-.23-.56,3.72,3.72,0,0,0-4.55-4.71A.5.5,0,0,1,228.37,181Z"/><path d="M241,180.47a39.83,39.83,0,0,1,9-.09c.63.07.64,1.07,0,1a39.83,39.83,0,0,0-9,.09C240.39,181.55,240.4,180.55,241,180.47Z"/><path d="M239.73,174.26a39.83,39.83,0,0,1,9-.09c.63.07.64,1.07,0,1a39.83,39.83,0,0,0-9,.09C239.09,175.34,239.09,174.34,239.73,174.26Z"/></g><g id="Body"><path class="cls-3" d="M210.76,187.53a125.69,125.69,0,0,1-25.5-40c-8.85-21.32-33.16-33.5-40.83-7.5s5.72,63.5,5.72,63.5S203.76,194.53,210.76,187.53Z"/><path d="M149.44,203.79c-.13-.38-13.38-38-5.73-64,3.58-12.13,10.22-15,15.17-15.25,9.81-.51,21.49,9.22,27.07,22.68A124.44,124.44,0,0,0,211.31,187l.49.53-.51.51c-7.09,7.09-58.82,15.84-61,16.21l-.62.11Zm35.12-56c-5.35-12.89-16.38-22.24-25.6-21.75-6.4.34-11.18,5.24-13.81,14.18-7,23.69,3.85,57.55,5.5,62.44,5.87-1,50.92-8.93,59-15.21A126.11,126.11,0,0,1,184.56,147.82Z"/></g><g id="Head"><path class="cls-3" d="M146.68,97.15c4-6.92,12.32-9.61,18.52-6s8,12.15,4,19.07l0,.07a9.06,9.06,0,0,1,1.61,1.31c3,3.12,1.9,7.13-1.39,8.21a7.91,7.91,0,0,1-8.91-2.8,14.12,14.12,0,0,1-9.79-.79C141.43,111.87,142.65,104.08,146.68,97.15Z"/><path d="M160.12,117.86a14.81,14.81,0,0,1-9.81-1c-3.68-1.74-6-4.15-6.95-7.16-1.13-3.62-.23-8,2.67-13h0a16,16,0,0,1,8.86-7.29,13,13,0,0,1,10.69,1c6.38,3.71,8.34,12.34,4.52,19.56a8.59,8.59,0,0,1,1.17,1,6.2,6.2,0,0,1,1.78,5.77,5.16,5.16,0,0,1-3.49,3.67,9.15,9.15,0,0,1-2.78.43A8.4,8.4,0,0,1,160.12,117.86Zm-4.77-26.94a14.48,14.48,0,0,0-8,6.61h0c-2.68,4.61-3.53,8.57-2.54,11.77.8,2.59,2.88,4.69,6.16,6.25a13.36,13.36,0,0,0,9.27.73l.52-.14.3.44a7.13,7.13,0,0,0,8.05,2.52,3.68,3.68,0,0,0,2.5-2.6,4.73,4.73,0,0,0-1.41-4.38,8.19,8.19,0,0,0-1.48-1.2l-.55-.46.36-.62c3.81-6.55,2.16-14.64-3.68-18a11.12,11.12,0,0,0-5.63-1.5A12.39,12.39,0,0,0,155.35,90.92Z"/><circle cx="155.57" cy="102.37" r="1"/><path d="M147.16,102.4a23.63,23.63,0,0,1,4.8-4.62c.53-.38,1.14.41.61.79A22.4,22.4,0,0,0,148,103,.5.5,0,0,1,147.16,102.4Z"/><path d="M156.82,92.25c2,2.57,12.25,9.11,7.62,14.06-1.17,1.27-2.34,1.68-1.43,3.17,1.15,1.37,2.61,0,2.61,0a13.55,13.55,0,0,1,4.93,2.8c5.76-4.06,6.35-9.87,4.14-12,0,0,4.66-13.65-3.69-13.19,0,0-1.27-13-12.05-8.93S156.82,92.25,156.82,92.25Z"/><path d="M163.63,113a5.09,5.09,0,0,1,6,2c.34.54-.45,1.16-.79.61a4.1,4.1,0,0,0-4.81-1.74C163.41,114.08,163,113.16,163.63,113Z"/></g><g id="Hand"><path class="cls-3" d="M164.45,153.44c7.19-7.84-1.22-19.77-11.14-15.9-12.05,4.7-27.43,2.41-34.43-11-7.51-14.39-6.75-30.87-16.17-30.5-5.47.22-8.61,2.46-13.24-2.73-2.54-2.83-6.23-.61-6.19.45a.43.43,0,0,1-.31.43c-1.12.28-3.78,1.24-3.09,3.7,0,0-2.45,1.49-1.4,3.7s4,7.88,10.81,9.16S93.81,146.3,116,160.22c9.4,5.92,35.75,6.57,48.1-6.35Z"/><path d="M115.55,160.86c-14.18-8.92-18.56-26.19-21.46-37.61-1.55-6.11-2.89-11.39-4.94-11.78-3.41-.64-8.15-2.82-11.35-9.57a3.54,3.54,0,0,1,1.25-4.35,2.91,2.91,0,0,1,.36-1.93,5.31,5.31,0,0,1,3.14-2.11c.14-.84,1.11-1.59,2.08-2A4.69,4.69,0,0,1,90,92.8c3.27,3.67,5.57,3.35,9,2.86,1.07-.15,2.28-.32,3.6-.38,6.5-.27,8.52,6.55,11,15.17a84.88,84.88,0,0,0,5.82,15.74c7.07,13.54,22.31,15,33.48,10.65a10.72,10.72,0,0,1,13,3.94A10.32,10.32,0,0,1,165,154h0c-.13.15-.27.29-.41.44C157.25,162.07,145.3,165,134.68,165,126.71,165,119.48,163.33,115.55,160.86Zm38-22.62c-11.78,4.59-27.87,3-35.36-11.36a85.85,85.85,0,0,1-5.93-16c-2.44-8.3-4.23-14.31-9.55-14.09a34.23,34.23,0,0,0-3.45.36c-3.53.5-6.57.93-10.38-3.34a3.12,3.12,0,0,0-3.12-1.06,2.94,2.94,0,0,0-1.76,1,1.16,1.16,0,0,1-.87,1.17,4.19,4.19,0,0,0-2.45,1.47,1.6,1.6,0,0,0-.11,1.3l.15.55-.48.29c-.19.12-1.85,1.21-1.12,2.75,2.35,5,5.81,7.9,10.28,8.74,3,.56,4.24,5.46,6.12,12.88,2.84,11.19,7.13,28.11,20.8,36.71,8.81,5.54,34.78,6.72,47.16-6.24.13-.14.26-.27.38-.41h0a8.88,8.88,0,0,0,.86-11.32,9.25,9.25,0,0,0-7.54-4.1A9.92,9.92,0,0,0,153.58,138.24Z"/><path d="M84.07,99.22a3,3,0,0,1,2.73,1.15A9,9,0,0,1,88,102.05c.66,1.16,1.45.24,2.52-.21a7.34,7.34,0,0,1,8,1.12c.5.41-.22,1.12-.71.71-2.94-2.43-6-1.54-9,.24a.47.47,0,0,1-.6-.08c-.89-1.41-1.54-2.78-2.39-3.39-1.2-.84-2.48-.42-2.63,1.49a7,7,0,0,0,5.4,6.72c.63.15.37,1-.26,1-2.89-.4-4.72-2.69-5.76-5.21C81.83,102.75,81.74,99.74,84.07,99.22Z"/><path d="M85.51,94.81a12.29,12.29,0,0,1,5.82,4.3c.38.51-.49,1-.87.5a11.09,11.09,0,0,0-5.22-3.83C84.64,95.57,84.9,94.6,85.51,94.81Z"/><path d="M82.14,97.92l2.09,1.17c.56.31,0,1.18-.51.86l-2.08-1.17C81.08,98.47,81.58,97.61,82.14,97.92Z"/><path d="M126.88,164.48a.74.74,0,0,0,.73-.59l5.29-24.07a.75.75,0,0,0-1.46-.32l-5.29,24.07a.75.75,0,0,0,.57.89Z"/><path class="cls-2" d="M131.22,165a.75.75,0,0,0,.73-.6l5.24-24.61a.76.76,0,0,0-.58-.89.74.74,0,0,0-.89.58l-5.24,24.61a.75.75,0,0,0,.58.89Z"/></g><path d="M191.55,161.49a.75.75,0,0,0,.66-.4l4.7-9.05a.75.75,0,0,0-1.33-.69l-4.7,9.05a.76.76,0,0,0,.32,1A.85.85,0,0,0,191.55,161.49Z"/><g id="Hand_2-2" data-name="Hand 2"><path d="M228.64,181a4.7,4.7,0,0,1,5.85,5.55l1.39.83a.5.5,0,0,1-.5.87l-1.7-1a.5.5,0,0,1-.23-.56,3.72,3.72,0,0,0-4.55-4.71A.5.5,0,0,1,228.64,181Z"/></g></svg>