<svg id="Слой_1" data-name="Слой 1" xmlns="http://www.w3.org/2000/svg" viewBox="0 0 258.64 343.07"><defs><style>.cls-1{fill:#fff;}.cls-2{fill:#ffdf00;}.cls-3{fill:#2b4df7;}</style></defs><g id="Bottom"><path class="cls-1" d="M184.66,283.88s-1.87-6.19-7.27-7.86c-3.15-1-7.16-.17-11-7.53-2.75-5.26-6.21-23.62-10.95-40.32C140.6,176,123,147.93,123,147.93l-11.59,10.72H83c-4.34,28.23-49.91,121.21-49.91,121.21L72,300.36s2.83-5.81,0-10.71S60.91,282,85.08,248.05c10.54-14.82,18.34-33.74,23.78-50.35,15.46,37.83,33.31,97.55,33.31,97.55Z"/><path d="M72.33,301.38,32.08,280.19l.32-.66c.46-.92,45.58-93.2,49.85-121l.1-.64h28.72l12-11.13.48.77c.18.28,17.87,28.72,32.56,80.42,1.93,6.79,3.66,13.91,5.19,20.19,2.21,9.09,4.12,16.94,5.71,20,2.94,5.62,5.8,6.17,8.58,6.7a17.34,17.34,0,0,1,2,.46c5.71,1.78,7.69,8.09,7.77,8.36l.22.74-43.94,11.76-.21-.7c-.17-.59-17.42-58.15-32.52-95.59-6.69,20-14.51,36.34-23.24,48.62-21.14,29.69-17.13,35.13-14.2,39.1a16.27,16.27,0,0,1,1.15,1.69c3,5.18.15,11.15,0,11.41ZM34.07,279.54l37.54,19.77c.61-1.64,1.76-5.76-.27-9.28a15.14,15.14,0,0,0-1-1.55c-3.38-4.58-7.59-10.28,14.18-40.86,8.92-12.55,16.89-29.42,23.68-50.15l.63-1.94.77,1.89c14.4,35.23,31.07,90.1,33.13,96.91l41-11c-.67-1.62-2.62-5.43-6.5-6.64a17.69,17.69,0,0,0-1.83-.41c-2.83-.55-6.35-1.22-9.62-7.49-1.68-3.2-3.52-10.76-5.84-20.33-1.53-6.26-3.25-13.37-5.17-20.13-13.3-46.78-29-74.39-31.92-79.26L111.66,159.4h-28C79,186.86,38.12,271.23,34.07,279.54Z"/><path d="M166.39,268.49c-9.85,3.15-19.54,6.82-29.43,9.83,3.22,10.27,5.21,16.93,5.21,16.93l42.49-11.37s-1.87-6.19-7.27-7.86C174.25,275,170.24,275.83,166.39,268.49Z"/><path class="cls-1" d="M168.57,270.63l-5.13,5.26c-.41.42.21,1.1.62.67l5.13-5.25C169.6,270.88,169,270.21,168.57,270.63Z"/><path class="cls-1" d="M171.11,271.57,166,276.83c-.41.42.21,1.1.62.67l5.13-5.25C172.15,271.83,171.52,271.15,171.11,271.57Z"/><path d="M69,276.66c-9.38-4.37-19-8.26-28.29-12.77-4.6,9.73-7.66,16-7.66,16L72,300.36s2.83-5.81,0-10.71C70.35,286.8,66.86,284.66,69,276.66Z"/><path class="cls-1" d="M69.17,279.71l-7.34.38c-.58,0-.59.94,0,.91l7.34-.37C69.76,280.6,69.76,279.68,69.17,279.71Z"/><path class="cls-1" d="M70.4,282.13l-7.34.37c-.59,0-.59.95,0,.92L70.4,283C71,283,71,282.1,70.4,282.13Z"/><path d="M108.63,196.5a.66.66,0,0,1-.27-.06.73.73,0,0,1-.42-1,96,96,0,0,0,4.9-16.11l.08-.46,6.91-2.07a.75.75,0,1,1,.44,1.43l-6,1.82a101.58,101.58,0,0,1-4.9,15.94A.74.74,0,0,1,108.63,196.5Z"/></g><g id="Head"><path class="cls-1" d="M129.23,65.73a12,12,0,0,0-9.13-3.44c-7.16.65-12.37,7.65-11.64,15.62V78a15.43,15.43,0,0,0,.45,2.4c-2.82,2-2.33,6.15-.06,8.28a6.16,6.16,0,0,0,7.48,1,13.75,13.75,0,0,0,6.38,1.54c10.18-.06,13.88-7.62,11.65-15.61C133.37,72,132,68.27,129.23,65.73Z"/><path d="M122.64,91.92a14.55,14.55,0,0,1-6.3-1.45,7,7,0,0,1-10.1-6.65,5.29,5.29,0,0,1,1.82-3.72,14.23,14.23,0,0,1-.34-2v-.14a16,16,0,0,1,3.5-11.64A12.94,12.94,0,0,1,120,61.55a12.63,12.63,0,0,1,9.71,3.63c3,2.75,4.42,6.89,5.34,10.18,1.26,4.52.66,8.87-1.64,11.92s-6,4.61-10.72,4.64Zm-6.32-3.13.35.18a13.63,13.63,0,0,0,6,1.45c4.26,0,7.56-1.42,9.53-4s2.53-6.55,1.39-10.62c-.92-3.29-2.22-7-4.91-9.48h0A11.17,11.17,0,0,0,120.17,63a11.52,11.52,0,0,0-7.81,4.2,14.6,14.6,0,0,0-3.16,10.6V78a15.35,15.35,0,0,0,.42,2.23l.13.51-.42.3a3.74,3.74,0,0,0-1.61,2.92,5.46,5.46,0,0,0,1.64,4.2A5.39,5.39,0,0,0,116,89Z"/><circle cx="124.09" cy="76.53" r="1"/><path d="M131.7,80.11a23.65,23.65,0,0,0-2.4-6.22c-.32-.56-1.21-.1-.89.46a22.33,22.33,0,0,1,2.31,6A.5.5,0,0,0,131.7,80.11Z"/><path d="M115.84,84a5.11,5.11,0,0,0-6.29-.67c-.54.35-.09,1.24.46.89a4.09,4.09,0,0,1,5.09.45C115.56,85.14,116.31,84.47,115.84,84Z"/><path d="M114.06,79.18c2.18,1.48,2-2.49,6-7.32,1.74-2.14,13.14-6.4,12-10.59-1.62-6.13-8.54.72-12,1a14,14,0,0,0-11.29,18.93S112.91,79.06,114.06,79.18Z"/><path d="M109.52,74c1.74-2.25,1.47-2.57,3.89-4.07-2.09-7.58-14.53-15.45-23-6.21C86.61,67.86,87.6,75,87.61,75.53,82.35,74.9,76.3,77,73.49,81.3c-4.11,6.33.19,14.33,6.83,16.62,7.25,2.52,15.74-.5,21.34-5.74,8.88-8.31,2.86-20.4,3.77-20.87C106.62,70.72,108.57,72.85,109.52,74Z"/></g><g id="Hand_and_window" data-name="Hand and window"><g id="Hand_2" data-name="Hand 2"><path class="cls-1" d="M191.78,119.63c-1.87,14-18.16,32.34-37.41,30.34-16.26-1.69-26.15-14.85-25.47-18.75,1.86-10.55-3.3-17.87-3.45-26.67-.09-5.13,0-8.55,0-8.55a19.43,19.43,0,0,1,8.47,3.65c10.28,7.61,17,24.85,24.73,25.91,10.75,1.46,17.25-13.68,21.75-23.1"/><path d="M157.33,150.87a28.23,28.23,0,0,1-3-.16A34.45,34.45,0,0,1,131,137.84c-2-2.71-3.06-5.17-2.79-6.75,1.08-6.1-.27-11.14-1.57-16a43.19,43.19,0,0,1-1.89-10.5c-.09-5.1,0-8.55,0-8.58l0-.87.86.14a20.27,20.27,0,0,1,8.79,3.79c4.74,3.51,8.78,9.09,12.35,14,4.17,5.76,8.11,11.21,12,11.74,9.63,1.32,15.74-11.63,20.22-21.07l.76-1.6,1.35.64-.76,1.6c-4.67,9.87-11.06,23.38-21.77,21.92-4.55-.62-8.49-6.06-13.05-12.35-3.67-5.07-7.46-10.32-12-13.69a18.86,18.86,0,0,0-7.29-3.35c0,1.33,0,4.08,0,7.63A41.39,41.39,0,0,0,128,114.68c1.34,5,2.73,10.25,1.6,16.67-.15.85.42,2.82,2.51,5.59a32.9,32.9,0,0,0,22.3,12.28c19.35,2,34.83-16.54,36.59-29.69l1.48.2C190.78,132.76,176.11,150.87,157.33,150.87Z"/></g><g id="Hand_2-2" data-name="Hand 2"><path d="M162.4,125.38a10.32,10.32,0,0,1-3.78.18c-7.74-1.06-14.45-18.3-24.73-25.91A19.43,19.43,0,0,0,125.42,96s-.06,3.42,0,8.55c.15,8.8,5.31,16.12,3.45,26.67-.68,3.9,8,19.3,24.26,21a36.1,36.1,0,0,0,11.32-.57C164.18,148.66,163.13,130.47,162.4,125.38Z"/><path d="M157,153.16c-1.31,0-2.63-.07-4-.2-11.4-1.19-18.34-8.87-20.8-12.13-2.78-3.69-4.48-7.69-4.12-9.74,1.08-6.1-.27-11.14-1.57-16a43,43,0,0,1-1.89-10.49c-.09-5.1,0-8.55,0-8.58l0-.87.86.14a20.27,20.27,0,0,1,8.79,3.79c4.74,3.51,8.78,9.09,12.35,14,4.17,5.76,8.11,11.21,12,11.74a9.61,9.61,0,0,0,3.51-.16l.8-.19.12.81c.49,3.43,1.11,12.63,1.57,19.34.23,3.34.41,6,.51,6.95l.06.67-.65.14A36.38,36.38,0,0,1,157,153.16ZM126.16,96.91c0,1.33,0,4.08,0,7.63A41.85,41.85,0,0,0,128,114.68c1.35,5,2.74,10.25,1.61,16.67-.24,1.37,1,4.85,3.84,8.58,2.34,3.1,8.94,10.41,19.75,11.53a35.67,35.67,0,0,0,10.44-.42c-.1-1.28-.26-3.56-.45-6.33-.42-6.22-1-14.59-1.46-18.44a11,11,0,0,1-3.24,0c-4.55-.62-8.49-6.06-13.05-12.35-3.67-5.07-7.46-10.32-12-13.69A18.86,18.86,0,0,0,126.16,96.91Z"/></g><rect x="182.8" y="50.91" width="51.2" height="83.89" transform="translate(-19.1 75.67) rotate(-19.7)"/><path d="M198,141.93,169.2,61.54l49.62-17.76,28.78,80.39ZM171.12,62.44,198.89,140l46.79-16.75L217.91,45.69Z"/><path class="cls-1" d="M202.87,79.23a.75.75,0,0,1-.25-1.45l9.92-3.55a.75.75,0,0,1,1,.45.76.76,0,0,1-.45,1l-9.92,3.55A.78.78,0,0,1,202.87,79.23Z"/><path class="cls-1" d="M186.83,85a.75.75,0,0,1-.26-1.46l9-3.23a.75.75,0,0,1,.5,1.42l-9,3.22A.74.74,0,0,1,186.83,85Z"/><path class="cls-1" d="M184.58,78.71a.75.75,0,0,1-.25-1.46l26-9.29a.75.75,0,0,1,.5,1.41l-26,9.3A.78.78,0,0,1,184.58,78.71Z"/><path class="cls-1" d="M213.79,89.47a.75.75,0,0,1-.26-1.46l3.5-1.25a.75.75,0,1,1,.5,1.42L214,89.43A.73.73,0,0,1,213.79,89.47Z"/><path class="cls-1" d="M191.32,97.52a.76.76,0,0,1-.71-.5.75.75,0,0,1,.45-1l15.75-5.64a.75.75,0,1,1,.5,1.41l-15.74,5.64A.79.79,0,0,1,191.32,97.52Z"/><path class="cls-1" d="M189.07,91.25a.74.74,0,0,1-.7-.5.75.75,0,0,1,.45-1l26-9.29a.75.75,0,1,1,.51,1.41l-26,9.29A.7.7,0,0,1,189.07,91.25Z"/><polygon class="cls-2" points="205.64 57.74 215.26 64.08 216.42 53.88 205.64 57.74"/><path d="M162.11,60.15a.74.74,0,0,1-.48-.18l-9.23-7.71a.75.75,0,1,1,1-1.15l9.23,7.71a.75.75,0,0,1,.09,1.06A.72.72,0,0,1,162.11,60.15Z"/><path d="M157.64,65.74l-.18,0-4.16-1a.75.75,0,0,1,.35-1.46l4.17,1a.75.75,0,0,1-.18,1.48Z"/><circle class="cls-3" cx="230.43" cy="50.59" r="4.32"/><circle class="cls-3" cx="234.8" cy="62.8" r="4.32"/><rect class="cls-3" x="241.54" y="77.31" width="3.91" height="19.56" transform="translate(-15.11 87.17) rotate(-19.7)"/><path class="cls-1" d="M229.64,76.22l17,47.5-23.47,8.4c-.28-.67-.54-1.35-.79-2.05A59,59,0,0,1,229.64,76.22Z"/><path d="M222.75,133.07l-.28-.66c-.28-.69-.54-1.38-.79-2.09A60,60,0,0,1,229,75.79l.83-1.19,17.75,49.57Zm6.68-55.21a58.5,58.5,0,0,0-6.34,52c.16.45.33.9.5,1.35l22.09-7.91Z"/><path class="cls-1" d="M180.37,102.46c3.84-8.74,14.84-14.07,16.5-9.07s-6.21,6.48-6.21,6.48.55,11-3.12,13.26"/><path d="M187.54,113.88a.75.75,0,0,1-.64-.36.74.74,0,0,1,.25-1c2.69-1.66,2.91-9.65,2.76-12.58l0-.65.64-.13s4.15-.81,5.46-3a2.88,2.88,0,0,0,.18-2.48,2,2,0,0,0-2.08-1.41c-3.79-.17-10.32,4.4-13,10.55a.76.76,0,0,1-1,.39.75.75,0,0,1-.38-1c3-6.79,10.08-11.62,14.45-11.45a3.54,3.54,0,0,1,3.45,2.44,4.35,4.35,0,0,1-.32,3.71c-1.31,2.22-4.47,3.25-5.84,3.6.07,2.58,0,11.13-3.5,13.31A.77.77,0,0,1,187.54,113.88Z"/></g><g id="Body"><path d="M125.43,96c-22.32,2.53-32,21.73-39.76,43.68S79,160.26,79,160.26l53.33,1.54s-8.23-17.47-3.41-25.42S149.28,105.79,125.43,96Z"/><path d="M133.48,162.59,79.31,161l-.16.21-.6-.29c-.72-.4-1-.56,6.41-21.51,7.09-20,16.64-41.49,40.38-44.17l.19,0,.18.08c6.67,2.73,10.89,6.72,12.56,11.85,3.28,10.1-4,21.93-8,28.29l-.81,1.32c-4.56,7.51,3.37,24.54,3.45,24.72Zm-53.69-3.05L131.11,161c-1.75-4-7.19-17.92-2.88-25l.82-1.33c3.79-6.15,10.86-17.59,7.79-27-1.51-4.64-5.38-8.29-11.52-10.85-22.75,2.68-32,23.68-38.94,43.16C81.54,153.57,80.17,158.06,79.79,159.54Z"/><path class="cls-1" d="M129.45,134.54a.76.76,0,0,1-.54-1.28c4.78-4.89,8.94-15.57,7.64-26.52a.75.75,0,0,1,.65-.84.75.75,0,0,1,.83.66c1.36,11.42-3,22.6-8,27.75A.78.78,0,0,1,129.45,134.54Z"/></g><rect class="cls-2" x="25.59" y="116.03" width="97.41" height="57.39"/><path d="M37.56,161.6a.74.74,0,0,1-.75-.75V132.67a.75.75,0,0,1,1.5,0v28.18A.75.75,0,0,1,37.56,161.6Z"/><path d="M47.35,161.6a.75.75,0,0,1-.75-.75V143.2a.75.75,0,0,1,1.5,0v17.65A.74.74,0,0,1,47.35,161.6Z"/><path d="M108.07,145.94a.76.76,0,0,1-.54-.23.75.75,0,0,1,0-1.06l7.19-6.91-11.35-7.35a.75.75,0,0,1-.22-1,.76.76,0,0,1,1-.22l12.93,8.38-8.55,8.22A.73.73,0,0,1,108.07,145.94Z"/><g id="Objects"><polygon points="20.56 129.76 20.56 145.19 9.06 136.62 20.56 129.76"/><rect class="cls-1" x="42.43" y="102.74" width="29.7" height="29.7" transform="translate(-56.96 53.89) rotate(-34.88)"/><path d="M53.41,139.32l-17.84-25.6L61.16,95.87,79,121.47ZM37.65,114.09l16.13,23.14L76.92,121.1,60.79,98Z"/><path class="cls-3" d="M56.45,111.07,70.61,91.79s7.44,7.54,4.15,15.61C70.61,117.59,56.45,111.07,56.45,111.07Z"/><circle class="cls-3" cx="34.56" cy="98.17" r="3"/></g><g id="Hand"><path class="cls-1" d="M80.5,145.51c-6.83-.92-13.73-1.44-20.46-2.91-6.64,19.67-5.06,36.6,2.08,35.23,0,0,1.68,2.14,5.81.91a5.31,5.31,0,0,0,4.13.61,3,3,0,0,0,1.7-1.27l.08.08c2.14,2,6-4.06,6.48-7.68a12,12,0,0,0-3.54-10.11A68.55,68.55,0,0,1,80.5,145.51Z"/><path d="M70.76,180.3a6.52,6.52,0,0,1-2.93-.75c-3.38.9-5.26-.3-6-.93a4.42,4.42,0,0,1-4-1.62c-4.29-4.91-3.69-19.48,1.43-34.64l.21-.63.66.14c4.66,1,9.5,1.58,14.19,2.13,2.07.25,4.14.49,6.21.77l.94.13-.34.88a69,69,0,0,0-3.63,14.34,12.73,12.73,0,0,1,3.49,10.46c-.4,3-3,7.68-5.42,8.55a2.23,2.23,0,0,1-1.74,0,3.77,3.77,0,0,1-1.61,1A5,5,0,0,1,70.76,180.3Zm-2.71-2.37.29.18a4.61,4.61,0,0,0,3.49.53,2.27,2.27,0,0,0,1.31-1l.5-.74.72.7a.66.66,0,0,0,.77.1c1.67-.6,4.08-4.58,4.44-7.33a11.32,11.32,0,0,0-3.33-9.49l-.26-.26,0-.37a71.68,71.68,0,0,1,3.44-14.14l-5.26-.64c-4.5-.53-9.14-1.07-13.67-2C55.4,159.06,55.72,172.22,59,176A3,3,0,0,0,62,177.09l.45-.09.28.36c0,.06,1.47,1.71,5,.66Z"/><path d="M125.42,96a38.26,38.26,0,0,1-4.26,8.16c-3.79,5.73-22.29,16.06-32.25,26.92-4.66,5.08-7.52,11.44-9.44,17.39-6.48-2-18.45-3.55-25.06-5,.81-2.46,1.74-5,2.82-7.5,11-25.94,35.07-39.71,56.38-40.74A49.39,49.39,0,0,1,125.42,96Z"/><path d="M80,149.41l-.7-.22a150.41,150.41,0,0,0-15.63-3.26c-3.51-.61-6.83-1.19-9.38-1.76l-.8-.19.26-.78c.88-2.68,1.81-5.16,2.84-7.57,12.33-29,38.43-40.29,57-41.18a49.46,49.46,0,0,1,12,.82l.84.16-.27.81a39.23,39.23,0,0,1-4.36,8.33c-1.88,2.84-7.08,6.66-13.1,11.07-6.58,4.84-14.05,10.32-19.22,16-3.91,4.27-6.94,9.86-9.28,17.11Zm-24.57-6.53c2.4.51,5.37,1,8.5,1.58,5.46.95,11.09,1.93,15.1,3.09,2.37-7.13,5.45-12.68,9.38-17,5.26-5.75,12.79-11.27,19.44-16.14,5.9-4.34,11-8.08,12.73-10.69a41.77,41.77,0,0,0,3.87-7.17,48.29,48.29,0,0,0-10.75-.64c-18.17.88-43.67,12-55.73,40.28C57,138.35,56.18,140.54,55.38,142.88Z"/><path d="M68,169.31a19.8,19.8,0,0,0-.67,8.72c.09.63,1,.36,1-.27a18.72,18.72,0,0,1,.67-8.18A.5.5,0,0,0,68,169.31Z"/><path d="M62.29,169.15c.11-.63-.86-.9-1-.26a28.83,28.83,0,0,0-.11,7.13c.05.64,1.05.65,1,0A28.2,28.2,0,0,1,62.29,169.15Z"/><path d="M77.74,169c-1.32-.16-2.07.81-2.55,1.92a20.75,20.75,0,0,0-1.43,5.92c-.07.64.93.63,1,0,.15-1.46.76-7.11,3-6.84C78.38,170,78.37,169,77.74,169Z"/></g><g id="Neck"><path class="cls-1" d="M133.89,99.65a1.13,1.13,0,0,1-.11.22,6.24,6.24,0,0,1-.59.86,10.76,10.76,0,0,1-7.74,3.82l-.38,0a11.45,11.45,0,0,1-3.91-.43,10.55,10.55,0,0,1-6.57-5.28,8.92,8.92,0,0,1-1-3.69,49.39,49.39,0,0,1,11.81.81A19.43,19.43,0,0,1,133.89,99.65Z"/><path d="M124.35,105.36a12,12,0,0,1-3.4-.48,11.32,11.32,0,0,1-7-5.66,9.6,9.6,0,0,1-1.06-4l0-.75.75,0a49.46,49.46,0,0,1,12,.82,20.16,20.16,0,0,1,8.77,3.78l.45.34-.19.53-.12.24a7.33,7.33,0,0,1-.72,1,11.45,11.45,0,0,1-8.25,4.09l-.39,0Zm-9.92-9.45a8.14,8.14,0,0,0,.82,2.63,9.83,9.83,0,0,0,6.11,4.9,10.71,10.71,0,0,0,3.66.4l.32,0a10,10,0,0,0,7.25-3.54c.11-.13.21-.27.31-.41a18.74,18.74,0,0,0-7.6-3.12A48.16,48.16,0,0,0,114.43,95.91Zm19.43,3.79h0Z"/></g></svg>